%FSLAX45Y45*%
G04 Gerber Fmt 4.5, Leading zero omitted, Abs format (unit mm)*
G04 Created by KiCad (PCBNEW 4.0.7) date Sun Nov 12 16:40:51 2017*
%MOMM*%
%LPD*%
G01*
G04 APERTURE LIST*
%ADD10C,0.127000*%
%ADD11C,0.150000*%
%ADD12C,0.200000*%
%ADD13C,0.300000*%
G04 APERTURE END LIST*
D10*
D11*
X7366000Y-16002000D02*
X7366000Y-17272000D01*
X7556500Y-16002000D02*
X7366000Y-16002000D01*
X7556500Y-15875000D02*
X7556500Y-16002000D01*
X7366000Y-15875000D02*
X7556500Y-15875000D01*
X7366000Y-15494000D02*
X7366000Y-15875000D01*
X7556500Y-15494000D02*
X7366000Y-15494000D01*
X7556500Y-15367000D02*
X7556500Y-15494000D01*
X7366000Y-15367000D02*
X7556500Y-15367000D01*
X7366000Y-14922500D02*
X7366000Y-15367000D01*
X11366500Y-14351000D02*
X15367000Y-14351000D01*
X11112500Y-14605000D02*
X11366500Y-14351000D01*
X9398000Y-14605000D02*
X11112500Y-14605000D01*
X9144000Y-14351000D02*
X9398000Y-14605000D01*
X7366000Y-14351000D02*
X9144000Y-14351000D01*
X15367000Y-14351000D02*
X15367000Y-17208500D01*
X7366000Y-14541500D02*
X7366000Y-14351000D01*
X7366000Y-14922500D02*
X7366000Y-14541500D01*
X15367000Y-17272000D02*
X7747000Y-17272000D01*
X15367000Y-17208500D02*
X15367000Y-17272000D01*
X7747000Y-17272000D02*
X7366000Y-17272000D01*
D12*
X7860690Y-15794500D02*
X7900690Y-15834500D01*
X7900690Y-15794500D02*
X7860690Y-15834500D01*
X8149840Y-16037070D02*
X8189840Y-16077070D01*
X8189840Y-16037070D02*
X8149840Y-16077070D01*
X8161340Y-15826190D02*
X8201340Y-15866190D01*
X8201340Y-15826190D02*
X8161340Y-15866190D01*
X8228230Y-15379300D02*
X8268230Y-15419300D01*
X8268230Y-15379300D02*
X8228230Y-15419300D01*
X8260650Y-15745190D02*
X8300650Y-15785190D01*
X8300650Y-15745190D02*
X8260650Y-15785190D01*
X8358280Y-14811450D02*
X8398280Y-14851450D01*
X8398280Y-14811450D02*
X8358280Y-14851450D01*
X8560550Y-15767590D02*
X8600550Y-15807590D01*
X8600550Y-15767590D02*
X8560550Y-15807590D01*
X8901740Y-15257270D02*
X8941740Y-15297270D01*
X8941740Y-15257270D02*
X8901740Y-15297270D01*
X9211690Y-15291250D02*
X9251690Y-15331250D01*
X9251690Y-15291250D02*
X9211690Y-15331250D01*
X9864090Y-16347090D02*
X9904090Y-16387090D01*
X9904090Y-16347090D02*
X9864090Y-16387090D01*
X10178880Y-16122730D02*
X10218880Y-16162730D01*
X10218880Y-16122730D02*
X10178880Y-16162730D01*
X10257580Y-16348550D02*
X10297580Y-16388550D01*
X10297580Y-16348550D02*
X10257580Y-16388550D01*
X10473630Y-16117120D02*
X10513630Y-16157120D01*
X10513630Y-16117120D02*
X10473630Y-16157120D01*
X11290020Y-16394420D02*
X11330020Y-16434420D01*
X11330020Y-16394420D02*
X11290020Y-16434420D01*
X11437470Y-14708770D02*
X11477470Y-14748770D01*
X11477470Y-14708770D02*
X11437470Y-14748770D01*
X11525200Y-14699150D02*
X11565200Y-14739150D01*
X11565200Y-14699150D02*
X11525200Y-14739150D01*
X11880070Y-14678230D02*
X11920070Y-14718230D01*
X11920070Y-14678230D02*
X11880070Y-14718230D01*
X11942160Y-14757330D02*
X11982160Y-14797330D01*
X11982160Y-14757330D02*
X11942160Y-14797330D01*
X12005410Y-14847650D02*
X12045410Y-14887650D01*
X12045410Y-14847650D02*
X12005410Y-14887650D01*
X12198900Y-14690450D02*
X12238900Y-14730450D01*
X12238900Y-14690450D02*
X12198900Y-14730450D01*
X12298200Y-14817600D02*
X12338200Y-14857600D01*
X12338200Y-14817600D02*
X12298200Y-14857600D01*
X12372320Y-14674800D02*
X12412320Y-14714800D01*
X12412320Y-14674800D02*
X12372320Y-14714800D01*
X12478350Y-14850710D02*
X12518350Y-14890710D01*
X12518350Y-14850710D02*
X12478350Y-14890710D01*
X12628970Y-14668030D02*
X12668970Y-14708030D01*
X12668970Y-14668030D02*
X12628970Y-14708030D01*
X12633080Y-16468030D02*
X12673080Y-16508030D01*
X12673080Y-16468030D02*
X12633080Y-16508030D01*
X12776940Y-14777740D02*
X12816940Y-14817740D01*
X12816940Y-14777740D02*
X12776940Y-14817740D01*
X12934990Y-14687980D02*
X12974990Y-14727980D01*
X12974990Y-14687980D02*
X12934990Y-14727980D01*
X7797000Y-17018000D02*
G75*
G03X7797000Y-17018000I-50000J0D01*
G01*
X8051000Y-17018000D02*
G75*
G03X8051000Y-17018000I-50000J0D01*
G01*
X8305000Y-17018000D02*
G75*
G03X8305000Y-17018000I-50000J0D01*
G01*
X8559000Y-17018000D02*
G75*
G03X8559000Y-17018000I-50000J0D01*
G01*
X8813000Y-17018000D02*
G75*
G03X8813000Y-17018000I-50000J0D01*
G01*
X9067000Y-17018000D02*
G75*
G03X9067000Y-17018000I-50000J0D01*
G01*
X9321000Y-17018000D02*
G75*
G03X9321000Y-17018000I-50000J0D01*
G01*
X9575000Y-17018000D02*
G75*
G03X9575000Y-17018000I-50000J0D01*
G01*
X9829000Y-17018000D02*
G75*
G03X9829000Y-17018000I-50000J0D01*
G01*
X10083000Y-17018000D02*
G75*
G03X10083000Y-17018000I-50000J0D01*
G01*
X10337000Y-17018000D02*
G75*
G03X10337000Y-17018000I-50000J0D01*
G01*
X10591000Y-17018000D02*
G75*
G03X10591000Y-17018000I-50000J0D01*
G01*
X10845000Y-17018000D02*
G75*
G03X10845000Y-17018000I-50000J0D01*
G01*
X11099000Y-17018000D02*
G75*
G03X11099000Y-17018000I-50000J0D01*
G01*
X11353000Y-17018000D02*
G75*
G03X11353000Y-17018000I-50000J0D01*
G01*
X11607000Y-17018000D02*
G75*
G03X11607000Y-17018000I-50000J0D01*
G01*
X11861000Y-17018000D02*
G75*
G03X11861000Y-17018000I-50000J0D01*
G01*
X12115000Y-17018000D02*
G75*
G03X12115000Y-17018000I-50000J0D01*
G01*
X12369000Y-17018000D02*
G75*
G03X12369000Y-17018000I-50000J0D01*
G01*
X12623000Y-17018000D02*
G75*
G03X12623000Y-17018000I-50000J0D01*
G01*
X12877000Y-17018000D02*
G75*
G03X12877000Y-17018000I-50000J0D01*
G01*
X13131000Y-17018000D02*
G75*
G03X13131000Y-17018000I-50000J0D01*
G01*
X13385000Y-17018000D02*
G75*
G03X13385000Y-17018000I-50000J0D01*
G01*
X13639000Y-17018000D02*
G75*
G03X13639000Y-17018000I-50000J0D01*
G01*
X13893000Y-17018000D02*
G75*
G03X13893000Y-17018000I-50000J0D01*
G01*
X14147000Y-17018000D02*
G75*
G03X14147000Y-17018000I-50000J0D01*
G01*
X14401000Y-17018000D02*
G75*
G03X14401000Y-17018000I-50000J0D01*
G01*
X14655000Y-17018000D02*
G75*
G03X14655000Y-17018000I-50000J0D01*
G01*
X14909000Y-17018000D02*
G75*
G03X14909000Y-17018000I-50000J0D01*
G01*
X15163000Y-17018000D02*
G75*
G03X15163000Y-17018000I-50000J0D01*
G01*
D13*
X7629928Y-17745214D02*
X7629928Y-17445214D01*
X7701357Y-17445214D01*
X7744214Y-17459500D01*
X7772786Y-17488072D01*
X7787071Y-17516643D01*
X7801357Y-17573786D01*
X7801357Y-17616643D01*
X7787071Y-17673786D01*
X7772786Y-17702357D01*
X7744214Y-17730929D01*
X7701357Y-17745214D01*
X7629928Y-17745214D01*
X7929928Y-17745214D02*
X7929928Y-17545214D01*
X7929928Y-17602357D02*
X7944214Y-17573786D01*
X7958500Y-17559500D01*
X7987071Y-17545214D01*
X8015643Y-17545214D01*
X8115643Y-17745214D02*
X8115643Y-17545214D01*
X8115643Y-17445214D02*
X8101357Y-17459500D01*
X8115643Y-17473786D01*
X8129928Y-17459500D01*
X8115643Y-17445214D01*
X8115643Y-17473786D01*
X8301357Y-17745214D02*
X8272786Y-17730929D01*
X8258500Y-17702357D01*
X8258500Y-17445214D01*
X8458500Y-17745214D02*
X8429929Y-17730929D01*
X8415643Y-17702357D01*
X8415643Y-17445214D01*
X8801357Y-17745214D02*
X8801357Y-17445214D01*
X8901357Y-17659500D01*
X9001357Y-17445214D01*
X9001357Y-17745214D01*
X9272786Y-17745214D02*
X9272786Y-17588072D01*
X9258500Y-17559500D01*
X9229929Y-17545214D01*
X9172786Y-17545214D01*
X9144214Y-17559500D01*
X9272786Y-17730929D02*
X9244214Y-17745214D01*
X9172786Y-17745214D01*
X9144214Y-17730929D01*
X9129929Y-17702357D01*
X9129929Y-17673786D01*
X9144214Y-17645214D01*
X9172786Y-17630929D01*
X9244214Y-17630929D01*
X9272786Y-17616643D01*
X9415643Y-17545214D02*
X9415643Y-17845214D01*
X9415643Y-17559500D02*
X9444214Y-17545214D01*
X9501357Y-17545214D01*
X9529929Y-17559500D01*
X9544214Y-17573786D01*
X9558500Y-17602357D01*
X9558500Y-17688072D01*
X9544214Y-17716643D01*
X9529929Y-17730929D01*
X9501357Y-17745214D01*
X9444214Y-17745214D01*
X9415643Y-17730929D01*
X9687071Y-17716643D02*
X9701357Y-17730929D01*
X9687071Y-17745214D01*
X9672786Y-17730929D01*
X9687071Y-17716643D01*
X9687071Y-17745214D01*
X9687071Y-17559500D02*
X9701357Y-17573786D01*
X9687071Y-17588072D01*
X9672786Y-17573786D01*
X9687071Y-17559500D01*
X9687071Y-17588072D01*
X7318500Y-18219500D02*
X7358500Y-18259500D01*
X7358500Y-18219500D02*
X7318500Y-18259500D01*
X7687071Y-18075214D02*
X7715643Y-18075214D01*
X7744214Y-18089500D01*
X7758500Y-18103786D01*
X7772786Y-18132357D01*
X7787071Y-18189500D01*
X7787071Y-18260929D01*
X7772786Y-18318072D01*
X7758500Y-18346643D01*
X7744214Y-18360929D01*
X7715643Y-18375214D01*
X7687071Y-18375214D01*
X7658500Y-18360929D01*
X7644214Y-18346643D01*
X7629928Y-18318072D01*
X7615643Y-18260929D01*
X7615643Y-18189500D01*
X7629928Y-18132357D01*
X7644214Y-18103786D01*
X7658500Y-18089500D01*
X7687071Y-18075214D01*
X7915643Y-18346643D02*
X7929928Y-18360929D01*
X7915643Y-18375214D01*
X7901357Y-18360929D01*
X7915643Y-18346643D01*
X7915643Y-18375214D01*
X8187071Y-18175214D02*
X8187071Y-18375214D01*
X8115643Y-18060929D02*
X8044214Y-18275214D01*
X8229928Y-18275214D01*
X8401357Y-18075214D02*
X8429929Y-18075214D01*
X8458500Y-18089500D01*
X8472786Y-18103786D01*
X8487071Y-18132357D01*
X8501357Y-18189500D01*
X8501357Y-18260929D01*
X8487071Y-18318072D01*
X8472786Y-18346643D01*
X8458500Y-18360929D01*
X8429929Y-18375214D01*
X8401357Y-18375214D01*
X8372786Y-18360929D01*
X8358500Y-18346643D01*
X8344214Y-18318072D01*
X8329928Y-18260929D01*
X8329928Y-18189500D01*
X8344214Y-18132357D01*
X8358500Y-18103786D01*
X8372786Y-18089500D01*
X8401357Y-18075214D01*
X8629929Y-18375214D02*
X8629929Y-18175214D01*
X8629929Y-18203786D02*
X8644214Y-18189500D01*
X8672786Y-18175214D01*
X8715643Y-18175214D01*
X8744214Y-18189500D01*
X8758500Y-18218072D01*
X8758500Y-18375214D01*
X8758500Y-18218072D02*
X8772786Y-18189500D01*
X8801357Y-18175214D01*
X8844214Y-18175214D01*
X8872786Y-18189500D01*
X8887071Y-18218072D01*
X8887071Y-18375214D01*
X9029929Y-18375214D02*
X9029929Y-18175214D01*
X9029929Y-18203786D02*
X9044214Y-18189500D01*
X9072786Y-18175214D01*
X9115643Y-18175214D01*
X9144214Y-18189500D01*
X9158500Y-18218072D01*
X9158500Y-18375214D01*
X9158500Y-18218072D02*
X9172786Y-18189500D01*
X9201357Y-18175214D01*
X9244214Y-18175214D01*
X9272786Y-18189500D01*
X9287071Y-18218072D01*
X9287071Y-18375214D01*
X9872786Y-18060929D02*
X9615643Y-18446643D01*
X10258500Y-18075214D02*
X10287071Y-18075214D01*
X10315643Y-18089500D01*
X10329928Y-18103786D01*
X10344214Y-18132357D01*
X10358500Y-18189500D01*
X10358500Y-18260929D01*
X10344214Y-18318072D01*
X10329928Y-18346643D01*
X10315643Y-18360929D01*
X10287071Y-18375214D01*
X10258500Y-18375214D01*
X10229928Y-18360929D01*
X10215643Y-18346643D01*
X10201357Y-18318072D01*
X10187071Y-18260929D01*
X10187071Y-18189500D01*
X10201357Y-18132357D01*
X10215643Y-18103786D01*
X10229928Y-18089500D01*
X10258500Y-18075214D01*
X10487071Y-18346643D02*
X10501357Y-18360929D01*
X10487071Y-18375214D01*
X10472786Y-18360929D01*
X10487071Y-18346643D01*
X10487071Y-18375214D01*
X10687071Y-18075214D02*
X10715643Y-18075214D01*
X10744214Y-18089500D01*
X10758500Y-18103786D01*
X10772786Y-18132357D01*
X10787071Y-18189500D01*
X10787071Y-18260929D01*
X10772786Y-18318072D01*
X10758500Y-18346643D01*
X10744214Y-18360929D01*
X10715643Y-18375214D01*
X10687071Y-18375214D01*
X10658500Y-18360929D01*
X10644214Y-18346643D01*
X10629928Y-18318072D01*
X10615643Y-18260929D01*
X10615643Y-18189500D01*
X10629928Y-18132357D01*
X10644214Y-18103786D01*
X10658500Y-18089500D01*
X10687071Y-18075214D01*
X11072786Y-18375214D02*
X10901357Y-18375214D01*
X10987071Y-18375214D02*
X10987071Y-18075214D01*
X10958500Y-18118072D01*
X10929928Y-18146643D01*
X10901357Y-18160929D01*
X11329928Y-18075214D02*
X11272785Y-18075214D01*
X11244214Y-18089500D01*
X11229928Y-18103786D01*
X11201357Y-18146643D01*
X11187071Y-18203786D01*
X11187071Y-18318072D01*
X11201357Y-18346643D01*
X11215643Y-18360929D01*
X11244214Y-18375214D01*
X11301357Y-18375214D01*
X11329928Y-18360929D01*
X11344214Y-18346643D01*
X11358500Y-18318072D01*
X11358500Y-18246643D01*
X11344214Y-18218072D01*
X11329928Y-18203786D01*
X11301357Y-18189500D01*
X11244214Y-18189500D01*
X11215643Y-18203786D01*
X11201357Y-18218072D01*
X11187071Y-18246643D01*
X11472786Y-18075214D02*
X11472786Y-18132357D01*
X11587071Y-18075214D02*
X11587071Y-18132357D01*
X12029928Y-18489500D02*
X12015643Y-18475214D01*
X11987071Y-18432357D01*
X11972785Y-18403786D01*
X11958500Y-18360929D01*
X11944214Y-18289500D01*
X11944214Y-18232357D01*
X11958500Y-18160929D01*
X11972785Y-18118072D01*
X11987071Y-18089500D01*
X12015643Y-18046643D01*
X12029928Y-18032357D01*
X12129928Y-18103786D02*
X12144214Y-18089500D01*
X12172785Y-18075214D01*
X12244214Y-18075214D01*
X12272785Y-18089500D01*
X12287071Y-18103786D01*
X12301357Y-18132357D01*
X12301357Y-18160929D01*
X12287071Y-18203786D01*
X12115643Y-18375214D01*
X12301357Y-18375214D01*
X12401357Y-18075214D02*
X12601357Y-18075214D01*
X12472785Y-18375214D01*
X12944214Y-18375214D02*
X12944214Y-18075214D01*
X13072785Y-18375214D02*
X13072785Y-18218072D01*
X13058500Y-18189500D01*
X13029928Y-18175214D01*
X12987071Y-18175214D01*
X12958500Y-18189500D01*
X12944214Y-18203786D01*
X13258500Y-18375214D02*
X13229928Y-18360929D01*
X13215643Y-18346643D01*
X13201357Y-18318072D01*
X13201357Y-18232357D01*
X13215643Y-18203786D01*
X13229928Y-18189500D01*
X13258500Y-18175214D01*
X13301357Y-18175214D01*
X13329928Y-18189500D01*
X13344214Y-18203786D01*
X13358500Y-18232357D01*
X13358500Y-18318072D01*
X13344214Y-18346643D01*
X13329928Y-18360929D01*
X13301357Y-18375214D01*
X13258500Y-18375214D01*
X13529928Y-18375214D02*
X13501357Y-18360929D01*
X13487071Y-18332357D01*
X13487071Y-18075214D01*
X13758500Y-18360929D02*
X13729928Y-18375214D01*
X13672786Y-18375214D01*
X13644214Y-18360929D01*
X13629928Y-18332357D01*
X13629928Y-18218072D01*
X13644214Y-18189500D01*
X13672786Y-18175214D01*
X13729928Y-18175214D01*
X13758500Y-18189500D01*
X13772786Y-18218072D01*
X13772786Y-18246643D01*
X13629928Y-18275214D01*
X13887071Y-18360929D02*
X13915643Y-18375214D01*
X13972786Y-18375214D01*
X14001357Y-18360929D01*
X14015643Y-18332357D01*
X14015643Y-18318072D01*
X14001357Y-18289500D01*
X13972786Y-18275214D01*
X13929928Y-18275214D01*
X13901357Y-18260929D01*
X13887071Y-18232357D01*
X13887071Y-18218072D01*
X13901357Y-18189500D01*
X13929928Y-18175214D01*
X13972786Y-18175214D01*
X14001357Y-18189500D01*
X14115643Y-18489500D02*
X14129928Y-18475214D01*
X14158500Y-18432357D01*
X14172786Y-18403786D01*
X14187071Y-18360929D01*
X14201357Y-18289500D01*
X14201357Y-18232357D01*
X14187071Y-18160929D01*
X14172786Y-18118072D01*
X14158500Y-18089500D01*
X14129928Y-18046643D01*
X14115643Y-18032357D01*
X7358500Y-18635500D02*
G75*
G03X7358500Y-18635500I-50000J0D01*
G01*
X7787071Y-18771214D02*
X7615643Y-18771214D01*
X7701357Y-18771214D02*
X7701357Y-18471214D01*
X7672786Y-18514072D01*
X7644214Y-18542643D01*
X7615643Y-18556929D01*
X7915643Y-18742643D02*
X7929928Y-18756929D01*
X7915643Y-18771214D01*
X7901357Y-18756929D01*
X7915643Y-18742643D01*
X7915643Y-18771214D01*
X8115643Y-18471214D02*
X8144214Y-18471214D01*
X8172786Y-18485500D01*
X8187071Y-18499786D01*
X8201357Y-18528357D01*
X8215643Y-18585500D01*
X8215643Y-18656929D01*
X8201357Y-18714072D01*
X8187071Y-18742643D01*
X8172786Y-18756929D01*
X8144214Y-18771214D01*
X8115643Y-18771214D01*
X8087071Y-18756929D01*
X8072786Y-18742643D01*
X8058500Y-18714072D01*
X8044214Y-18656929D01*
X8044214Y-18585500D01*
X8058500Y-18528357D01*
X8072786Y-18499786D01*
X8087071Y-18485500D01*
X8115643Y-18471214D01*
X8401357Y-18471214D02*
X8429929Y-18471214D01*
X8458500Y-18485500D01*
X8472786Y-18499786D01*
X8487071Y-18528357D01*
X8501357Y-18585500D01*
X8501357Y-18656929D01*
X8487071Y-18714072D01*
X8472786Y-18742643D01*
X8458500Y-18756929D01*
X8429929Y-18771214D01*
X8401357Y-18771214D01*
X8372786Y-18756929D01*
X8358500Y-18742643D01*
X8344214Y-18714072D01*
X8329928Y-18656929D01*
X8329928Y-18585500D01*
X8344214Y-18528357D01*
X8358500Y-18499786D01*
X8372786Y-18485500D01*
X8401357Y-18471214D01*
X8629929Y-18771214D02*
X8629929Y-18571214D01*
X8629929Y-18599786D02*
X8644214Y-18585500D01*
X8672786Y-18571214D01*
X8715643Y-18571214D01*
X8744214Y-18585500D01*
X8758500Y-18614072D01*
X8758500Y-18771214D01*
X8758500Y-18614072D02*
X8772786Y-18585500D01*
X8801357Y-18571214D01*
X8844214Y-18571214D01*
X8872786Y-18585500D01*
X8887071Y-18614072D01*
X8887071Y-18771214D01*
X9029929Y-18771214D02*
X9029929Y-18571214D01*
X9029929Y-18599786D02*
X9044214Y-18585500D01*
X9072786Y-18571214D01*
X9115643Y-18571214D01*
X9144214Y-18585500D01*
X9158500Y-18614072D01*
X9158500Y-18771214D01*
X9158500Y-18614072D02*
X9172786Y-18585500D01*
X9201357Y-18571214D01*
X9244214Y-18571214D01*
X9272786Y-18585500D01*
X9287071Y-18614072D01*
X9287071Y-18771214D01*
X9872786Y-18456929D02*
X9615643Y-18842643D01*
X10258500Y-18471214D02*
X10287071Y-18471214D01*
X10315643Y-18485500D01*
X10329928Y-18499786D01*
X10344214Y-18528357D01*
X10358500Y-18585500D01*
X10358500Y-18656929D01*
X10344214Y-18714072D01*
X10329928Y-18742643D01*
X10315643Y-18756929D01*
X10287071Y-18771214D01*
X10258500Y-18771214D01*
X10229928Y-18756929D01*
X10215643Y-18742643D01*
X10201357Y-18714072D01*
X10187071Y-18656929D01*
X10187071Y-18585500D01*
X10201357Y-18528357D01*
X10215643Y-18499786D01*
X10229928Y-18485500D01*
X10258500Y-18471214D01*
X10487071Y-18742643D02*
X10501357Y-18756929D01*
X10487071Y-18771214D01*
X10472786Y-18756929D01*
X10487071Y-18742643D01*
X10487071Y-18771214D01*
X10687071Y-18471214D02*
X10715643Y-18471214D01*
X10744214Y-18485500D01*
X10758500Y-18499786D01*
X10772786Y-18528357D01*
X10787071Y-18585500D01*
X10787071Y-18656929D01*
X10772786Y-18714072D01*
X10758500Y-18742643D01*
X10744214Y-18756929D01*
X10715643Y-18771214D01*
X10687071Y-18771214D01*
X10658500Y-18756929D01*
X10644214Y-18742643D01*
X10629928Y-18714072D01*
X10615643Y-18656929D01*
X10615643Y-18585500D01*
X10629928Y-18528357D01*
X10644214Y-18499786D01*
X10658500Y-18485500D01*
X10687071Y-18471214D01*
X10887071Y-18471214D02*
X11072786Y-18471214D01*
X10972786Y-18585500D01*
X11015643Y-18585500D01*
X11044214Y-18599786D01*
X11058500Y-18614072D01*
X11072786Y-18642643D01*
X11072786Y-18714072D01*
X11058500Y-18742643D01*
X11044214Y-18756929D01*
X11015643Y-18771214D01*
X10929928Y-18771214D01*
X10901357Y-18756929D01*
X10887071Y-18742643D01*
X11215643Y-18771214D02*
X11272785Y-18771214D01*
X11301357Y-18756929D01*
X11315643Y-18742643D01*
X11344214Y-18699786D01*
X11358500Y-18642643D01*
X11358500Y-18528357D01*
X11344214Y-18499786D01*
X11329928Y-18485500D01*
X11301357Y-18471214D01*
X11244214Y-18471214D01*
X11215643Y-18485500D01*
X11201357Y-18499786D01*
X11187071Y-18528357D01*
X11187071Y-18599786D01*
X11201357Y-18628357D01*
X11215643Y-18642643D01*
X11244214Y-18656929D01*
X11301357Y-18656929D01*
X11329928Y-18642643D01*
X11344214Y-18628357D01*
X11358500Y-18599786D01*
X11472786Y-18471214D02*
X11472786Y-18528357D01*
X11587071Y-18471214D02*
X11587071Y-18528357D01*
X12029928Y-18885500D02*
X12015643Y-18871214D01*
X11987071Y-18828357D01*
X11972785Y-18799786D01*
X11958500Y-18756929D01*
X11944214Y-18685500D01*
X11944214Y-18628357D01*
X11958500Y-18556929D01*
X11972785Y-18514072D01*
X11987071Y-18485500D01*
X12015643Y-18442643D01*
X12029928Y-18428357D01*
X12115643Y-18471214D02*
X12301357Y-18471214D01*
X12201357Y-18585500D01*
X12244214Y-18585500D01*
X12272785Y-18599786D01*
X12287071Y-18614072D01*
X12301357Y-18642643D01*
X12301357Y-18714072D01*
X12287071Y-18742643D01*
X12272785Y-18756929D01*
X12244214Y-18771214D01*
X12158500Y-18771214D01*
X12129928Y-18756929D01*
X12115643Y-18742643D01*
X12487071Y-18471214D02*
X12515643Y-18471214D01*
X12544214Y-18485500D01*
X12558500Y-18499786D01*
X12572785Y-18528357D01*
X12587071Y-18585500D01*
X12587071Y-18656929D01*
X12572785Y-18714072D01*
X12558500Y-18742643D01*
X12544214Y-18756929D01*
X12515643Y-18771214D01*
X12487071Y-18771214D01*
X12458500Y-18756929D01*
X12444214Y-18742643D01*
X12429928Y-18714072D01*
X12415643Y-18656929D01*
X12415643Y-18585500D01*
X12429928Y-18528357D01*
X12444214Y-18499786D01*
X12458500Y-18485500D01*
X12487071Y-18471214D01*
X12944214Y-18771214D02*
X12944214Y-18471214D01*
X13072785Y-18771214D02*
X13072785Y-18614072D01*
X13058500Y-18585500D01*
X13029928Y-18571214D01*
X12987071Y-18571214D01*
X12958500Y-18585500D01*
X12944214Y-18599786D01*
X13258500Y-18771214D02*
X13229928Y-18756929D01*
X13215643Y-18742643D01*
X13201357Y-18714072D01*
X13201357Y-18628357D01*
X13215643Y-18599786D01*
X13229928Y-18585500D01*
X13258500Y-18571214D01*
X13301357Y-18571214D01*
X13329928Y-18585500D01*
X13344214Y-18599786D01*
X13358500Y-18628357D01*
X13358500Y-18714072D01*
X13344214Y-18742643D01*
X13329928Y-18756929D01*
X13301357Y-18771214D01*
X13258500Y-18771214D01*
X13529928Y-18771214D02*
X13501357Y-18756929D01*
X13487071Y-18728357D01*
X13487071Y-18471214D01*
X13758500Y-18756929D02*
X13729928Y-18771214D01*
X13672786Y-18771214D01*
X13644214Y-18756929D01*
X13629928Y-18728357D01*
X13629928Y-18614072D01*
X13644214Y-18585500D01*
X13672786Y-18571214D01*
X13729928Y-18571214D01*
X13758500Y-18585500D01*
X13772786Y-18614072D01*
X13772786Y-18642643D01*
X13629928Y-18671214D01*
X13887071Y-18756929D02*
X13915643Y-18771214D01*
X13972786Y-18771214D01*
X14001357Y-18756929D01*
X14015643Y-18728357D01*
X14015643Y-18714072D01*
X14001357Y-18685500D01*
X13972786Y-18671214D01*
X13929928Y-18671214D01*
X13901357Y-18656929D01*
X13887071Y-18628357D01*
X13887071Y-18614072D01*
X13901357Y-18585500D01*
X13929928Y-18571214D01*
X13972786Y-18571214D01*
X14001357Y-18585500D01*
X14115643Y-18885500D02*
X14129928Y-18871214D01*
X14158500Y-18828357D01*
X14172786Y-18799786D01*
X14187071Y-18756929D01*
X14201357Y-18685500D01*
X14201357Y-18628357D01*
X14187071Y-18556929D01*
X14172786Y-18514072D01*
X14158500Y-18485500D01*
X14129928Y-18442643D01*
X14115643Y-18428357D01*
M02*
