G04 #@! TF.FileFunction,Profile,NP*
%FSLAX46Y46*%
G04 Gerber Fmt 4.6, Leading zero omitted, Abs format (unit mm)*
G04 Created by KiCad (PCBNEW 4.0.7) date Sun Nov 12 16:40:09 2017*
%MOMM*%
%LPD*%
G01*
G04 APERTURE LIST*
%ADD10C,0.100000*%
%ADD11C,0.150000*%
G04 APERTURE END LIST*
D10*
D11*
X73660000Y-160020000D02*
X73660000Y-172720000D01*
X75565000Y-160020000D02*
X73660000Y-160020000D01*
X75565000Y-158750000D02*
X75565000Y-160020000D01*
X73660000Y-158750000D02*
X75565000Y-158750000D01*
X73660000Y-154940000D02*
X73660000Y-158750000D01*
X75565000Y-154940000D02*
X73660000Y-154940000D01*
X75565000Y-153670000D02*
X75565000Y-154940000D01*
X73660000Y-153670000D02*
X75565000Y-153670000D01*
X73660000Y-149225000D02*
X73660000Y-153670000D01*
X113665000Y-143510000D02*
X153670000Y-143510000D01*
X111125000Y-146050000D02*
X113665000Y-143510000D01*
X93980000Y-146050000D02*
X111125000Y-146050000D01*
X91440000Y-143510000D02*
X93980000Y-146050000D01*
X73660000Y-143510000D02*
X91440000Y-143510000D01*
X153670000Y-143510000D02*
X153670000Y-172085000D01*
X73660000Y-145415000D02*
X73660000Y-143510000D01*
X73660000Y-149225000D02*
X73660000Y-145415000D01*
X153670000Y-172720000D02*
X77470000Y-172720000D01*
X153670000Y-172085000D02*
X153670000Y-172720000D01*
X77470000Y-172720000D02*
X73660000Y-172720000D01*
M02*
