M48
;DRILL file {KiCad 4.0.7} date Sun Nov 12 16:40:46 2017
;FORMAT={-:-/ absolute / metric / decimal}
FMAT,2
METRIC,TZ
T1C0.400
T2C1.000
%
G90
G05
M71
T1
X78.807Y-158.145
X81.698Y-160.571
X81.813Y-158.462
X82.482Y-153.993
X82.806Y-157.652
X83.783Y-148.314
X85.805Y-157.876
X89.217Y-152.773
X92.317Y-153.112
X98.841Y-163.671
X101.989Y-161.427
X102.776Y-163.685
X104.936Y-161.371
X113.1Y-164.144
X114.575Y-147.288
X115.452Y-147.191
X119.001Y-146.982
X119.622Y-147.773
X120.254Y-148.677
X122.189Y-147.105
X123.182Y-148.376
X123.923Y-146.948
X124.983Y-148.707
X126.49Y-146.88
X126.531Y-164.88
X127.969Y-147.977
X129.55Y-147.08
T2
X77.47Y-170.18
X80.01Y-170.18
X82.55Y-170.18
X85.09Y-170.18
X87.63Y-170.18
X90.17Y-170.18
X92.71Y-170.18
X95.25Y-170.18
X97.79Y-170.18
X100.33Y-170.18
X102.87Y-170.18
X105.41Y-170.18
X107.95Y-170.18
X110.49Y-170.18
X113.03Y-170.18
X115.57Y-170.18
X118.11Y-170.18
X120.65Y-170.18
X123.19Y-170.18
X125.73Y-170.18
X128.27Y-170.18
X130.81Y-170.18
X133.35Y-170.18
X135.89Y-170.18
X138.43Y-170.18
X140.97Y-170.18
X143.51Y-170.18
X146.05Y-170.18
X148.59Y-170.18
X151.13Y-170.18
T0
M30
