G04 #@! TF.FileFunction,Copper,L2,Bot,Signal*
%FSLAX46Y46*%
G04 Gerber Fmt 4.6, Leading zero omitted, Abs format (unit mm)*
G04 Created by KiCad (PCBNEW 4.0.7) date Sun Nov 12 16:40:09 2017*
%MOMM*%
%LPD*%
G01*
G04 APERTURE LIST*
%ADD10C,0.100000*%
%ADD11R,1.700000X1.700000*%
%ADD12O,1.700000X1.700000*%
%ADD13C,0.600000*%
%ADD14C,0.250000*%
%ADD15C,0.254000*%
G04 APERTURE END LIST*
D10*
D11*
X77470000Y-170180000D03*
D12*
X80010000Y-170180000D03*
X82550000Y-170180000D03*
X85090000Y-170180000D03*
X87630000Y-170180000D03*
X90170000Y-170180000D03*
X92710000Y-170180000D03*
X95250000Y-170180000D03*
X97790000Y-170180000D03*
X100330000Y-170180000D03*
X102870000Y-170180000D03*
X105410000Y-170180000D03*
X107950000Y-170180000D03*
X110490000Y-170180000D03*
X113030000Y-170180000D03*
X115570000Y-170180000D03*
X118110000Y-170180000D03*
X120650000Y-170180000D03*
X123190000Y-170180000D03*
X125730000Y-170180000D03*
X128270000Y-170180000D03*
X130810000Y-170180000D03*
X133350000Y-170180000D03*
X135890000Y-170180000D03*
X138430000Y-170180000D03*
X140970000Y-170180000D03*
X143510000Y-170180000D03*
X146050000Y-170180000D03*
X148590000Y-170180000D03*
X151130000Y-170180000D03*
D13*
X89217400Y-152772700D03*
X83782800Y-148314500D03*
X101988800Y-161427300D03*
X129549900Y-147079800D03*
X82806500Y-157651900D03*
X81813400Y-158461900D03*
X81698400Y-160570700D03*
X78806900Y-158145000D03*
X82482300Y-153993000D03*
X92316900Y-153112500D03*
X113100200Y-164144200D03*
X126530800Y-164880300D03*
X85805500Y-157875900D03*
X98840900Y-163670900D03*
X114574700Y-147287700D03*
X102775800Y-163685500D03*
X104936300Y-161371200D03*
X115452000Y-147191500D03*
X119000700Y-146982300D03*
X119621600Y-147773300D03*
X120254100Y-148676500D03*
X122189000Y-147104500D03*
X123182000Y-148376000D03*
X124983500Y-148707100D03*
X123923200Y-146948000D03*
X127969400Y-147977400D03*
X126489700Y-146880300D03*
D14*
X88929900Y-153060200D02*
X89217400Y-152772700D01*
X88528500Y-153060200D02*
X88929900Y-153060200D01*
X88528500Y-153060200D02*
X83782800Y-148314500D01*
X82550000Y-170180000D02*
X82550000Y-169004700D01*
X82894400Y-158694300D02*
X88528500Y-153060200D01*
X82894400Y-168660300D02*
X82894400Y-158694300D01*
X82550000Y-169004700D02*
X82894400Y-168660300D01*
X89514100Y-152476000D02*
X89217400Y-152772700D01*
X93875700Y-152476000D02*
X89514100Y-152476000D01*
X101188900Y-159789200D02*
X93875700Y-152476000D01*
X114724100Y-146254000D02*
X101188900Y-159789200D01*
X128724100Y-146254000D02*
X114724100Y-146254000D01*
X129549900Y-147079800D02*
X128724100Y-146254000D01*
X101188900Y-160627400D02*
X101988800Y-161427300D01*
X101188900Y-159789200D02*
X101188900Y-160627400D01*
X77470000Y-170180000D02*
X77470000Y-169004700D01*
X82444100Y-158014300D02*
X82806500Y-157651900D01*
X82444100Y-164030600D02*
X82444100Y-158014300D01*
X77470000Y-169004700D02*
X82444100Y-164030600D01*
X81698400Y-158576900D02*
X81813400Y-158461900D01*
X81698400Y-160570700D02*
X81698400Y-158576900D01*
X82482300Y-154469600D02*
X78806900Y-158145000D01*
X82482300Y-153993000D02*
X82482300Y-154469600D01*
X85090000Y-170180000D02*
X85090000Y-169004700D01*
X85090000Y-157707100D02*
X85090000Y-169004700D01*
X85546500Y-157250600D02*
X85090000Y-157707100D01*
X88178800Y-157250600D02*
X85546500Y-157250600D01*
X92316900Y-153112500D02*
X88178800Y-157250600D01*
X88805300Y-169812600D02*
X88805300Y-170180000D01*
X89613200Y-169004700D02*
X88805300Y-169812600D01*
X93287800Y-169004700D02*
X89613200Y-169004700D01*
X93980000Y-169696900D02*
X93287800Y-169004700D01*
X93980000Y-170587200D02*
X93980000Y-169696900D01*
X94795400Y-171402600D02*
X93980000Y-170587200D01*
X108444200Y-171402600D02*
X94795400Y-171402600D01*
X109220000Y-170626800D02*
X108444200Y-171402600D01*
X109220000Y-168024400D02*
X109220000Y-170626800D01*
X113100200Y-164144200D02*
X109220000Y-168024400D01*
X87630000Y-170180000D02*
X88805300Y-170180000D01*
X90170000Y-170180000D02*
X91345300Y-170180000D01*
X116570700Y-164880300D02*
X126530800Y-164880300D01*
X111760000Y-169691000D02*
X116570700Y-164880300D01*
X111760000Y-170573600D02*
X111760000Y-169691000D01*
X110480600Y-171853000D02*
X111760000Y-170573600D01*
X92651000Y-171853000D02*
X110480600Y-171853000D01*
X91345300Y-170547300D02*
X92651000Y-171853000D01*
X91345300Y-170180000D02*
X91345300Y-170547300D01*
X95250000Y-167320400D02*
X85805500Y-157875900D01*
X95250000Y-170180000D02*
X95250000Y-167320400D01*
X102870000Y-170180000D02*
X102870000Y-169004700D01*
X98840900Y-164975600D02*
X98840900Y-163670900D01*
X102870000Y-169004700D02*
X98840900Y-164975600D01*
X100653500Y-163670900D02*
X98840900Y-163670900D01*
X114574700Y-149749700D02*
X100653500Y-163670900D01*
X114574700Y-147287700D02*
X114574700Y-149749700D01*
X105410000Y-170180000D02*
X105410000Y-169004700D01*
X102775800Y-166370500D02*
X102775800Y-163685500D01*
X105410000Y-169004700D02*
X102775800Y-166370500D01*
X115452000Y-153869200D02*
X107950000Y-161371200D01*
X115452000Y-147191500D02*
X115452000Y-153869200D01*
X107950000Y-170180000D02*
X107950000Y-161371200D01*
X107950000Y-161371200D02*
X104936300Y-161371200D01*
X130810000Y-167679500D02*
X130810000Y-170180000D01*
X118949900Y-155819400D02*
X130810000Y-167679500D01*
X118949900Y-147033100D02*
X118949900Y-155819400D01*
X119000700Y-146982300D02*
X118949900Y-147033100D01*
X133350000Y-170180000D02*
X133350000Y-169004700D01*
X119621600Y-155276300D02*
X119621600Y-147773300D01*
X133350000Y-169004700D02*
X119621600Y-155276300D01*
X135890000Y-170180000D02*
X135890000Y-169004700D01*
X120254100Y-153368800D02*
X120254100Y-148676500D01*
X135890000Y-169004700D02*
X120254100Y-153368800D01*
X138430000Y-170180000D02*
X138430000Y-169004700D01*
X122189000Y-152763700D02*
X122189000Y-147104500D01*
X138430000Y-169004700D02*
X122189000Y-152763700D01*
X140970000Y-170180000D02*
X140970000Y-169004700D01*
X123182000Y-151216700D02*
X123182000Y-148376000D01*
X140970000Y-169004700D02*
X123182000Y-151216700D01*
X143510000Y-170180000D02*
X143510000Y-169004700D01*
X124983500Y-150478200D02*
X124983500Y-148707100D01*
X143510000Y-169004700D02*
X124983500Y-150478200D01*
X146050000Y-170180000D02*
X146050000Y-169004700D01*
X123990900Y-147015700D02*
X123923200Y-146948000D01*
X123990900Y-147015800D02*
X123990900Y-147015700D01*
X124176600Y-147015800D02*
X123990900Y-147015800D01*
X146050000Y-168889200D02*
X124176600Y-147015800D01*
X146050000Y-169004700D02*
X146050000Y-168889200D01*
X148590000Y-170180000D02*
X148590000Y-169004700D01*
X127969400Y-148384100D02*
X127969400Y-147977400D01*
X148590000Y-169004700D02*
X127969400Y-148384100D01*
X151130000Y-170180000D02*
X149954700Y-170180000D01*
X149954700Y-169078100D02*
X149954700Y-170180000D01*
X127756900Y-146880300D02*
X149954700Y-169078100D01*
X126489700Y-146880300D02*
X127756900Y-146880300D01*
D15*
G36*
X93477952Y-146552043D02*
X93477954Y-146552046D01*
X93708295Y-146705954D01*
X93980000Y-146760000D01*
X111125000Y-146760000D01*
X111396705Y-146705954D01*
X111627046Y-146552046D01*
X111627047Y-146552045D01*
X113959091Y-144220000D01*
X152960000Y-144220000D01*
X152960000Y-172010000D01*
X111398402Y-172010000D01*
X112081439Y-171326963D01*
X112461715Y-171581054D01*
X113030000Y-171694093D01*
X113598285Y-171581054D01*
X114080054Y-171259147D01*
X114300000Y-170929974D01*
X114519946Y-171259147D01*
X115001715Y-171581054D01*
X115570000Y-171694093D01*
X116138285Y-171581054D01*
X116620054Y-171259147D01*
X116840000Y-170929974D01*
X117059946Y-171259147D01*
X117541715Y-171581054D01*
X118110000Y-171694093D01*
X118678285Y-171581054D01*
X119160054Y-171259147D01*
X119380000Y-170929974D01*
X119599946Y-171259147D01*
X120081715Y-171581054D01*
X120650000Y-171694093D01*
X121218285Y-171581054D01*
X121700054Y-171259147D01*
X121920000Y-170929974D01*
X122139946Y-171259147D01*
X122621715Y-171581054D01*
X123190000Y-171694093D01*
X123758285Y-171581054D01*
X124240054Y-171259147D01*
X124460000Y-170929974D01*
X124679946Y-171259147D01*
X125161715Y-171581054D01*
X125730000Y-171694093D01*
X126298285Y-171581054D01*
X126780054Y-171259147D01*
X127000000Y-170929974D01*
X127219946Y-171259147D01*
X127701715Y-171581054D01*
X128270000Y-171694093D01*
X128838285Y-171581054D01*
X129320054Y-171259147D01*
X129540000Y-170929974D01*
X129759946Y-171259147D01*
X130241715Y-171581054D01*
X130810000Y-171694093D01*
X131378285Y-171581054D01*
X131860054Y-171259147D01*
X132080000Y-170929974D01*
X132299946Y-171259147D01*
X132781715Y-171581054D01*
X133350000Y-171694093D01*
X133918285Y-171581054D01*
X134400054Y-171259147D01*
X134620000Y-170929974D01*
X134839946Y-171259147D01*
X135321715Y-171581054D01*
X135890000Y-171694093D01*
X136458285Y-171581054D01*
X136940054Y-171259147D01*
X137160000Y-170929974D01*
X137379946Y-171259147D01*
X137861715Y-171581054D01*
X138430000Y-171694093D01*
X138998285Y-171581054D01*
X139480054Y-171259147D01*
X139700000Y-170929974D01*
X139919946Y-171259147D01*
X140401715Y-171581054D01*
X140970000Y-171694093D01*
X141538285Y-171581054D01*
X142020054Y-171259147D01*
X142240000Y-170929974D01*
X142459946Y-171259147D01*
X142941715Y-171581054D01*
X143510000Y-171694093D01*
X144078285Y-171581054D01*
X144560054Y-171259147D01*
X144780000Y-170929974D01*
X144999946Y-171259147D01*
X145481715Y-171581054D01*
X146050000Y-171694093D01*
X146618285Y-171581054D01*
X147100054Y-171259147D01*
X147320000Y-170929974D01*
X147539946Y-171259147D01*
X148021715Y-171581054D01*
X148590000Y-171694093D01*
X149158285Y-171581054D01*
X149640054Y-171259147D01*
X149860000Y-170929974D01*
X150079946Y-171259147D01*
X150561715Y-171581054D01*
X151130000Y-171694093D01*
X151698285Y-171581054D01*
X152180054Y-171259147D01*
X152501961Y-170777378D01*
X152615000Y-170209093D01*
X152615000Y-170150907D01*
X152501961Y-169582622D01*
X152180054Y-169100853D01*
X151698285Y-168778946D01*
X151130000Y-168665907D01*
X150640783Y-168763218D01*
X150492101Y-168540699D01*
X129898737Y-147947335D01*
X130078843Y-147872917D01*
X130342092Y-147610127D01*
X130484738Y-147266599D01*
X130484945Y-147028599D01*
X148759699Y-147028599D01*
X149023281Y-147666515D01*
X149510918Y-148155004D01*
X150148373Y-148419699D01*
X150838599Y-148420301D01*
X151476515Y-148156719D01*
X151965004Y-147669082D01*
X152229699Y-147031627D01*
X152230301Y-146341401D01*
X151966719Y-145703485D01*
X151479082Y-145214996D01*
X150841627Y-144950301D01*
X150151401Y-144949699D01*
X149513485Y-145213281D01*
X149024996Y-145700918D01*
X148760301Y-146338373D01*
X148759699Y-147028599D01*
X130484945Y-147028599D01*
X130485062Y-146894633D01*
X130343017Y-146550857D01*
X130080227Y-146287608D01*
X129736699Y-146144962D01*
X129689823Y-146144921D01*
X129261501Y-145716599D01*
X129014939Y-145551852D01*
X128724100Y-145494000D01*
X114724100Y-145494000D01*
X114481514Y-145542254D01*
X114433260Y-145551852D01*
X114186699Y-145716599D01*
X101188900Y-158714398D01*
X94413101Y-151938599D01*
X94166539Y-151773852D01*
X93875700Y-151716000D01*
X89514100Y-151716000D01*
X89223261Y-151773852D01*
X89127823Y-151837621D01*
X89032233Y-151837538D01*
X88688457Y-151979583D01*
X88605499Y-152062397D01*
X84717922Y-148174820D01*
X84717962Y-148129333D01*
X84575917Y-147785557D01*
X84313127Y-147522308D01*
X83969599Y-147379662D01*
X83597633Y-147379338D01*
X83253857Y-147521383D01*
X82990608Y-147784173D01*
X82847962Y-148127701D01*
X82847638Y-148499667D01*
X82989683Y-148843443D01*
X83252473Y-149106692D01*
X83596001Y-149249338D01*
X83642877Y-149249379D01*
X87453698Y-153060200D01*
X83495370Y-157018528D01*
X83336827Y-156859708D01*
X82993299Y-156717062D01*
X82621333Y-156716738D01*
X82277557Y-156858783D01*
X82014308Y-157121573D01*
X81871662Y-157465101D01*
X81871608Y-157526950D01*
X81628233Y-157526738D01*
X81284457Y-157668783D01*
X81021208Y-157931573D01*
X80878562Y-158275101D01*
X80878238Y-158647067D01*
X80938400Y-158792671D01*
X80938400Y-160008237D01*
X80906208Y-160040373D01*
X80763562Y-160383901D01*
X80763238Y-160755867D01*
X80905283Y-161099643D01*
X81168073Y-161362892D01*
X81511601Y-161505538D01*
X81684100Y-161505688D01*
X81684100Y-163715798D01*
X76932599Y-168467299D01*
X76788767Y-168682560D01*
X76620000Y-168682560D01*
X76384683Y-168726838D01*
X76168559Y-168865910D01*
X76023569Y-169078110D01*
X75972560Y-169330000D01*
X75972560Y-171030000D01*
X76016838Y-171265317D01*
X76155910Y-171481441D01*
X76368110Y-171626431D01*
X76620000Y-171677440D01*
X78320000Y-171677440D01*
X78555317Y-171633162D01*
X78771441Y-171494090D01*
X78916431Y-171281890D01*
X78938301Y-171173893D01*
X79243076Y-171451645D01*
X79653110Y-171621476D01*
X79883000Y-171500155D01*
X79883000Y-170307000D01*
X79863000Y-170307000D01*
X79863000Y-170053000D01*
X79883000Y-170053000D01*
X79883000Y-168859845D01*
X79653110Y-168738524D01*
X79243076Y-168908355D01*
X78940063Y-169184501D01*
X78923162Y-169094683D01*
X78784090Y-168878559D01*
X78716871Y-168832631D01*
X82134400Y-165415102D01*
X82134400Y-168345498D01*
X82012599Y-168467299D01*
X81847852Y-168713861D01*
X81812402Y-168892077D01*
X81499946Y-169100853D01*
X81272298Y-169441553D01*
X81205183Y-169298642D01*
X80776924Y-168908355D01*
X80366890Y-168738524D01*
X80137000Y-168859845D01*
X80137000Y-170053000D01*
X80157000Y-170053000D01*
X80157000Y-170307000D01*
X80137000Y-170307000D01*
X80137000Y-171500155D01*
X80366890Y-171621476D01*
X80776924Y-171451645D01*
X81205183Y-171061358D01*
X81272298Y-170918447D01*
X81499946Y-171259147D01*
X81981715Y-171581054D01*
X82550000Y-171694093D01*
X83118285Y-171581054D01*
X83600054Y-171259147D01*
X83820000Y-170929974D01*
X84039946Y-171259147D01*
X84521715Y-171581054D01*
X85090000Y-171694093D01*
X85658285Y-171581054D01*
X86140054Y-171259147D01*
X86360000Y-170929974D01*
X86579946Y-171259147D01*
X87061715Y-171581054D01*
X87630000Y-171694093D01*
X88198285Y-171581054D01*
X88680054Y-171259147D01*
X88900000Y-170929974D01*
X89119946Y-171259147D01*
X89601715Y-171581054D01*
X90170000Y-171694093D01*
X90738285Y-171581054D01*
X91077558Y-171354360D01*
X91733198Y-172010000D01*
X74370000Y-172010000D01*
X74370000Y-160730000D01*
X75565000Y-160730000D01*
X75836705Y-160675954D01*
X76067046Y-160522046D01*
X76220954Y-160291705D01*
X76275000Y-160020000D01*
X76275000Y-158750000D01*
X76220954Y-158478295D01*
X76121979Y-158330167D01*
X77871738Y-158330167D01*
X78013783Y-158673943D01*
X78276573Y-158937192D01*
X78620101Y-159079838D01*
X78992067Y-159080162D01*
X79335843Y-158938117D01*
X79599092Y-158675327D01*
X79741738Y-158331799D01*
X79741779Y-158284923D01*
X83019701Y-155007001D01*
X83184448Y-154760439D01*
X83220989Y-154576737D01*
X83274492Y-154523327D01*
X83417138Y-154179799D01*
X83417462Y-153807833D01*
X83275417Y-153464057D01*
X83012627Y-153200808D01*
X82669099Y-153058162D01*
X82297133Y-153057838D01*
X81953357Y-153199883D01*
X81690108Y-153462673D01*
X81547462Y-153806201D01*
X81547138Y-154178167D01*
X81591519Y-154285579D01*
X78667220Y-157209878D01*
X78621733Y-157209838D01*
X78277957Y-157351883D01*
X78014708Y-157614673D01*
X77872062Y-157958201D01*
X77871738Y-158330167D01*
X76121979Y-158330167D01*
X76067046Y-158247954D01*
X75836705Y-158094046D01*
X75565000Y-158040000D01*
X74370000Y-158040000D01*
X74370000Y-155650000D01*
X75565000Y-155650000D01*
X75836705Y-155595954D01*
X76067046Y-155442046D01*
X76220954Y-155211705D01*
X76275000Y-154940000D01*
X76275000Y-153670000D01*
X76220954Y-153398295D01*
X76067046Y-153167954D01*
X75836705Y-153014046D01*
X75565000Y-152960000D01*
X74370000Y-152960000D01*
X74370000Y-147028599D01*
X75099699Y-147028599D01*
X75363281Y-147666515D01*
X75850918Y-148155004D01*
X76488373Y-148419699D01*
X77178599Y-148420301D01*
X77816515Y-148156719D01*
X78305004Y-147669082D01*
X78569699Y-147031627D01*
X78570301Y-146341401D01*
X78306719Y-145703485D01*
X77819082Y-145214996D01*
X77181627Y-144950301D01*
X76491401Y-144949699D01*
X75853485Y-145213281D01*
X75364996Y-145700918D01*
X75100301Y-146338373D01*
X75099699Y-147028599D01*
X74370000Y-147028599D01*
X74370000Y-144220000D01*
X91145908Y-144220000D01*
X93477952Y-146552043D01*
X93477952Y-146552043D01*
G37*
X93477952Y-146552043D02*
X93477954Y-146552046D01*
X93708295Y-146705954D01*
X93980000Y-146760000D01*
X111125000Y-146760000D01*
X111396705Y-146705954D01*
X111627046Y-146552046D01*
X111627047Y-146552045D01*
X113959091Y-144220000D01*
X152960000Y-144220000D01*
X152960000Y-172010000D01*
X111398402Y-172010000D01*
X112081439Y-171326963D01*
X112461715Y-171581054D01*
X113030000Y-171694093D01*
X113598285Y-171581054D01*
X114080054Y-171259147D01*
X114300000Y-170929974D01*
X114519946Y-171259147D01*
X115001715Y-171581054D01*
X115570000Y-171694093D01*
X116138285Y-171581054D01*
X116620054Y-171259147D01*
X116840000Y-170929974D01*
X117059946Y-171259147D01*
X117541715Y-171581054D01*
X118110000Y-171694093D01*
X118678285Y-171581054D01*
X119160054Y-171259147D01*
X119380000Y-170929974D01*
X119599946Y-171259147D01*
X120081715Y-171581054D01*
X120650000Y-171694093D01*
X121218285Y-171581054D01*
X121700054Y-171259147D01*
X121920000Y-170929974D01*
X122139946Y-171259147D01*
X122621715Y-171581054D01*
X123190000Y-171694093D01*
X123758285Y-171581054D01*
X124240054Y-171259147D01*
X124460000Y-170929974D01*
X124679946Y-171259147D01*
X125161715Y-171581054D01*
X125730000Y-171694093D01*
X126298285Y-171581054D01*
X126780054Y-171259147D01*
X127000000Y-170929974D01*
X127219946Y-171259147D01*
X127701715Y-171581054D01*
X128270000Y-171694093D01*
X128838285Y-171581054D01*
X129320054Y-171259147D01*
X129540000Y-170929974D01*
X129759946Y-171259147D01*
X130241715Y-171581054D01*
X130810000Y-171694093D01*
X131378285Y-171581054D01*
X131860054Y-171259147D01*
X132080000Y-170929974D01*
X132299946Y-171259147D01*
X132781715Y-171581054D01*
X133350000Y-171694093D01*
X133918285Y-171581054D01*
X134400054Y-171259147D01*
X134620000Y-170929974D01*
X134839946Y-171259147D01*
X135321715Y-171581054D01*
X135890000Y-171694093D01*
X136458285Y-171581054D01*
X136940054Y-171259147D01*
X137160000Y-170929974D01*
X137379946Y-171259147D01*
X137861715Y-171581054D01*
X138430000Y-171694093D01*
X138998285Y-171581054D01*
X139480054Y-171259147D01*
X139700000Y-170929974D01*
X139919946Y-171259147D01*
X140401715Y-171581054D01*
X140970000Y-171694093D01*
X141538285Y-171581054D01*
X142020054Y-171259147D01*
X142240000Y-170929974D01*
X142459946Y-171259147D01*
X142941715Y-171581054D01*
X143510000Y-171694093D01*
X144078285Y-171581054D01*
X144560054Y-171259147D01*
X144780000Y-170929974D01*
X144999946Y-171259147D01*
X145481715Y-171581054D01*
X146050000Y-171694093D01*
X146618285Y-171581054D01*
X147100054Y-171259147D01*
X147320000Y-170929974D01*
X147539946Y-171259147D01*
X148021715Y-171581054D01*
X148590000Y-171694093D01*
X149158285Y-171581054D01*
X149640054Y-171259147D01*
X149860000Y-170929974D01*
X150079946Y-171259147D01*
X150561715Y-171581054D01*
X151130000Y-171694093D01*
X151698285Y-171581054D01*
X152180054Y-171259147D01*
X152501961Y-170777378D01*
X152615000Y-170209093D01*
X152615000Y-170150907D01*
X152501961Y-169582622D01*
X152180054Y-169100853D01*
X151698285Y-168778946D01*
X151130000Y-168665907D01*
X150640783Y-168763218D01*
X150492101Y-168540699D01*
X129898737Y-147947335D01*
X130078843Y-147872917D01*
X130342092Y-147610127D01*
X130484738Y-147266599D01*
X130484945Y-147028599D01*
X148759699Y-147028599D01*
X149023281Y-147666515D01*
X149510918Y-148155004D01*
X150148373Y-148419699D01*
X150838599Y-148420301D01*
X151476515Y-148156719D01*
X151965004Y-147669082D01*
X152229699Y-147031627D01*
X152230301Y-146341401D01*
X151966719Y-145703485D01*
X151479082Y-145214996D01*
X150841627Y-144950301D01*
X150151401Y-144949699D01*
X149513485Y-145213281D01*
X149024996Y-145700918D01*
X148760301Y-146338373D01*
X148759699Y-147028599D01*
X130484945Y-147028599D01*
X130485062Y-146894633D01*
X130343017Y-146550857D01*
X130080227Y-146287608D01*
X129736699Y-146144962D01*
X129689823Y-146144921D01*
X129261501Y-145716599D01*
X129014939Y-145551852D01*
X128724100Y-145494000D01*
X114724100Y-145494000D01*
X114481514Y-145542254D01*
X114433260Y-145551852D01*
X114186699Y-145716599D01*
X101188900Y-158714398D01*
X94413101Y-151938599D01*
X94166539Y-151773852D01*
X93875700Y-151716000D01*
X89514100Y-151716000D01*
X89223261Y-151773852D01*
X89127823Y-151837621D01*
X89032233Y-151837538D01*
X88688457Y-151979583D01*
X88605499Y-152062397D01*
X84717922Y-148174820D01*
X84717962Y-148129333D01*
X84575917Y-147785557D01*
X84313127Y-147522308D01*
X83969599Y-147379662D01*
X83597633Y-147379338D01*
X83253857Y-147521383D01*
X82990608Y-147784173D01*
X82847962Y-148127701D01*
X82847638Y-148499667D01*
X82989683Y-148843443D01*
X83252473Y-149106692D01*
X83596001Y-149249338D01*
X83642877Y-149249379D01*
X87453698Y-153060200D01*
X83495370Y-157018528D01*
X83336827Y-156859708D01*
X82993299Y-156717062D01*
X82621333Y-156716738D01*
X82277557Y-156858783D01*
X82014308Y-157121573D01*
X81871662Y-157465101D01*
X81871608Y-157526950D01*
X81628233Y-157526738D01*
X81284457Y-157668783D01*
X81021208Y-157931573D01*
X80878562Y-158275101D01*
X80878238Y-158647067D01*
X80938400Y-158792671D01*
X80938400Y-160008237D01*
X80906208Y-160040373D01*
X80763562Y-160383901D01*
X80763238Y-160755867D01*
X80905283Y-161099643D01*
X81168073Y-161362892D01*
X81511601Y-161505538D01*
X81684100Y-161505688D01*
X81684100Y-163715798D01*
X76932599Y-168467299D01*
X76788767Y-168682560D01*
X76620000Y-168682560D01*
X76384683Y-168726838D01*
X76168559Y-168865910D01*
X76023569Y-169078110D01*
X75972560Y-169330000D01*
X75972560Y-171030000D01*
X76016838Y-171265317D01*
X76155910Y-171481441D01*
X76368110Y-171626431D01*
X76620000Y-171677440D01*
X78320000Y-171677440D01*
X78555317Y-171633162D01*
X78771441Y-171494090D01*
X78916431Y-171281890D01*
X78938301Y-171173893D01*
X79243076Y-171451645D01*
X79653110Y-171621476D01*
X79883000Y-171500155D01*
X79883000Y-170307000D01*
X79863000Y-170307000D01*
X79863000Y-170053000D01*
X79883000Y-170053000D01*
X79883000Y-168859845D01*
X79653110Y-168738524D01*
X79243076Y-168908355D01*
X78940063Y-169184501D01*
X78923162Y-169094683D01*
X78784090Y-168878559D01*
X78716871Y-168832631D01*
X82134400Y-165415102D01*
X82134400Y-168345498D01*
X82012599Y-168467299D01*
X81847852Y-168713861D01*
X81812402Y-168892077D01*
X81499946Y-169100853D01*
X81272298Y-169441553D01*
X81205183Y-169298642D01*
X80776924Y-168908355D01*
X80366890Y-168738524D01*
X80137000Y-168859845D01*
X80137000Y-170053000D01*
X80157000Y-170053000D01*
X80157000Y-170307000D01*
X80137000Y-170307000D01*
X80137000Y-171500155D01*
X80366890Y-171621476D01*
X80776924Y-171451645D01*
X81205183Y-171061358D01*
X81272298Y-170918447D01*
X81499946Y-171259147D01*
X81981715Y-171581054D01*
X82550000Y-171694093D01*
X83118285Y-171581054D01*
X83600054Y-171259147D01*
X83820000Y-170929974D01*
X84039946Y-171259147D01*
X84521715Y-171581054D01*
X85090000Y-171694093D01*
X85658285Y-171581054D01*
X86140054Y-171259147D01*
X86360000Y-170929974D01*
X86579946Y-171259147D01*
X87061715Y-171581054D01*
X87630000Y-171694093D01*
X88198285Y-171581054D01*
X88680054Y-171259147D01*
X88900000Y-170929974D01*
X89119946Y-171259147D01*
X89601715Y-171581054D01*
X90170000Y-171694093D01*
X90738285Y-171581054D01*
X91077558Y-171354360D01*
X91733198Y-172010000D01*
X74370000Y-172010000D01*
X74370000Y-160730000D01*
X75565000Y-160730000D01*
X75836705Y-160675954D01*
X76067046Y-160522046D01*
X76220954Y-160291705D01*
X76275000Y-160020000D01*
X76275000Y-158750000D01*
X76220954Y-158478295D01*
X76121979Y-158330167D01*
X77871738Y-158330167D01*
X78013783Y-158673943D01*
X78276573Y-158937192D01*
X78620101Y-159079838D01*
X78992067Y-159080162D01*
X79335843Y-158938117D01*
X79599092Y-158675327D01*
X79741738Y-158331799D01*
X79741779Y-158284923D01*
X83019701Y-155007001D01*
X83184448Y-154760439D01*
X83220989Y-154576737D01*
X83274492Y-154523327D01*
X83417138Y-154179799D01*
X83417462Y-153807833D01*
X83275417Y-153464057D01*
X83012627Y-153200808D01*
X82669099Y-153058162D01*
X82297133Y-153057838D01*
X81953357Y-153199883D01*
X81690108Y-153462673D01*
X81547462Y-153806201D01*
X81547138Y-154178167D01*
X81591519Y-154285579D01*
X78667220Y-157209878D01*
X78621733Y-157209838D01*
X78277957Y-157351883D01*
X78014708Y-157614673D01*
X77872062Y-157958201D01*
X77871738Y-158330167D01*
X76121979Y-158330167D01*
X76067046Y-158247954D01*
X75836705Y-158094046D01*
X75565000Y-158040000D01*
X74370000Y-158040000D01*
X74370000Y-155650000D01*
X75565000Y-155650000D01*
X75836705Y-155595954D01*
X76067046Y-155442046D01*
X76220954Y-155211705D01*
X76275000Y-154940000D01*
X76275000Y-153670000D01*
X76220954Y-153398295D01*
X76067046Y-153167954D01*
X75836705Y-153014046D01*
X75565000Y-152960000D01*
X74370000Y-152960000D01*
X74370000Y-147028599D01*
X75099699Y-147028599D01*
X75363281Y-147666515D01*
X75850918Y-148155004D01*
X76488373Y-148419699D01*
X77178599Y-148420301D01*
X77816515Y-148156719D01*
X78305004Y-147669082D01*
X78569699Y-147031627D01*
X78570301Y-146341401D01*
X78306719Y-145703485D01*
X77819082Y-145214996D01*
X77181627Y-144950301D01*
X76491401Y-144949699D01*
X75853485Y-145213281D01*
X75364996Y-145700918D01*
X75100301Y-146338373D01*
X75099699Y-147028599D01*
X74370000Y-147028599D01*
X74370000Y-144220000D01*
X91145908Y-144220000D01*
X93477952Y-146552043D01*
M02*
