G04 #@! TF.FileFunction,Copper,L1,Top,Signal*
%FSLAX46Y46*%
G04 Gerber Fmt 4.6, Leading zero omitted, Abs format (unit mm)*
G04 Created by KiCad (PCBNEW 4.0.7) date Sun Nov 12 16:40:09 2017*
%MOMM*%
%LPD*%
G01*
G04 APERTURE LIST*
%ADD10C,0.100000*%
%ADD11R,1.900000X1.600000*%
%ADD12R,2.000000X2.100000*%
%ADD13R,1.350000X0.400000*%
%ADD14R,0.800000X0.750000*%
%ADD15R,1.000000X1.600000*%
%ADD16R,0.800000X0.800000*%
%ADD17R,0.500000X0.900000*%
%ADD18R,1.700000X1.700000*%
%ADD19O,1.700000X1.700000*%
%ADD20R,0.700000X1.200000*%
%ADD21R,1.000000X1.200000*%
%ADD22R,1.000000X0.800000*%
%ADD23R,1.000000X2.800000*%
%ADD24R,1.300000X1.900000*%
%ADD25R,1.050000X0.650000*%
%ADD26O,0.900000X2.500000*%
%ADD27O,2.500000X0.900000*%
%ADD28R,6.000000X6.000000*%
%ADD29R,0.700000X1.500000*%
%ADD30R,1.000000X1.500000*%
%ADD31R,2.000000X0.800000*%
%ADD32R,0.450000X1.750000*%
%ADD33C,0.600000*%
%ADD34C,0.250000*%
%ADD35C,0.254000*%
G04 APERTURE END LIST*
D10*
D11*
X74930000Y-152745000D03*
X74930000Y-160945000D03*
D12*
X77280000Y-153745000D03*
X77280000Y-159945000D03*
D13*
X77610000Y-156845000D03*
X77610000Y-157495000D03*
X77610000Y-158145000D03*
X77610000Y-156195000D03*
X77610000Y-155545000D03*
D14*
X82665000Y-151765000D03*
X81165000Y-151765000D03*
X88380000Y-154305000D03*
X86880000Y-154305000D03*
X85840000Y-154305000D03*
X84340000Y-154305000D03*
X82665000Y-150495000D03*
X81165000Y-150495000D03*
X91555000Y-151765000D03*
X90055000Y-151765000D03*
D15*
X89305000Y-149860000D03*
X92305000Y-149860000D03*
D16*
X81115000Y-147955000D03*
X82715000Y-147955000D03*
D17*
X81165000Y-153035000D03*
X82665000Y-153035000D03*
D18*
X77470000Y-170180000D03*
D19*
X80010000Y-170180000D03*
X82550000Y-170180000D03*
X85090000Y-170180000D03*
X87630000Y-170180000D03*
X90170000Y-170180000D03*
X92710000Y-170180000D03*
X95250000Y-170180000D03*
X97790000Y-170180000D03*
X100330000Y-170180000D03*
X102870000Y-170180000D03*
X105410000Y-170180000D03*
X107950000Y-170180000D03*
X110490000Y-170180000D03*
X113030000Y-170180000D03*
X115570000Y-170180000D03*
X118110000Y-170180000D03*
X120650000Y-170180000D03*
X123190000Y-170180000D03*
X125730000Y-170180000D03*
X128270000Y-170180000D03*
X130810000Y-170180000D03*
X133350000Y-170180000D03*
X135890000Y-170180000D03*
X138430000Y-170180000D03*
X140970000Y-170180000D03*
X143510000Y-170180000D03*
X146050000Y-170180000D03*
X148590000Y-170180000D03*
X151130000Y-170180000D03*
D20*
X98400000Y-162560000D03*
X99500000Y-162560000D03*
X100600000Y-162560000D03*
X101700000Y-162560000D03*
X102800000Y-162560000D03*
X103900000Y-162560000D03*
X105000000Y-162560000D03*
X106100000Y-162560000D03*
X107050000Y-162560000D03*
D21*
X96850000Y-162560000D03*
X108000000Y-158260000D03*
D22*
X108000000Y-152060000D03*
D23*
X108000000Y-147910000D03*
D24*
X94500000Y-147460000D03*
D17*
X90055000Y-153035000D03*
X91555000Y-153035000D03*
X81165000Y-149225000D03*
X82665000Y-149225000D03*
D25*
X143975000Y-152595000D03*
X148125000Y-152595000D03*
X143975000Y-154745000D03*
X148125000Y-154745000D03*
X143975000Y-157675000D03*
X148125000Y-157675000D03*
X143975000Y-159825000D03*
X148125000Y-159825000D03*
D26*
X130980000Y-163305000D03*
X129710000Y-163305000D03*
X128440000Y-163305000D03*
X127170000Y-163305000D03*
X125900000Y-163305000D03*
X124630000Y-163305000D03*
X123360000Y-163305000D03*
X122090000Y-163305000D03*
X120820000Y-163305000D03*
X119550000Y-163305000D03*
X118280000Y-163305000D03*
X117010000Y-163305000D03*
X115740000Y-163305000D03*
X114470000Y-163305000D03*
D27*
X112980000Y-160020000D03*
X112980000Y-158750000D03*
X112980000Y-157480000D03*
X112980000Y-156210000D03*
X112980000Y-154940000D03*
X112980000Y-153670000D03*
X112980000Y-152400000D03*
X112980000Y-151130000D03*
X112980000Y-149860000D03*
X112980000Y-148590000D03*
D26*
X114470000Y-145305000D03*
X115740000Y-145305000D03*
X117010000Y-145305000D03*
X118280000Y-145305000D03*
X119550000Y-145305000D03*
X120820000Y-145305000D03*
X122090000Y-145305000D03*
X123360000Y-145305000D03*
X124630000Y-145305000D03*
X125900000Y-145305000D03*
X127170000Y-145305000D03*
X128440000Y-145305000D03*
X129710000Y-145305000D03*
X130980000Y-145305000D03*
D28*
X123280000Y-154005000D03*
D10*
G36*
X85360000Y-150095000D02*
X85860000Y-149345000D01*
X86860000Y-149345000D01*
X87360000Y-150095000D01*
X85360000Y-150095000D01*
X85360000Y-150095000D01*
G37*
D29*
X84860000Y-148645000D03*
X87860000Y-148645000D03*
X84860000Y-152345000D03*
D30*
X86360000Y-152345000D03*
D29*
X87860000Y-152345000D03*
D30*
X86360000Y-148645000D03*
D10*
G36*
X87360000Y-150895000D02*
X86860000Y-151645000D01*
X85860000Y-151645000D01*
X85360000Y-150895000D01*
X87360000Y-150895000D01*
X87360000Y-150895000D01*
G37*
D31*
X86360000Y-150495000D03*
D32*
X83435000Y-163620000D03*
X84085000Y-163620000D03*
X84735000Y-163620000D03*
X85385000Y-163620000D03*
X86035000Y-163620000D03*
X86685000Y-163620000D03*
X87335000Y-163620000D03*
X87985000Y-163620000D03*
X88635000Y-163620000D03*
X89285000Y-163620000D03*
X89285000Y-156420000D03*
X88635000Y-156420000D03*
X87985000Y-156420000D03*
X87335000Y-156420000D03*
X86685000Y-156420000D03*
X86035000Y-156420000D03*
X85385000Y-156420000D03*
X84735000Y-156420000D03*
X84085000Y-156420000D03*
X83435000Y-156420000D03*
D33*
X89217400Y-152772700D03*
X83782800Y-148314500D03*
X101988800Y-161427300D03*
X129549900Y-147079800D03*
X82806500Y-157651900D03*
X81813400Y-158461900D03*
X81698400Y-160570700D03*
X78806900Y-158145000D03*
X82482300Y-153993000D03*
X92316900Y-153112500D03*
X113100200Y-164144200D03*
X126530800Y-164880300D03*
X85805500Y-157875900D03*
X98840900Y-163670900D03*
X114574700Y-147287700D03*
X102775800Y-163685500D03*
X104936300Y-161371200D03*
X115452000Y-147191500D03*
X119000700Y-146982300D03*
X119621600Y-147773300D03*
X120254100Y-148676500D03*
X122189000Y-147104500D03*
X123182000Y-148376000D03*
X124983500Y-148707100D03*
X123923200Y-146948000D03*
X127969400Y-147977400D03*
X126489700Y-146880300D03*
D34*
X86360000Y-150495000D02*
X86885000Y-150495000D01*
X82665000Y-149225000D02*
X82665000Y-150495000D01*
X77610000Y-155545000D02*
X78610300Y-155545000D01*
X86360000Y-152345000D02*
X86360000Y-151270000D01*
X87685300Y-151039000D02*
X87685300Y-150495000D01*
X87504000Y-151220300D02*
X87685300Y-151039000D01*
X86409700Y-151220300D02*
X87504000Y-151220300D01*
X86360000Y-151270000D02*
X86409700Y-151220300D01*
X86885000Y-150495000D02*
X87685300Y-150495000D01*
X103900000Y-162560000D02*
X103900000Y-163485300D01*
X148125000Y-157675000D02*
X147274700Y-157675000D01*
X82665000Y-150495000D02*
X82665000Y-151195300D01*
X82665000Y-151765000D02*
X82665000Y-151195300D01*
X123280000Y-154005000D02*
X126605300Y-154005000D01*
X139984700Y-145305000D02*
X147274700Y-152595000D01*
X130980000Y-145305000D02*
X139984700Y-145305000D01*
X148125000Y-152595000D02*
X147274700Y-152595000D01*
X143078500Y-155425100D02*
X144955700Y-155425100D01*
X141658400Y-154005000D02*
X143078500Y-155425100D01*
X126605300Y-154005000D02*
X141658400Y-154005000D01*
X144955700Y-154914000D02*
X147274700Y-152595000D01*
X144955700Y-155425100D02*
X144955700Y-154914000D01*
X144955700Y-157302200D02*
X144955700Y-155425100D01*
X145311300Y-157657800D02*
X144955700Y-157302200D01*
X143794500Y-159174600D02*
X145311300Y-157657800D01*
X142262000Y-159174600D02*
X143794500Y-159174600D01*
X138131600Y-163305000D02*
X142262000Y-159174600D01*
X130980000Y-163305000D02*
X138131600Y-163305000D01*
X147257500Y-157657800D02*
X147274700Y-157675000D01*
X145311300Y-157657800D02*
X147257500Y-157657800D01*
X86360000Y-149970000D02*
X86360000Y-149720000D01*
X86885000Y-150495000D02*
X86360000Y-149970000D01*
X86360000Y-149720000D02*
X86360000Y-148645000D01*
X80010000Y-170180000D02*
X81185300Y-170180000D01*
X97675400Y-163455500D02*
X97675400Y-160746800D01*
X86685000Y-163620000D02*
X86685000Y-164820300D01*
X86685000Y-164820300D02*
X91350200Y-169485400D01*
X97031600Y-163804000D02*
X91350200Y-169485400D01*
X97326900Y-163804000D02*
X97031600Y-163804000D01*
X97675400Y-163455500D02*
X97326900Y-163804000D01*
X81185300Y-170547400D02*
X81185300Y-170180000D01*
X81993200Y-171355300D02*
X81185300Y-170547400D01*
X90685400Y-171355300D02*
X81993200Y-171355300D01*
X91350100Y-170690600D02*
X90685400Y-171355300D01*
X91350100Y-169485500D02*
X91350100Y-170690600D01*
X91350200Y-169485400D02*
X91350100Y-169485500D01*
X85840000Y-154305000D02*
X85840000Y-153604700D01*
X90667800Y-153739200D02*
X97675400Y-160746800D01*
X86024400Y-153420300D02*
X86360000Y-153420300D01*
X85840000Y-153604700D02*
X86024400Y-153420300D01*
X86360000Y-152345000D02*
X86360000Y-153420300D01*
X90102000Y-154305000D02*
X88380000Y-154305000D01*
X90667800Y-153739200D02*
X90102000Y-154305000D01*
X86544400Y-153604700D02*
X86360000Y-153420300D01*
X88380000Y-153604700D02*
X86544400Y-153604700D01*
X88380000Y-154305000D02*
X88380000Y-153604700D01*
X111115500Y-148590000D02*
X112980000Y-148590000D01*
X108836000Y-150869500D02*
X111115500Y-148590000D01*
X107552700Y-150869500D02*
X108836000Y-150869500D01*
X97675400Y-160746800D02*
X107552700Y-150869500D01*
X119954700Y-153989400D02*
X119954700Y-154005000D01*
X114555300Y-148590000D02*
X119954700Y-153989400D01*
X112980000Y-148590000D02*
X114555300Y-148590000D01*
X123280000Y-154005000D02*
X119954700Y-154005000D01*
X92305000Y-149860000D02*
X92305000Y-150301100D01*
X79872600Y-154282700D02*
X78610300Y-155545000D01*
X82048600Y-152381400D02*
X82665000Y-151765000D01*
X82048600Y-153313600D02*
X82048600Y-152381400D01*
X81079400Y-154282800D02*
X82048600Y-153313600D01*
X79872600Y-154282800D02*
X81079400Y-154282800D01*
X79872600Y-154282700D02*
X79872600Y-154282800D01*
X79872500Y-154282700D02*
X79872600Y-154282700D01*
X79872500Y-153671800D02*
X79872500Y-154282700D01*
X79620000Y-153419300D02*
X79872500Y-153671800D01*
X79620000Y-147551700D02*
X79620000Y-153419300D01*
X80869900Y-146301800D02*
X79620000Y-147551700D01*
X84369700Y-146301800D02*
X80869900Y-146301800D01*
X84820000Y-146752100D02*
X84369700Y-146301800D01*
X88756000Y-146752100D02*
X84820000Y-146752100D01*
X92305000Y-150301100D02*
X88756000Y-146752100D01*
X86035000Y-155200300D02*
X85840000Y-155005300D01*
X86035000Y-156420000D02*
X86035000Y-155200300D01*
X85840000Y-154305000D02*
X85840000Y-155005300D01*
X90667800Y-152652200D02*
X91555000Y-151765000D01*
X90667800Y-153739200D02*
X90667800Y-152652200D01*
X92305000Y-150314700D02*
X92305000Y-150301100D01*
X91555000Y-151064700D02*
X92305000Y-150314700D01*
X91555000Y-151765000D02*
X91555000Y-151064700D01*
X103065600Y-164319700D02*
X103900000Y-163485300D01*
X98539600Y-164319700D02*
X103065600Y-164319700D01*
X97675400Y-163455500D02*
X98539600Y-164319700D01*
X88340000Y-149720300D02*
X88479700Y-149860000D01*
X87860000Y-149720300D02*
X88340000Y-149720300D01*
X87860000Y-148802400D02*
X87860000Y-149720300D01*
X81165000Y-150495000D02*
X81165000Y-151765000D01*
X80570500Y-149900500D02*
X81165000Y-150495000D01*
X80570500Y-148499500D02*
X80570500Y-149900500D01*
X81115000Y-147955000D02*
X80570500Y-148499500D01*
X89305000Y-149860000D02*
X88955100Y-149860000D01*
X88955100Y-149860000D02*
X88479700Y-149860000D01*
X90055000Y-153035000D02*
X89479700Y-153035000D01*
X88955100Y-152510400D02*
X89217400Y-152772700D01*
X88955100Y-149860000D02*
X88955100Y-152510400D01*
X89217400Y-152772700D02*
X89479700Y-153035000D01*
X87860000Y-148802400D02*
X87860000Y-148645000D01*
X81840300Y-147501600D02*
X81840300Y-147955000D01*
X82112200Y-147229700D02*
X81840300Y-147501600D01*
X83306600Y-147229700D02*
X82112200Y-147229700D01*
X83782800Y-147705900D02*
X83306600Y-147229700D01*
X83782800Y-148314500D02*
X83782800Y-147705900D01*
X81115000Y-147955000D02*
X81840300Y-147955000D01*
X101781400Y-161634700D02*
X101988800Y-161427300D01*
X101700000Y-161634700D02*
X101781400Y-161634700D01*
X101700000Y-162560000D02*
X101700000Y-161634700D01*
X129710000Y-146919700D02*
X129710000Y-145305000D01*
X129549900Y-147079800D02*
X129710000Y-146919700D01*
X86880000Y-154649800D02*
X86880000Y-154379500D01*
X86880000Y-154649800D02*
X86880000Y-155005300D01*
X86880000Y-154305000D02*
X86880000Y-154379500D01*
X84860000Y-151269700D02*
X84860000Y-149720300D01*
X86685000Y-155200300D02*
X86685000Y-156420000D01*
X86880000Y-155005300D02*
X86685000Y-155200300D01*
X86685000Y-156420000D02*
X86685000Y-157620300D01*
X84860000Y-152345000D02*
X84860000Y-151269700D01*
X84860000Y-149182600D02*
X84860000Y-149720300D01*
X84860000Y-152345000D02*
X84860000Y-153420300D01*
X82884600Y-157651900D02*
X82806500Y-157651900D01*
X85090000Y-153650300D02*
X84860000Y-153420300D01*
X85090000Y-154818600D02*
X85090000Y-153650300D01*
X84760500Y-155148100D02*
X85090000Y-154818600D01*
X83089900Y-155148100D02*
X84760500Y-155148100D01*
X82884600Y-155353400D02*
X83089900Y-155148100D01*
X82884600Y-157651900D02*
X82884600Y-155353400D01*
X84860000Y-149182600D02*
X84860000Y-148645000D01*
X90153500Y-150966200D02*
X90055000Y-151064700D01*
X90153500Y-148905500D02*
X90153500Y-150966200D01*
X88817700Y-147569700D02*
X90153500Y-148905500D01*
X84860000Y-147569700D02*
X88817700Y-147569700D01*
X84860000Y-148645000D02*
X84860000Y-147569700D01*
X90055000Y-151765000D02*
X90055000Y-151064700D01*
X84042400Y-146752100D02*
X84860000Y-147569700D01*
X81056500Y-146752100D02*
X84042400Y-146752100D01*
X80094500Y-147714100D02*
X81056500Y-146752100D01*
X80094500Y-152539800D02*
X80094500Y-147714100D01*
X80589700Y-153035000D02*
X80094500Y-152539800D01*
X81165000Y-153035000D02*
X80589700Y-153035000D01*
X82884600Y-157730000D02*
X82884600Y-157651900D01*
X83655900Y-158501300D02*
X82884600Y-157730000D01*
X86077200Y-158501300D02*
X83655900Y-158501300D01*
X86685000Y-157893500D02*
X86077200Y-158501300D01*
X86685000Y-157620300D02*
X86685000Y-157893500D01*
X84340000Y-154305000D02*
X83614700Y-154305000D01*
X82886000Y-160570700D02*
X84735000Y-162419700D01*
X81698400Y-160570700D02*
X82886000Y-160570700D01*
X84735000Y-163620000D02*
X84735000Y-162419700D01*
X87985000Y-156420000D02*
X87985000Y-157620300D01*
X87335000Y-157620300D02*
X87985000Y-157620300D01*
X87335000Y-156420000D02*
X87335000Y-157620300D01*
X82174500Y-158461900D02*
X81813400Y-158461900D01*
X82174500Y-155347100D02*
X82174500Y-158461900D01*
X83216600Y-154305000D02*
X82174500Y-155347100D01*
X83614700Y-154305000D02*
X83216600Y-154305000D01*
X87335000Y-157906600D02*
X87335000Y-157620300D01*
X86240000Y-159001600D02*
X87335000Y-157906600D01*
X82714200Y-159001600D02*
X86240000Y-159001600D01*
X82174500Y-158461900D02*
X82714200Y-159001600D01*
X81740300Y-148929700D02*
X82715000Y-147955000D01*
X81740300Y-149225000D02*
X81740300Y-148929700D01*
X81165000Y-149225000D02*
X81740300Y-149225000D01*
X82665000Y-153035000D02*
X82665000Y-153810300D01*
X82665000Y-153810300D02*
X82482300Y-153993000D01*
X77610000Y-158145000D02*
X78806900Y-158145000D01*
X128440000Y-145305000D02*
X128440000Y-146880300D01*
X143975000Y-152595000D02*
X143124700Y-152595000D01*
X91555000Y-153035000D02*
X92130300Y-153035000D01*
X92207800Y-153112500D02*
X92130300Y-153035000D01*
X92316900Y-153112500D02*
X92207800Y-153112500D01*
X128647100Y-147087400D02*
X128647100Y-149198500D01*
X128440000Y-146880300D02*
X128647100Y-147087400D01*
X132043600Y-152595000D02*
X143124700Y-152595000D01*
X128647100Y-149198500D02*
X132043600Y-152595000D01*
X128513000Y-149332600D02*
X128647100Y-149198500D01*
X116714700Y-149332600D02*
X128513000Y-149332600D01*
X115354400Y-147972300D02*
X116714700Y-149332600D01*
X114315700Y-147972300D02*
X115354400Y-147972300D01*
X114158000Y-147814600D02*
X114315700Y-147972300D01*
X111254000Y-147814600D02*
X114158000Y-147814600D01*
X109200700Y-149867900D02*
X111254000Y-147814600D01*
X95561500Y-149867900D02*
X109200700Y-149867900D01*
X92316900Y-153112500D02*
X95561500Y-149867900D01*
X143975000Y-157675000D02*
X143124700Y-157675000D01*
X139070000Y-161729700D02*
X114470000Y-161729700D01*
X143124700Y-157675000D02*
X139070000Y-161729700D01*
X114470000Y-163282500D02*
X114470000Y-161729700D01*
X114470000Y-163282500D02*
X114470000Y-163305000D01*
X113939400Y-163305000D02*
X113100200Y-164144200D01*
X114470000Y-163305000D02*
X113939400Y-163305000D01*
X85985600Y-164820300D02*
X90170000Y-169004700D01*
X85385000Y-164820300D02*
X85985600Y-164820300D01*
X90170000Y-170180000D02*
X90170000Y-169004700D01*
X85385000Y-163620000D02*
X85385000Y-164820300D01*
X127170000Y-163305000D02*
X127170000Y-164880300D01*
X127170000Y-164880300D02*
X126530800Y-164880300D01*
X112980000Y-160020000D02*
X111404700Y-160020000D01*
X105000000Y-162215600D02*
X105000000Y-162560000D01*
X107195600Y-160020000D02*
X105000000Y-162215600D01*
X111404700Y-160020000D02*
X107195600Y-160020000D01*
X93885300Y-169812700D02*
X93885300Y-170180000D01*
X95377800Y-168320200D02*
X93885300Y-169812700D01*
X100165100Y-168320200D02*
X95377800Y-168320200D01*
X105000000Y-163485300D02*
X100165100Y-168320200D01*
X105000000Y-162560000D02*
X105000000Y-163485300D01*
X92710000Y-170180000D02*
X93885300Y-170180000D01*
X95250000Y-170180000D02*
X96425300Y-170180000D01*
X83435000Y-156420000D02*
X83435000Y-157620300D01*
X125900000Y-167414300D02*
X125900000Y-163305000D01*
X124460000Y-168854300D02*
X125900000Y-167414300D01*
X124460000Y-170573900D02*
X124460000Y-168854300D01*
X122766600Y-172267300D02*
X124460000Y-170573900D01*
X98145300Y-172267300D02*
X122766600Y-172267300D01*
X96425300Y-170547300D02*
X98145300Y-172267300D01*
X96425300Y-170180000D02*
X96425300Y-170547300D01*
X85549900Y-157620300D02*
X83435000Y-157620300D01*
X85805500Y-157875900D02*
X85549900Y-157620300D01*
X106100000Y-162560000D02*
X106100000Y-163485300D01*
X97790000Y-170180000D02*
X98965300Y-170180000D01*
X106100000Y-163485300D02*
X106100000Y-169004600D01*
X98965300Y-169812600D02*
X98965300Y-170180000D01*
X99773300Y-169004600D02*
X98965300Y-169812600D01*
X106100000Y-169004600D02*
X99773300Y-169004600D01*
X108537200Y-169004600D02*
X106100000Y-169004600D01*
X109277100Y-169744500D02*
X108537200Y-169004600D01*
X109277100Y-170695900D02*
X109277100Y-169744500D01*
X109947800Y-171366600D02*
X109277100Y-170695900D01*
X111035300Y-171366600D02*
X109947800Y-171366600D01*
X111760000Y-170641900D02*
X111035300Y-171366600D01*
X111760000Y-168860300D02*
X111760000Y-170641900D01*
X115740000Y-164880300D02*
X111760000Y-168860300D01*
X115740000Y-163305000D02*
X115740000Y-164880300D01*
X100330000Y-170180000D02*
X101505300Y-170180000D01*
X101505300Y-170180000D02*
X101505300Y-170545300D01*
X101505300Y-170545300D02*
X102777000Y-171817000D01*
X102777000Y-171817000D02*
X115701400Y-171817000D01*
X115701400Y-171817000D02*
X116840000Y-170678400D01*
X116840000Y-170678400D02*
X116840000Y-169549800D01*
X116840000Y-169549800D02*
X119550000Y-166839800D01*
X119550000Y-166839800D02*
X119550000Y-163305000D01*
X98400000Y-162560000D02*
X98400000Y-163485300D01*
X98585600Y-163670900D02*
X98840900Y-163670900D01*
X98400000Y-163485300D02*
X98585600Y-163670900D01*
X114470000Y-145305000D02*
X114470000Y-146880300D01*
X114574700Y-146985000D02*
X114574700Y-147287700D01*
X114470000Y-146880300D02*
X114574700Y-146985000D01*
X99500000Y-162560000D02*
X99500000Y-163485300D01*
X99793200Y-161634700D02*
X99500000Y-161634700D01*
X111404700Y-150023200D02*
X99793200Y-161634700D01*
X111404700Y-149860000D02*
X111404700Y-150023200D01*
X112980000Y-149860000D02*
X111404700Y-149860000D01*
X99500000Y-162560000D02*
X99500000Y-161634700D01*
X102575600Y-163485300D02*
X102775800Y-163685500D01*
X99500000Y-163485300D02*
X102575600Y-163485300D01*
X102800000Y-162560000D02*
X102800000Y-161634700D01*
X103063500Y-161371200D02*
X104936300Y-161371200D01*
X102800000Y-161634700D02*
X103063500Y-161371200D01*
X115452000Y-147168300D02*
X115452000Y-147191500D01*
X115740000Y-146880300D02*
X115452000Y-147168300D01*
X115740000Y-145305000D02*
X115740000Y-146880300D01*
X110490000Y-164411200D02*
X110490000Y-169004700D01*
X114555300Y-160345900D02*
X110490000Y-164411200D01*
X114555300Y-158750000D02*
X114555300Y-160345900D01*
X110490000Y-170180000D02*
X110490000Y-169004700D01*
X113767700Y-158750000D02*
X114555300Y-158750000D01*
X113767700Y-158750000D02*
X112980000Y-158750000D01*
X103030900Y-159203800D02*
X100600000Y-161634700D01*
X110950900Y-159203800D02*
X103030900Y-159203800D01*
X111404700Y-158750000D02*
X110950900Y-159203800D01*
X112980000Y-158750000D02*
X111404700Y-158750000D01*
X100600000Y-162560000D02*
X100600000Y-161634700D01*
X117010000Y-165024700D02*
X113030000Y-169004700D01*
X117010000Y-163305000D02*
X117010000Y-165024700D01*
X113030000Y-170180000D02*
X113030000Y-169004700D01*
X118280000Y-166294700D02*
X115570000Y-169004700D01*
X118280000Y-163305000D02*
X118280000Y-166294700D01*
X115570000Y-170180000D02*
X115570000Y-169004700D01*
X120820000Y-166294700D02*
X118110000Y-169004700D01*
X120820000Y-163305000D02*
X120820000Y-166294700D01*
X118110000Y-170180000D02*
X118110000Y-169004700D01*
X122090000Y-167564700D02*
X120650000Y-169004700D01*
X122090000Y-163305000D02*
X122090000Y-167564700D01*
X120650000Y-170180000D02*
X120650000Y-169004700D01*
X124630000Y-167564700D02*
X123190000Y-169004700D01*
X124630000Y-163305000D02*
X124630000Y-167564700D01*
X123190000Y-170180000D02*
X123190000Y-169004700D01*
X128440000Y-166294700D02*
X125730000Y-169004700D01*
X128440000Y-163305000D02*
X128440000Y-166294700D01*
X125730000Y-170180000D02*
X125730000Y-169004700D01*
X129710000Y-167564700D02*
X128270000Y-169004700D01*
X129710000Y-163305000D02*
X129710000Y-167564700D01*
X128270000Y-170180000D02*
X128270000Y-169004700D01*
X119102700Y-146880300D02*
X119000700Y-146982300D01*
X119550000Y-146880300D02*
X119102700Y-146880300D01*
X119550000Y-145305000D02*
X119550000Y-146880300D01*
X118280000Y-145305000D02*
X118280000Y-146880300D01*
X118907400Y-147773300D02*
X119621600Y-147773300D01*
X118280000Y-147145900D02*
X118907400Y-147773300D01*
X118280000Y-146880300D02*
X118280000Y-147145900D01*
X117010000Y-145305000D02*
X117010000Y-146880300D01*
X118806200Y-148676500D02*
X120254100Y-148676500D01*
X117010000Y-146880300D02*
X118806200Y-148676500D01*
X122090000Y-145305000D02*
X122090000Y-146880300D01*
X122189000Y-146979300D02*
X122189000Y-147104500D01*
X122090000Y-146880300D02*
X122189000Y-146979300D01*
X122315700Y-148376000D02*
X123182000Y-148376000D01*
X120820000Y-146880300D02*
X122315700Y-148376000D01*
X120820000Y-145305000D02*
X120820000Y-146880300D01*
X124630000Y-145305000D02*
X124630000Y-146880300D01*
X124983500Y-147233800D02*
X124983500Y-148707100D01*
X124630000Y-146880300D02*
X124983500Y-147233800D01*
X123360000Y-145305000D02*
X123360000Y-146880300D01*
X123855500Y-146880300D02*
X123923200Y-146948000D01*
X123360000Y-146880300D02*
X123855500Y-146880300D01*
X127170000Y-145305000D02*
X127170000Y-146880300D01*
X127969300Y-147977400D02*
X127969400Y-147977400D01*
X127969300Y-147679600D02*
X127969300Y-147977400D01*
X127170000Y-146880300D02*
X127969300Y-147679600D01*
X125900000Y-145305000D02*
X125900000Y-146880300D01*
X125900000Y-146880300D02*
X126489700Y-146880300D01*
X89285000Y-156420000D02*
X89285000Y-157620300D01*
X79252900Y-156845000D02*
X77610000Y-156845000D01*
X81861700Y-159453800D02*
X79252900Y-156845000D01*
X87451500Y-159453800D02*
X81861700Y-159453800D01*
X89285000Y-157620300D02*
X87451500Y-159453800D01*
X79266000Y-157495000D02*
X77610000Y-157495000D01*
X81716300Y-159945300D02*
X79266000Y-157495000D01*
X87596900Y-159945300D02*
X81716300Y-159945300D01*
X89849700Y-157692500D02*
X87596900Y-159945300D01*
X89849700Y-155391400D02*
X89849700Y-157692500D01*
X89678000Y-155219700D02*
X89849700Y-155391400D01*
X88635000Y-155219700D02*
X89678000Y-155219700D01*
X88635000Y-156420000D02*
X88635000Y-155219700D01*
D35*
G36*
X152960000Y-172010000D02*
X124098702Y-172010000D01*
X124781619Y-171327083D01*
X125161715Y-171581054D01*
X125730000Y-171694093D01*
X126298285Y-171581054D01*
X126780054Y-171259147D01*
X127000000Y-170929974D01*
X127219946Y-171259147D01*
X127701715Y-171581054D01*
X128270000Y-171694093D01*
X128838285Y-171581054D01*
X129320054Y-171259147D01*
X129540000Y-170929974D01*
X129759946Y-171259147D01*
X130241715Y-171581054D01*
X130810000Y-171694093D01*
X131378285Y-171581054D01*
X131860054Y-171259147D01*
X132080000Y-170929974D01*
X132299946Y-171259147D01*
X132781715Y-171581054D01*
X133350000Y-171694093D01*
X133918285Y-171581054D01*
X134400054Y-171259147D01*
X134620000Y-170929974D01*
X134839946Y-171259147D01*
X135321715Y-171581054D01*
X135890000Y-171694093D01*
X136458285Y-171581054D01*
X136940054Y-171259147D01*
X137160000Y-170929974D01*
X137379946Y-171259147D01*
X137861715Y-171581054D01*
X138430000Y-171694093D01*
X138998285Y-171581054D01*
X139480054Y-171259147D01*
X139700000Y-170929974D01*
X139919946Y-171259147D01*
X140401715Y-171581054D01*
X140970000Y-171694093D01*
X141538285Y-171581054D01*
X142020054Y-171259147D01*
X142240000Y-170929974D01*
X142459946Y-171259147D01*
X142941715Y-171581054D01*
X143510000Y-171694093D01*
X144078285Y-171581054D01*
X144560054Y-171259147D01*
X144780000Y-170929974D01*
X144999946Y-171259147D01*
X145481715Y-171581054D01*
X146050000Y-171694093D01*
X146618285Y-171581054D01*
X147100054Y-171259147D01*
X147320000Y-170929974D01*
X147539946Y-171259147D01*
X148021715Y-171581054D01*
X148590000Y-171694093D01*
X149158285Y-171581054D01*
X149640054Y-171259147D01*
X149860000Y-170929974D01*
X150079946Y-171259147D01*
X150561715Y-171581054D01*
X151130000Y-171694093D01*
X151698285Y-171581054D01*
X152180054Y-171259147D01*
X152501961Y-170777378D01*
X152615000Y-170209093D01*
X152615000Y-170150907D01*
X152501961Y-169582622D01*
X152180054Y-169100853D01*
X151698285Y-168778946D01*
X151130000Y-168665907D01*
X150561715Y-168778946D01*
X150079946Y-169100853D01*
X149860000Y-169430026D01*
X149640054Y-169100853D01*
X149158285Y-168778946D01*
X148590000Y-168665907D01*
X148021715Y-168778946D01*
X147539946Y-169100853D01*
X147320000Y-169430026D01*
X147100054Y-169100853D01*
X146618285Y-168778946D01*
X146050000Y-168665907D01*
X145481715Y-168778946D01*
X144999946Y-169100853D01*
X144780000Y-169430026D01*
X144560054Y-169100853D01*
X144078285Y-168778946D01*
X143510000Y-168665907D01*
X142941715Y-168778946D01*
X142459946Y-169100853D01*
X142240000Y-169430026D01*
X142020054Y-169100853D01*
X141538285Y-168778946D01*
X140970000Y-168665907D01*
X140401715Y-168778946D01*
X139919946Y-169100853D01*
X139700000Y-169430026D01*
X139480054Y-169100853D01*
X138998285Y-168778946D01*
X138430000Y-168665907D01*
X137861715Y-168778946D01*
X137379946Y-169100853D01*
X137160000Y-169430026D01*
X136940054Y-169100853D01*
X136458285Y-168778946D01*
X135890000Y-168665907D01*
X135321715Y-168778946D01*
X134839946Y-169100853D01*
X134620000Y-169430026D01*
X134400054Y-169100853D01*
X133918285Y-168778946D01*
X133350000Y-168665907D01*
X132781715Y-168778946D01*
X132299946Y-169100853D01*
X132080000Y-169430026D01*
X131860054Y-169100853D01*
X131378285Y-168778946D01*
X130810000Y-168665907D01*
X130241715Y-168778946D01*
X129759946Y-169100853D01*
X129540000Y-169430026D01*
X129320054Y-169100853D01*
X129277250Y-169072252D01*
X130247401Y-168102101D01*
X130412148Y-167855539D01*
X130470000Y-167564700D01*
X130470000Y-165043836D01*
X130685999Y-165149408D01*
X130853000Y-165022502D01*
X130853000Y-163432000D01*
X131107000Y-163432000D01*
X131107000Y-165022502D01*
X131274001Y-165149408D01*
X131657408Y-164962013D01*
X131933808Y-164637544D01*
X132065000Y-164232000D01*
X132065000Y-163432000D01*
X131107000Y-163432000D01*
X130853000Y-163432000D01*
X130833000Y-163432000D01*
X130833000Y-163178000D01*
X130853000Y-163178000D01*
X130853000Y-163158000D01*
X131107000Y-163158000D01*
X131107000Y-163178000D01*
X132065000Y-163178000D01*
X132065000Y-162489700D01*
X139070000Y-162489700D01*
X139360839Y-162431848D01*
X139607401Y-162267101D01*
X142374502Y-159500000D01*
X142802560Y-159500000D01*
X142802560Y-160150000D01*
X142846838Y-160385317D01*
X142985910Y-160601441D01*
X143198110Y-160746431D01*
X143450000Y-160797440D01*
X144500000Y-160797440D01*
X144735317Y-160753162D01*
X144951441Y-160614090D01*
X145096431Y-160401890D01*
X145147440Y-160150000D01*
X145147440Y-159500000D01*
X146952560Y-159500000D01*
X146952560Y-160150000D01*
X146996838Y-160385317D01*
X147135910Y-160601441D01*
X147348110Y-160746431D01*
X147600000Y-160797440D01*
X148650000Y-160797440D01*
X148885317Y-160753162D01*
X149101441Y-160614090D01*
X149246431Y-160401890D01*
X149297440Y-160150000D01*
X149297440Y-159500000D01*
X149253162Y-159264683D01*
X149114090Y-159048559D01*
X148901890Y-158903569D01*
X148650000Y-158852560D01*
X147600000Y-158852560D01*
X147364683Y-158896838D01*
X147148559Y-159035910D01*
X147003569Y-159248110D01*
X146952560Y-159500000D01*
X145147440Y-159500000D01*
X145103162Y-159264683D01*
X144964090Y-159048559D01*
X144751890Y-158903569D01*
X144500000Y-158852560D01*
X143450000Y-158852560D01*
X143214683Y-158896838D01*
X142998559Y-159035910D01*
X142853569Y-159248110D01*
X142802560Y-159500000D01*
X142374502Y-159500000D01*
X143264605Y-158609897D01*
X143450000Y-158647440D01*
X144500000Y-158647440D01*
X144735317Y-158603162D01*
X144951441Y-158464090D01*
X145096431Y-158251890D01*
X145147440Y-158000000D01*
X145147440Y-157960750D01*
X146965000Y-157960750D01*
X146965000Y-158126310D01*
X147061673Y-158359699D01*
X147240302Y-158538327D01*
X147473691Y-158635000D01*
X147839250Y-158635000D01*
X147998000Y-158476250D01*
X147998000Y-157802000D01*
X148252000Y-157802000D01*
X148252000Y-158476250D01*
X148410750Y-158635000D01*
X148776309Y-158635000D01*
X149009698Y-158538327D01*
X149188327Y-158359699D01*
X149285000Y-158126310D01*
X149285000Y-157960750D01*
X149126250Y-157802000D01*
X148252000Y-157802000D01*
X147998000Y-157802000D01*
X147123750Y-157802000D01*
X146965000Y-157960750D01*
X145147440Y-157960750D01*
X145147440Y-157350000D01*
X145123674Y-157223690D01*
X146965000Y-157223690D01*
X146965000Y-157389250D01*
X147123750Y-157548000D01*
X147998000Y-157548000D01*
X147998000Y-156873750D01*
X148252000Y-156873750D01*
X148252000Y-157548000D01*
X149126250Y-157548000D01*
X149285000Y-157389250D01*
X149285000Y-157223690D01*
X149188327Y-156990301D01*
X149009698Y-156811673D01*
X148776309Y-156715000D01*
X148410750Y-156715000D01*
X148252000Y-156873750D01*
X147998000Y-156873750D01*
X147839250Y-156715000D01*
X147473691Y-156715000D01*
X147240302Y-156811673D01*
X147061673Y-156990301D01*
X146965000Y-157223690D01*
X145123674Y-157223690D01*
X145103162Y-157114683D01*
X144964090Y-156898559D01*
X144751890Y-156753569D01*
X144500000Y-156702560D01*
X143450000Y-156702560D01*
X143214683Y-156746838D01*
X142998559Y-156885910D01*
X142955716Y-156948613D01*
X142833861Y-156972852D01*
X142587299Y-157137599D01*
X138755198Y-160969700D01*
X115006302Y-160969700D01*
X115092701Y-160883301D01*
X115257448Y-160636740D01*
X115315300Y-160345900D01*
X115315300Y-158750000D01*
X115257448Y-158459161D01*
X115092701Y-158212599D01*
X114846139Y-158047852D01*
X114732457Y-158025239D01*
X114819338Y-157895212D01*
X114901929Y-157480000D01*
X114819338Y-157064788D01*
X114672480Y-156845000D01*
X114819338Y-156625212D01*
X114901929Y-156210000D01*
X114819338Y-155794788D01*
X114672480Y-155575000D01*
X114819338Y-155355212D01*
X114901929Y-154940000D01*
X114819338Y-154524788D01*
X114672480Y-154305000D01*
X114682001Y-154290750D01*
X119645000Y-154290750D01*
X119645000Y-157131309D01*
X119741673Y-157364698D01*
X119920301Y-157543327D01*
X120153690Y-157640000D01*
X122994250Y-157640000D01*
X123153000Y-157481250D01*
X123153000Y-154132000D01*
X123407000Y-154132000D01*
X123407000Y-157481250D01*
X123565750Y-157640000D01*
X126406310Y-157640000D01*
X126639699Y-157543327D01*
X126818327Y-157364698D01*
X126915000Y-157131309D01*
X126915000Y-154420000D01*
X142802560Y-154420000D01*
X142802560Y-155070000D01*
X142846838Y-155305317D01*
X142985910Y-155521441D01*
X143198110Y-155666431D01*
X143450000Y-155717440D01*
X144500000Y-155717440D01*
X144735317Y-155673162D01*
X144951441Y-155534090D01*
X145096431Y-155321890D01*
X145147440Y-155070000D01*
X145147440Y-154420000D01*
X146952560Y-154420000D01*
X146952560Y-155070000D01*
X146996838Y-155305317D01*
X147135910Y-155521441D01*
X147348110Y-155666431D01*
X147600000Y-155717440D01*
X148650000Y-155717440D01*
X148885317Y-155673162D01*
X149101441Y-155534090D01*
X149246431Y-155321890D01*
X149297440Y-155070000D01*
X149297440Y-154420000D01*
X149253162Y-154184683D01*
X149114090Y-153968559D01*
X148901890Y-153823569D01*
X148650000Y-153772560D01*
X147600000Y-153772560D01*
X147364683Y-153816838D01*
X147148559Y-153955910D01*
X147003569Y-154168110D01*
X146952560Y-154420000D01*
X145147440Y-154420000D01*
X145103162Y-154184683D01*
X144964090Y-153968559D01*
X144751890Y-153823569D01*
X144500000Y-153772560D01*
X143450000Y-153772560D01*
X143214683Y-153816838D01*
X142998559Y-153955910D01*
X142853569Y-154168110D01*
X142802560Y-154420000D01*
X126915000Y-154420000D01*
X126915000Y-154290750D01*
X126756250Y-154132000D01*
X123407000Y-154132000D01*
X123153000Y-154132000D01*
X119803750Y-154132000D01*
X119645000Y-154290750D01*
X114682001Y-154290750D01*
X114819338Y-154085212D01*
X114901929Y-153670000D01*
X114819338Y-153254788D01*
X114672480Y-153035000D01*
X114819338Y-152815212D01*
X114901929Y-152400000D01*
X114819338Y-151984788D01*
X114672480Y-151765000D01*
X114819338Y-151545212D01*
X114901929Y-151130000D01*
X114851941Y-150878691D01*
X119645000Y-150878691D01*
X119645000Y-153719250D01*
X119803750Y-153878000D01*
X123153000Y-153878000D01*
X123153000Y-150528750D01*
X123407000Y-150528750D01*
X123407000Y-153878000D01*
X126756250Y-153878000D01*
X126915000Y-153719250D01*
X126915000Y-150878691D01*
X126818327Y-150645302D01*
X126639699Y-150466673D01*
X126406310Y-150370000D01*
X123565750Y-150370000D01*
X123407000Y-150528750D01*
X123153000Y-150528750D01*
X122994250Y-150370000D01*
X120153690Y-150370000D01*
X119920301Y-150466673D01*
X119741673Y-150645302D01*
X119645000Y-150878691D01*
X114851941Y-150878691D01*
X114819338Y-150714788D01*
X114672480Y-150495000D01*
X114819338Y-150275212D01*
X114901929Y-149860000D01*
X114819338Y-149444788D01*
X114663968Y-149212259D01*
X114824408Y-148884001D01*
X114709129Y-148732300D01*
X115039598Y-148732300D01*
X116177299Y-149870001D01*
X116423861Y-150034748D01*
X116714700Y-150092600D01*
X128466398Y-150092600D01*
X131506199Y-153132401D01*
X131752760Y-153297148D01*
X132043600Y-153355000D01*
X142975331Y-153355000D01*
X142985910Y-153371441D01*
X143198110Y-153516431D01*
X143450000Y-153567440D01*
X144500000Y-153567440D01*
X144735317Y-153523162D01*
X144951441Y-153384090D01*
X145096431Y-153171890D01*
X145147440Y-152920000D01*
X145147440Y-152880750D01*
X146965000Y-152880750D01*
X146965000Y-153046310D01*
X147061673Y-153279699D01*
X147240302Y-153458327D01*
X147473691Y-153555000D01*
X147839250Y-153555000D01*
X147998000Y-153396250D01*
X147998000Y-152722000D01*
X148252000Y-152722000D01*
X148252000Y-153396250D01*
X148410750Y-153555000D01*
X148776309Y-153555000D01*
X149009698Y-153458327D01*
X149188327Y-153279699D01*
X149285000Y-153046310D01*
X149285000Y-152880750D01*
X149126250Y-152722000D01*
X148252000Y-152722000D01*
X147998000Y-152722000D01*
X147123750Y-152722000D01*
X146965000Y-152880750D01*
X145147440Y-152880750D01*
X145147440Y-152270000D01*
X145123674Y-152143690D01*
X146965000Y-152143690D01*
X146965000Y-152309250D01*
X147123750Y-152468000D01*
X147998000Y-152468000D01*
X147998000Y-151793750D01*
X148252000Y-151793750D01*
X148252000Y-152468000D01*
X149126250Y-152468000D01*
X149285000Y-152309250D01*
X149285000Y-152143690D01*
X149188327Y-151910301D01*
X149009698Y-151731673D01*
X148776309Y-151635000D01*
X148410750Y-151635000D01*
X148252000Y-151793750D01*
X147998000Y-151793750D01*
X147839250Y-151635000D01*
X147473691Y-151635000D01*
X147240302Y-151731673D01*
X147061673Y-151910301D01*
X146965000Y-152143690D01*
X145123674Y-152143690D01*
X145103162Y-152034683D01*
X144964090Y-151818559D01*
X144751890Y-151673569D01*
X144500000Y-151622560D01*
X143450000Y-151622560D01*
X143214683Y-151666838D01*
X142998559Y-151805910D01*
X142978683Y-151835000D01*
X132358402Y-151835000D01*
X129407100Y-148883698D01*
X129407100Y-148014676D01*
X129735067Y-148014962D01*
X130078843Y-147872917D01*
X130342092Y-147610127D01*
X130484738Y-147266599D01*
X130484926Y-147051131D01*
X130685999Y-147149408D01*
X130853000Y-147022502D01*
X130853000Y-145432000D01*
X131107000Y-145432000D01*
X131107000Y-147022502D01*
X131274001Y-147149408D01*
X131521174Y-147028599D01*
X148759699Y-147028599D01*
X149023281Y-147666515D01*
X149510918Y-148155004D01*
X150148373Y-148419699D01*
X150838599Y-148420301D01*
X151476515Y-148156719D01*
X151965004Y-147669082D01*
X152229699Y-147031627D01*
X152230301Y-146341401D01*
X151966719Y-145703485D01*
X151479082Y-145214996D01*
X150841627Y-144950301D01*
X150151401Y-144949699D01*
X149513485Y-145213281D01*
X149024996Y-145700918D01*
X148760301Y-146338373D01*
X148759699Y-147028599D01*
X131521174Y-147028599D01*
X131657408Y-146962013D01*
X131933808Y-146637544D01*
X132065000Y-146232000D01*
X132065000Y-145432000D01*
X131107000Y-145432000D01*
X130853000Y-145432000D01*
X130833000Y-145432000D01*
X130833000Y-145178000D01*
X130853000Y-145178000D01*
X130853000Y-145158000D01*
X131107000Y-145158000D01*
X131107000Y-145178000D01*
X132065000Y-145178000D01*
X132065000Y-144378000D01*
X132013888Y-144220000D01*
X152960000Y-144220000D01*
X152960000Y-172010000D01*
X152960000Y-172010000D01*
G37*
X152960000Y-172010000D02*
X124098702Y-172010000D01*
X124781619Y-171327083D01*
X125161715Y-171581054D01*
X125730000Y-171694093D01*
X126298285Y-171581054D01*
X126780054Y-171259147D01*
X127000000Y-170929974D01*
X127219946Y-171259147D01*
X127701715Y-171581054D01*
X128270000Y-171694093D01*
X128838285Y-171581054D01*
X129320054Y-171259147D01*
X129540000Y-170929974D01*
X129759946Y-171259147D01*
X130241715Y-171581054D01*
X130810000Y-171694093D01*
X131378285Y-171581054D01*
X131860054Y-171259147D01*
X132080000Y-170929974D01*
X132299946Y-171259147D01*
X132781715Y-171581054D01*
X133350000Y-171694093D01*
X133918285Y-171581054D01*
X134400054Y-171259147D01*
X134620000Y-170929974D01*
X134839946Y-171259147D01*
X135321715Y-171581054D01*
X135890000Y-171694093D01*
X136458285Y-171581054D01*
X136940054Y-171259147D01*
X137160000Y-170929974D01*
X137379946Y-171259147D01*
X137861715Y-171581054D01*
X138430000Y-171694093D01*
X138998285Y-171581054D01*
X139480054Y-171259147D01*
X139700000Y-170929974D01*
X139919946Y-171259147D01*
X140401715Y-171581054D01*
X140970000Y-171694093D01*
X141538285Y-171581054D01*
X142020054Y-171259147D01*
X142240000Y-170929974D01*
X142459946Y-171259147D01*
X142941715Y-171581054D01*
X143510000Y-171694093D01*
X144078285Y-171581054D01*
X144560054Y-171259147D01*
X144780000Y-170929974D01*
X144999946Y-171259147D01*
X145481715Y-171581054D01*
X146050000Y-171694093D01*
X146618285Y-171581054D01*
X147100054Y-171259147D01*
X147320000Y-170929974D01*
X147539946Y-171259147D01*
X148021715Y-171581054D01*
X148590000Y-171694093D01*
X149158285Y-171581054D01*
X149640054Y-171259147D01*
X149860000Y-170929974D01*
X150079946Y-171259147D01*
X150561715Y-171581054D01*
X151130000Y-171694093D01*
X151698285Y-171581054D01*
X152180054Y-171259147D01*
X152501961Y-170777378D01*
X152615000Y-170209093D01*
X152615000Y-170150907D01*
X152501961Y-169582622D01*
X152180054Y-169100853D01*
X151698285Y-168778946D01*
X151130000Y-168665907D01*
X150561715Y-168778946D01*
X150079946Y-169100853D01*
X149860000Y-169430026D01*
X149640054Y-169100853D01*
X149158285Y-168778946D01*
X148590000Y-168665907D01*
X148021715Y-168778946D01*
X147539946Y-169100853D01*
X147320000Y-169430026D01*
X147100054Y-169100853D01*
X146618285Y-168778946D01*
X146050000Y-168665907D01*
X145481715Y-168778946D01*
X144999946Y-169100853D01*
X144780000Y-169430026D01*
X144560054Y-169100853D01*
X144078285Y-168778946D01*
X143510000Y-168665907D01*
X142941715Y-168778946D01*
X142459946Y-169100853D01*
X142240000Y-169430026D01*
X142020054Y-169100853D01*
X141538285Y-168778946D01*
X140970000Y-168665907D01*
X140401715Y-168778946D01*
X139919946Y-169100853D01*
X139700000Y-169430026D01*
X139480054Y-169100853D01*
X138998285Y-168778946D01*
X138430000Y-168665907D01*
X137861715Y-168778946D01*
X137379946Y-169100853D01*
X137160000Y-169430026D01*
X136940054Y-169100853D01*
X136458285Y-168778946D01*
X135890000Y-168665907D01*
X135321715Y-168778946D01*
X134839946Y-169100853D01*
X134620000Y-169430026D01*
X134400054Y-169100853D01*
X133918285Y-168778946D01*
X133350000Y-168665907D01*
X132781715Y-168778946D01*
X132299946Y-169100853D01*
X132080000Y-169430026D01*
X131860054Y-169100853D01*
X131378285Y-168778946D01*
X130810000Y-168665907D01*
X130241715Y-168778946D01*
X129759946Y-169100853D01*
X129540000Y-169430026D01*
X129320054Y-169100853D01*
X129277250Y-169072252D01*
X130247401Y-168102101D01*
X130412148Y-167855539D01*
X130470000Y-167564700D01*
X130470000Y-165043836D01*
X130685999Y-165149408D01*
X130853000Y-165022502D01*
X130853000Y-163432000D01*
X131107000Y-163432000D01*
X131107000Y-165022502D01*
X131274001Y-165149408D01*
X131657408Y-164962013D01*
X131933808Y-164637544D01*
X132065000Y-164232000D01*
X132065000Y-163432000D01*
X131107000Y-163432000D01*
X130853000Y-163432000D01*
X130833000Y-163432000D01*
X130833000Y-163178000D01*
X130853000Y-163178000D01*
X130853000Y-163158000D01*
X131107000Y-163158000D01*
X131107000Y-163178000D01*
X132065000Y-163178000D01*
X132065000Y-162489700D01*
X139070000Y-162489700D01*
X139360839Y-162431848D01*
X139607401Y-162267101D01*
X142374502Y-159500000D01*
X142802560Y-159500000D01*
X142802560Y-160150000D01*
X142846838Y-160385317D01*
X142985910Y-160601441D01*
X143198110Y-160746431D01*
X143450000Y-160797440D01*
X144500000Y-160797440D01*
X144735317Y-160753162D01*
X144951441Y-160614090D01*
X145096431Y-160401890D01*
X145147440Y-160150000D01*
X145147440Y-159500000D01*
X146952560Y-159500000D01*
X146952560Y-160150000D01*
X146996838Y-160385317D01*
X147135910Y-160601441D01*
X147348110Y-160746431D01*
X147600000Y-160797440D01*
X148650000Y-160797440D01*
X148885317Y-160753162D01*
X149101441Y-160614090D01*
X149246431Y-160401890D01*
X149297440Y-160150000D01*
X149297440Y-159500000D01*
X149253162Y-159264683D01*
X149114090Y-159048559D01*
X148901890Y-158903569D01*
X148650000Y-158852560D01*
X147600000Y-158852560D01*
X147364683Y-158896838D01*
X147148559Y-159035910D01*
X147003569Y-159248110D01*
X146952560Y-159500000D01*
X145147440Y-159500000D01*
X145103162Y-159264683D01*
X144964090Y-159048559D01*
X144751890Y-158903569D01*
X144500000Y-158852560D01*
X143450000Y-158852560D01*
X143214683Y-158896838D01*
X142998559Y-159035910D01*
X142853569Y-159248110D01*
X142802560Y-159500000D01*
X142374502Y-159500000D01*
X143264605Y-158609897D01*
X143450000Y-158647440D01*
X144500000Y-158647440D01*
X144735317Y-158603162D01*
X144951441Y-158464090D01*
X145096431Y-158251890D01*
X145147440Y-158000000D01*
X145147440Y-157960750D01*
X146965000Y-157960750D01*
X146965000Y-158126310D01*
X147061673Y-158359699D01*
X147240302Y-158538327D01*
X147473691Y-158635000D01*
X147839250Y-158635000D01*
X147998000Y-158476250D01*
X147998000Y-157802000D01*
X148252000Y-157802000D01*
X148252000Y-158476250D01*
X148410750Y-158635000D01*
X148776309Y-158635000D01*
X149009698Y-158538327D01*
X149188327Y-158359699D01*
X149285000Y-158126310D01*
X149285000Y-157960750D01*
X149126250Y-157802000D01*
X148252000Y-157802000D01*
X147998000Y-157802000D01*
X147123750Y-157802000D01*
X146965000Y-157960750D01*
X145147440Y-157960750D01*
X145147440Y-157350000D01*
X145123674Y-157223690D01*
X146965000Y-157223690D01*
X146965000Y-157389250D01*
X147123750Y-157548000D01*
X147998000Y-157548000D01*
X147998000Y-156873750D01*
X148252000Y-156873750D01*
X148252000Y-157548000D01*
X149126250Y-157548000D01*
X149285000Y-157389250D01*
X149285000Y-157223690D01*
X149188327Y-156990301D01*
X149009698Y-156811673D01*
X148776309Y-156715000D01*
X148410750Y-156715000D01*
X148252000Y-156873750D01*
X147998000Y-156873750D01*
X147839250Y-156715000D01*
X147473691Y-156715000D01*
X147240302Y-156811673D01*
X147061673Y-156990301D01*
X146965000Y-157223690D01*
X145123674Y-157223690D01*
X145103162Y-157114683D01*
X144964090Y-156898559D01*
X144751890Y-156753569D01*
X144500000Y-156702560D01*
X143450000Y-156702560D01*
X143214683Y-156746838D01*
X142998559Y-156885910D01*
X142955716Y-156948613D01*
X142833861Y-156972852D01*
X142587299Y-157137599D01*
X138755198Y-160969700D01*
X115006302Y-160969700D01*
X115092701Y-160883301D01*
X115257448Y-160636740D01*
X115315300Y-160345900D01*
X115315300Y-158750000D01*
X115257448Y-158459161D01*
X115092701Y-158212599D01*
X114846139Y-158047852D01*
X114732457Y-158025239D01*
X114819338Y-157895212D01*
X114901929Y-157480000D01*
X114819338Y-157064788D01*
X114672480Y-156845000D01*
X114819338Y-156625212D01*
X114901929Y-156210000D01*
X114819338Y-155794788D01*
X114672480Y-155575000D01*
X114819338Y-155355212D01*
X114901929Y-154940000D01*
X114819338Y-154524788D01*
X114672480Y-154305000D01*
X114682001Y-154290750D01*
X119645000Y-154290750D01*
X119645000Y-157131309D01*
X119741673Y-157364698D01*
X119920301Y-157543327D01*
X120153690Y-157640000D01*
X122994250Y-157640000D01*
X123153000Y-157481250D01*
X123153000Y-154132000D01*
X123407000Y-154132000D01*
X123407000Y-157481250D01*
X123565750Y-157640000D01*
X126406310Y-157640000D01*
X126639699Y-157543327D01*
X126818327Y-157364698D01*
X126915000Y-157131309D01*
X126915000Y-154420000D01*
X142802560Y-154420000D01*
X142802560Y-155070000D01*
X142846838Y-155305317D01*
X142985910Y-155521441D01*
X143198110Y-155666431D01*
X143450000Y-155717440D01*
X144500000Y-155717440D01*
X144735317Y-155673162D01*
X144951441Y-155534090D01*
X145096431Y-155321890D01*
X145147440Y-155070000D01*
X145147440Y-154420000D01*
X146952560Y-154420000D01*
X146952560Y-155070000D01*
X146996838Y-155305317D01*
X147135910Y-155521441D01*
X147348110Y-155666431D01*
X147600000Y-155717440D01*
X148650000Y-155717440D01*
X148885317Y-155673162D01*
X149101441Y-155534090D01*
X149246431Y-155321890D01*
X149297440Y-155070000D01*
X149297440Y-154420000D01*
X149253162Y-154184683D01*
X149114090Y-153968559D01*
X148901890Y-153823569D01*
X148650000Y-153772560D01*
X147600000Y-153772560D01*
X147364683Y-153816838D01*
X147148559Y-153955910D01*
X147003569Y-154168110D01*
X146952560Y-154420000D01*
X145147440Y-154420000D01*
X145103162Y-154184683D01*
X144964090Y-153968559D01*
X144751890Y-153823569D01*
X144500000Y-153772560D01*
X143450000Y-153772560D01*
X143214683Y-153816838D01*
X142998559Y-153955910D01*
X142853569Y-154168110D01*
X142802560Y-154420000D01*
X126915000Y-154420000D01*
X126915000Y-154290750D01*
X126756250Y-154132000D01*
X123407000Y-154132000D01*
X123153000Y-154132000D01*
X119803750Y-154132000D01*
X119645000Y-154290750D01*
X114682001Y-154290750D01*
X114819338Y-154085212D01*
X114901929Y-153670000D01*
X114819338Y-153254788D01*
X114672480Y-153035000D01*
X114819338Y-152815212D01*
X114901929Y-152400000D01*
X114819338Y-151984788D01*
X114672480Y-151765000D01*
X114819338Y-151545212D01*
X114901929Y-151130000D01*
X114851941Y-150878691D01*
X119645000Y-150878691D01*
X119645000Y-153719250D01*
X119803750Y-153878000D01*
X123153000Y-153878000D01*
X123153000Y-150528750D01*
X123407000Y-150528750D01*
X123407000Y-153878000D01*
X126756250Y-153878000D01*
X126915000Y-153719250D01*
X126915000Y-150878691D01*
X126818327Y-150645302D01*
X126639699Y-150466673D01*
X126406310Y-150370000D01*
X123565750Y-150370000D01*
X123407000Y-150528750D01*
X123153000Y-150528750D01*
X122994250Y-150370000D01*
X120153690Y-150370000D01*
X119920301Y-150466673D01*
X119741673Y-150645302D01*
X119645000Y-150878691D01*
X114851941Y-150878691D01*
X114819338Y-150714788D01*
X114672480Y-150495000D01*
X114819338Y-150275212D01*
X114901929Y-149860000D01*
X114819338Y-149444788D01*
X114663968Y-149212259D01*
X114824408Y-148884001D01*
X114709129Y-148732300D01*
X115039598Y-148732300D01*
X116177299Y-149870001D01*
X116423861Y-150034748D01*
X116714700Y-150092600D01*
X128466398Y-150092600D01*
X131506199Y-153132401D01*
X131752760Y-153297148D01*
X132043600Y-153355000D01*
X142975331Y-153355000D01*
X142985910Y-153371441D01*
X143198110Y-153516431D01*
X143450000Y-153567440D01*
X144500000Y-153567440D01*
X144735317Y-153523162D01*
X144951441Y-153384090D01*
X145096431Y-153171890D01*
X145147440Y-152920000D01*
X145147440Y-152880750D01*
X146965000Y-152880750D01*
X146965000Y-153046310D01*
X147061673Y-153279699D01*
X147240302Y-153458327D01*
X147473691Y-153555000D01*
X147839250Y-153555000D01*
X147998000Y-153396250D01*
X147998000Y-152722000D01*
X148252000Y-152722000D01*
X148252000Y-153396250D01*
X148410750Y-153555000D01*
X148776309Y-153555000D01*
X149009698Y-153458327D01*
X149188327Y-153279699D01*
X149285000Y-153046310D01*
X149285000Y-152880750D01*
X149126250Y-152722000D01*
X148252000Y-152722000D01*
X147998000Y-152722000D01*
X147123750Y-152722000D01*
X146965000Y-152880750D01*
X145147440Y-152880750D01*
X145147440Y-152270000D01*
X145123674Y-152143690D01*
X146965000Y-152143690D01*
X146965000Y-152309250D01*
X147123750Y-152468000D01*
X147998000Y-152468000D01*
X147998000Y-151793750D01*
X148252000Y-151793750D01*
X148252000Y-152468000D01*
X149126250Y-152468000D01*
X149285000Y-152309250D01*
X149285000Y-152143690D01*
X149188327Y-151910301D01*
X149009698Y-151731673D01*
X148776309Y-151635000D01*
X148410750Y-151635000D01*
X148252000Y-151793750D01*
X147998000Y-151793750D01*
X147839250Y-151635000D01*
X147473691Y-151635000D01*
X147240302Y-151731673D01*
X147061673Y-151910301D01*
X146965000Y-152143690D01*
X145123674Y-152143690D01*
X145103162Y-152034683D01*
X144964090Y-151818559D01*
X144751890Y-151673569D01*
X144500000Y-151622560D01*
X143450000Y-151622560D01*
X143214683Y-151666838D01*
X142998559Y-151805910D01*
X142978683Y-151835000D01*
X132358402Y-151835000D01*
X129407100Y-148883698D01*
X129407100Y-148014676D01*
X129735067Y-148014962D01*
X130078843Y-147872917D01*
X130342092Y-147610127D01*
X130484738Y-147266599D01*
X130484926Y-147051131D01*
X130685999Y-147149408D01*
X130853000Y-147022502D01*
X130853000Y-145432000D01*
X131107000Y-145432000D01*
X131107000Y-147022502D01*
X131274001Y-147149408D01*
X131521174Y-147028599D01*
X148759699Y-147028599D01*
X149023281Y-147666515D01*
X149510918Y-148155004D01*
X150148373Y-148419699D01*
X150838599Y-148420301D01*
X151476515Y-148156719D01*
X151965004Y-147669082D01*
X152229699Y-147031627D01*
X152230301Y-146341401D01*
X151966719Y-145703485D01*
X151479082Y-145214996D01*
X150841627Y-144950301D01*
X150151401Y-144949699D01*
X149513485Y-145213281D01*
X149024996Y-145700918D01*
X148760301Y-146338373D01*
X148759699Y-147028599D01*
X131521174Y-147028599D01*
X131657408Y-146962013D01*
X131933808Y-146637544D01*
X132065000Y-146232000D01*
X132065000Y-145432000D01*
X131107000Y-145432000D01*
X130853000Y-145432000D01*
X130833000Y-145432000D01*
X130833000Y-145178000D01*
X130853000Y-145178000D01*
X130853000Y-145158000D01*
X131107000Y-145158000D01*
X131107000Y-145178000D01*
X132065000Y-145178000D01*
X132065000Y-144378000D01*
X132013888Y-144220000D01*
X152960000Y-144220000D01*
X152960000Y-172010000D01*
G36*
X80856435Y-160160238D02*
X80763562Y-160383901D01*
X80763238Y-160755867D01*
X80905283Y-161099643D01*
X81168073Y-161362892D01*
X81511601Y-161505538D01*
X81883567Y-161505862D01*
X82227343Y-161363817D01*
X82260518Y-161330700D01*
X82571198Y-161330700D01*
X83338058Y-162097560D01*
X83210000Y-162097560D01*
X82974683Y-162141838D01*
X82758559Y-162280910D01*
X82613569Y-162493110D01*
X82562560Y-162745000D01*
X82562560Y-164495000D01*
X82606838Y-164730317D01*
X82745910Y-164946441D01*
X82958110Y-165091431D01*
X83210000Y-165142440D01*
X83660000Y-165142440D01*
X83763671Y-165122933D01*
X83860000Y-165142440D01*
X84310000Y-165142440D01*
X84413671Y-165122933D01*
X84510000Y-165142440D01*
X84703767Y-165142440D01*
X84847599Y-165357701D01*
X85094161Y-165522448D01*
X85385000Y-165580300D01*
X85670798Y-165580300D01*
X89162750Y-169072252D01*
X89119946Y-169100853D01*
X88900000Y-169430026D01*
X88680054Y-169100853D01*
X88198285Y-168778946D01*
X87630000Y-168665907D01*
X87061715Y-168778946D01*
X86579946Y-169100853D01*
X86360000Y-169430026D01*
X86140054Y-169100853D01*
X85658285Y-168778946D01*
X85090000Y-168665907D01*
X84521715Y-168778946D01*
X84039946Y-169100853D01*
X83820000Y-169430026D01*
X83600054Y-169100853D01*
X83118285Y-168778946D01*
X82550000Y-168665907D01*
X81981715Y-168778946D01*
X81499946Y-169100853D01*
X81272298Y-169441553D01*
X81205183Y-169298642D01*
X80776924Y-168908355D01*
X80366890Y-168738524D01*
X80137000Y-168859845D01*
X80137000Y-170053000D01*
X80157000Y-170053000D01*
X80157000Y-170307000D01*
X80137000Y-170307000D01*
X80137000Y-171500155D01*
X80366890Y-171621476D01*
X80776924Y-171451645D01*
X81205183Y-171061358D01*
X81272298Y-170918447D01*
X81499946Y-171259147D01*
X81981715Y-171581054D01*
X82550000Y-171694093D01*
X83118285Y-171581054D01*
X83600054Y-171259147D01*
X83820000Y-170929974D01*
X84039946Y-171259147D01*
X84521715Y-171581054D01*
X85090000Y-171694093D01*
X85658285Y-171581054D01*
X86140054Y-171259147D01*
X86360000Y-170929974D01*
X86579946Y-171259147D01*
X87061715Y-171581054D01*
X87630000Y-171694093D01*
X88198285Y-171581054D01*
X88680054Y-171259147D01*
X88900000Y-170929974D01*
X89119946Y-171259147D01*
X89601715Y-171581054D01*
X90170000Y-171694093D01*
X90738285Y-171581054D01*
X91220054Y-171259147D01*
X91440000Y-170929974D01*
X91659946Y-171259147D01*
X92141715Y-171581054D01*
X92710000Y-171694093D01*
X93278285Y-171581054D01*
X93760054Y-171259147D01*
X93980000Y-170929974D01*
X94199946Y-171259147D01*
X94681715Y-171581054D01*
X95250000Y-171694093D01*
X95818285Y-171581054D01*
X96157558Y-171354360D01*
X96813198Y-172010000D01*
X74370000Y-172010000D01*
X74370000Y-169330000D01*
X75972560Y-169330000D01*
X75972560Y-171030000D01*
X76016838Y-171265317D01*
X76155910Y-171481441D01*
X76368110Y-171626431D01*
X76620000Y-171677440D01*
X78320000Y-171677440D01*
X78555317Y-171633162D01*
X78771441Y-171494090D01*
X78916431Y-171281890D01*
X78938301Y-171173893D01*
X79243076Y-171451645D01*
X79653110Y-171621476D01*
X79883000Y-171500155D01*
X79883000Y-170307000D01*
X79863000Y-170307000D01*
X79863000Y-170053000D01*
X79883000Y-170053000D01*
X79883000Y-168859845D01*
X79653110Y-168738524D01*
X79243076Y-168908355D01*
X78940063Y-169184501D01*
X78923162Y-169094683D01*
X78784090Y-168878559D01*
X78571890Y-168733569D01*
X78320000Y-168682560D01*
X76620000Y-168682560D01*
X76384683Y-168726838D01*
X76168559Y-168865910D01*
X76023569Y-169078110D01*
X75972560Y-169330000D01*
X74370000Y-169330000D01*
X74370000Y-162392440D01*
X75880000Y-162392440D01*
X76115317Y-162348162D01*
X76331441Y-162209090D01*
X76476431Y-161996890D01*
X76527440Y-161745000D01*
X76527440Y-161642440D01*
X78280000Y-161642440D01*
X78515317Y-161598162D01*
X78731441Y-161459090D01*
X78876431Y-161246890D01*
X78927440Y-160995000D01*
X78927440Y-159080106D01*
X78992067Y-159080162D01*
X79335843Y-158938117D01*
X79485209Y-158789011D01*
X80856435Y-160160238D01*
X80856435Y-160160238D01*
G37*
X80856435Y-160160238D02*
X80763562Y-160383901D01*
X80763238Y-160755867D01*
X80905283Y-161099643D01*
X81168073Y-161362892D01*
X81511601Y-161505538D01*
X81883567Y-161505862D01*
X82227343Y-161363817D01*
X82260518Y-161330700D01*
X82571198Y-161330700D01*
X83338058Y-162097560D01*
X83210000Y-162097560D01*
X82974683Y-162141838D01*
X82758559Y-162280910D01*
X82613569Y-162493110D01*
X82562560Y-162745000D01*
X82562560Y-164495000D01*
X82606838Y-164730317D01*
X82745910Y-164946441D01*
X82958110Y-165091431D01*
X83210000Y-165142440D01*
X83660000Y-165142440D01*
X83763671Y-165122933D01*
X83860000Y-165142440D01*
X84310000Y-165142440D01*
X84413671Y-165122933D01*
X84510000Y-165142440D01*
X84703767Y-165142440D01*
X84847599Y-165357701D01*
X85094161Y-165522448D01*
X85385000Y-165580300D01*
X85670798Y-165580300D01*
X89162750Y-169072252D01*
X89119946Y-169100853D01*
X88900000Y-169430026D01*
X88680054Y-169100853D01*
X88198285Y-168778946D01*
X87630000Y-168665907D01*
X87061715Y-168778946D01*
X86579946Y-169100853D01*
X86360000Y-169430026D01*
X86140054Y-169100853D01*
X85658285Y-168778946D01*
X85090000Y-168665907D01*
X84521715Y-168778946D01*
X84039946Y-169100853D01*
X83820000Y-169430026D01*
X83600054Y-169100853D01*
X83118285Y-168778946D01*
X82550000Y-168665907D01*
X81981715Y-168778946D01*
X81499946Y-169100853D01*
X81272298Y-169441553D01*
X81205183Y-169298642D01*
X80776924Y-168908355D01*
X80366890Y-168738524D01*
X80137000Y-168859845D01*
X80137000Y-170053000D01*
X80157000Y-170053000D01*
X80157000Y-170307000D01*
X80137000Y-170307000D01*
X80137000Y-171500155D01*
X80366890Y-171621476D01*
X80776924Y-171451645D01*
X81205183Y-171061358D01*
X81272298Y-170918447D01*
X81499946Y-171259147D01*
X81981715Y-171581054D01*
X82550000Y-171694093D01*
X83118285Y-171581054D01*
X83600054Y-171259147D01*
X83820000Y-170929974D01*
X84039946Y-171259147D01*
X84521715Y-171581054D01*
X85090000Y-171694093D01*
X85658285Y-171581054D01*
X86140054Y-171259147D01*
X86360000Y-170929974D01*
X86579946Y-171259147D01*
X87061715Y-171581054D01*
X87630000Y-171694093D01*
X88198285Y-171581054D01*
X88680054Y-171259147D01*
X88900000Y-170929974D01*
X89119946Y-171259147D01*
X89601715Y-171581054D01*
X90170000Y-171694093D01*
X90738285Y-171581054D01*
X91220054Y-171259147D01*
X91440000Y-170929974D01*
X91659946Y-171259147D01*
X92141715Y-171581054D01*
X92710000Y-171694093D01*
X93278285Y-171581054D01*
X93760054Y-171259147D01*
X93980000Y-170929974D01*
X94199946Y-171259147D01*
X94681715Y-171581054D01*
X95250000Y-171694093D01*
X95818285Y-171581054D01*
X96157558Y-171354360D01*
X96813198Y-172010000D01*
X74370000Y-172010000D01*
X74370000Y-169330000D01*
X75972560Y-169330000D01*
X75972560Y-171030000D01*
X76016838Y-171265317D01*
X76155910Y-171481441D01*
X76368110Y-171626431D01*
X76620000Y-171677440D01*
X78320000Y-171677440D01*
X78555317Y-171633162D01*
X78771441Y-171494090D01*
X78916431Y-171281890D01*
X78938301Y-171173893D01*
X79243076Y-171451645D01*
X79653110Y-171621476D01*
X79883000Y-171500155D01*
X79883000Y-170307000D01*
X79863000Y-170307000D01*
X79863000Y-170053000D01*
X79883000Y-170053000D01*
X79883000Y-168859845D01*
X79653110Y-168738524D01*
X79243076Y-168908355D01*
X78940063Y-169184501D01*
X78923162Y-169094683D01*
X78784090Y-168878559D01*
X78571890Y-168733569D01*
X78320000Y-168682560D01*
X76620000Y-168682560D01*
X76384683Y-168726838D01*
X76168559Y-168865910D01*
X76023569Y-169078110D01*
X75972560Y-169330000D01*
X74370000Y-169330000D01*
X74370000Y-162392440D01*
X75880000Y-162392440D01*
X76115317Y-162348162D01*
X76331441Y-162209090D01*
X76476431Y-161996890D01*
X76527440Y-161745000D01*
X76527440Y-161642440D01*
X78280000Y-161642440D01*
X78515317Y-161598162D01*
X78731441Y-161459090D01*
X78876431Y-161246890D01*
X78927440Y-160995000D01*
X78927440Y-159080106D01*
X78992067Y-159080162D01*
X79335843Y-158938117D01*
X79485209Y-158789011D01*
X80856435Y-160160238D01*
G36*
X111255655Y-149129647D02*
X111113861Y-149157852D01*
X110867299Y-149322599D01*
X110702552Y-149569161D01*
X110682344Y-149670754D01*
X109034742Y-151318356D01*
X108964090Y-151208559D01*
X108751890Y-151063569D01*
X108500000Y-151012560D01*
X107500000Y-151012560D01*
X107264683Y-151056838D01*
X107048559Y-151195910D01*
X106903569Y-151408110D01*
X106852560Y-151660000D01*
X106852560Y-152460000D01*
X106896838Y-152695317D01*
X107035910Y-152911441D01*
X107248110Y-153056431D01*
X107288490Y-153064608D01*
X99473034Y-160880064D01*
X99209161Y-160932552D01*
X98962599Y-161097299D01*
X98810571Y-161324826D01*
X98750000Y-161312560D01*
X98050000Y-161312560D01*
X97814683Y-161356838D01*
X97700022Y-161430620D01*
X97601890Y-161363569D01*
X97350000Y-161312560D01*
X96350000Y-161312560D01*
X96114683Y-161356838D01*
X95898559Y-161495910D01*
X95753569Y-161708110D01*
X95702560Y-161960000D01*
X95702560Y-163160000D01*
X95746838Y-163395317D01*
X95885910Y-163611441D01*
X96098110Y-163756431D01*
X96350000Y-163807440D01*
X97350000Y-163807440D01*
X97585317Y-163763162D01*
X97682794Y-163700437D01*
X97697852Y-163776139D01*
X97862599Y-164022701D01*
X98048199Y-164208301D01*
X98072306Y-164224409D01*
X98310573Y-164463092D01*
X98654101Y-164605738D01*
X99026067Y-164606062D01*
X99369843Y-164464017D01*
X99588942Y-164245300D01*
X102013486Y-164245300D01*
X102245473Y-164477692D01*
X102589001Y-164620338D01*
X102789985Y-164620513D01*
X99850298Y-167560200D01*
X95377800Y-167560200D01*
X95086961Y-167618052D01*
X94840399Y-167782799D01*
X93617558Y-169005640D01*
X93278285Y-168778946D01*
X92710000Y-168665907D01*
X92141715Y-168778946D01*
X91659946Y-169100853D01*
X91440000Y-169430026D01*
X91220054Y-169100853D01*
X90907598Y-168892077D01*
X90872148Y-168713861D01*
X90872148Y-168713860D01*
X90707401Y-168467299D01*
X87382542Y-165142440D01*
X87560000Y-165142440D01*
X87663671Y-165122933D01*
X87760000Y-165142440D01*
X88210000Y-165142440D01*
X88313671Y-165122933D01*
X88410000Y-165142440D01*
X88860000Y-165142440D01*
X88963671Y-165122933D01*
X89060000Y-165142440D01*
X89510000Y-165142440D01*
X89745317Y-165098162D01*
X89961441Y-164959090D01*
X90106431Y-164746890D01*
X90157440Y-164495000D01*
X90157440Y-162745000D01*
X90113162Y-162509683D01*
X89974090Y-162293559D01*
X89761890Y-162148569D01*
X89510000Y-162097560D01*
X89060000Y-162097560D01*
X88956329Y-162117067D01*
X88860000Y-162097560D01*
X88410000Y-162097560D01*
X88306329Y-162117067D01*
X88210000Y-162097560D01*
X87760000Y-162097560D01*
X87656329Y-162117067D01*
X87560000Y-162097560D01*
X87110000Y-162097560D01*
X87038677Y-162110980D01*
X87036310Y-162110000D01*
X86956250Y-162110000D01*
X86935938Y-162130312D01*
X86874683Y-162141838D01*
X86682773Y-162265329D01*
X86511890Y-162148569D01*
X86437192Y-162133442D01*
X86413750Y-162110000D01*
X86333690Y-162110000D01*
X86329665Y-162111667D01*
X86260000Y-162097560D01*
X85810000Y-162097560D01*
X85706329Y-162117067D01*
X85610000Y-162097560D01*
X85416233Y-162097560D01*
X85272401Y-161882299D01*
X84095402Y-160705300D01*
X87596900Y-160705300D01*
X87887739Y-160647448D01*
X88134301Y-160482701D01*
X90387101Y-158229901D01*
X90551848Y-157983340D01*
X90609700Y-157692500D01*
X90609700Y-155391400D01*
X90559594Y-155139500D01*
X90551848Y-155100560D01*
X90387101Y-154853999D01*
X90215401Y-154682299D01*
X89968839Y-154517552D01*
X89678000Y-154459700D01*
X89283950Y-154459700D01*
X89256250Y-154432000D01*
X88507000Y-154432000D01*
X88507000Y-154452000D01*
X88253000Y-154452000D01*
X88253000Y-154432000D01*
X88233000Y-154432000D01*
X88233000Y-154178000D01*
X88253000Y-154178000D01*
X88253000Y-154158000D01*
X88507000Y-154158000D01*
X88507000Y-154178000D01*
X89256250Y-154178000D01*
X89415000Y-154019250D01*
X89415000Y-153987065D01*
X89553110Y-154081431D01*
X89805000Y-154132440D01*
X90305000Y-154132440D01*
X90540317Y-154088162D01*
X90756441Y-153949090D01*
X90804134Y-153879289D01*
X90840910Y-153936441D01*
X91053110Y-154081431D01*
X91305000Y-154132440D01*
X91805000Y-154132440D01*
X92040317Y-154088162D01*
X92114091Y-154040690D01*
X92130101Y-154047338D01*
X92502067Y-154047662D01*
X92845843Y-153905617D01*
X93109092Y-153642827D01*
X93251738Y-153299299D01*
X93251779Y-153252423D01*
X95876302Y-150627900D01*
X109200700Y-150627900D01*
X109491539Y-150570048D01*
X109738101Y-150405301D01*
X111176239Y-148967163D01*
X111255655Y-149129647D01*
X111255655Y-149129647D01*
G37*
X111255655Y-149129647D02*
X111113861Y-149157852D01*
X110867299Y-149322599D01*
X110702552Y-149569161D01*
X110682344Y-149670754D01*
X109034742Y-151318356D01*
X108964090Y-151208559D01*
X108751890Y-151063569D01*
X108500000Y-151012560D01*
X107500000Y-151012560D01*
X107264683Y-151056838D01*
X107048559Y-151195910D01*
X106903569Y-151408110D01*
X106852560Y-151660000D01*
X106852560Y-152460000D01*
X106896838Y-152695317D01*
X107035910Y-152911441D01*
X107248110Y-153056431D01*
X107288490Y-153064608D01*
X99473034Y-160880064D01*
X99209161Y-160932552D01*
X98962599Y-161097299D01*
X98810571Y-161324826D01*
X98750000Y-161312560D01*
X98050000Y-161312560D01*
X97814683Y-161356838D01*
X97700022Y-161430620D01*
X97601890Y-161363569D01*
X97350000Y-161312560D01*
X96350000Y-161312560D01*
X96114683Y-161356838D01*
X95898559Y-161495910D01*
X95753569Y-161708110D01*
X95702560Y-161960000D01*
X95702560Y-163160000D01*
X95746838Y-163395317D01*
X95885910Y-163611441D01*
X96098110Y-163756431D01*
X96350000Y-163807440D01*
X97350000Y-163807440D01*
X97585317Y-163763162D01*
X97682794Y-163700437D01*
X97697852Y-163776139D01*
X97862599Y-164022701D01*
X98048199Y-164208301D01*
X98072306Y-164224409D01*
X98310573Y-164463092D01*
X98654101Y-164605738D01*
X99026067Y-164606062D01*
X99369843Y-164464017D01*
X99588942Y-164245300D01*
X102013486Y-164245300D01*
X102245473Y-164477692D01*
X102589001Y-164620338D01*
X102789985Y-164620513D01*
X99850298Y-167560200D01*
X95377800Y-167560200D01*
X95086961Y-167618052D01*
X94840399Y-167782799D01*
X93617558Y-169005640D01*
X93278285Y-168778946D01*
X92710000Y-168665907D01*
X92141715Y-168778946D01*
X91659946Y-169100853D01*
X91440000Y-169430026D01*
X91220054Y-169100853D01*
X90907598Y-168892077D01*
X90872148Y-168713861D01*
X90872148Y-168713860D01*
X90707401Y-168467299D01*
X87382542Y-165142440D01*
X87560000Y-165142440D01*
X87663671Y-165122933D01*
X87760000Y-165142440D01*
X88210000Y-165142440D01*
X88313671Y-165122933D01*
X88410000Y-165142440D01*
X88860000Y-165142440D01*
X88963671Y-165122933D01*
X89060000Y-165142440D01*
X89510000Y-165142440D01*
X89745317Y-165098162D01*
X89961441Y-164959090D01*
X90106431Y-164746890D01*
X90157440Y-164495000D01*
X90157440Y-162745000D01*
X90113162Y-162509683D01*
X89974090Y-162293559D01*
X89761890Y-162148569D01*
X89510000Y-162097560D01*
X89060000Y-162097560D01*
X88956329Y-162117067D01*
X88860000Y-162097560D01*
X88410000Y-162097560D01*
X88306329Y-162117067D01*
X88210000Y-162097560D01*
X87760000Y-162097560D01*
X87656329Y-162117067D01*
X87560000Y-162097560D01*
X87110000Y-162097560D01*
X87038677Y-162110980D01*
X87036310Y-162110000D01*
X86956250Y-162110000D01*
X86935938Y-162130312D01*
X86874683Y-162141838D01*
X86682773Y-162265329D01*
X86511890Y-162148569D01*
X86437192Y-162133442D01*
X86413750Y-162110000D01*
X86333690Y-162110000D01*
X86329665Y-162111667D01*
X86260000Y-162097560D01*
X85810000Y-162097560D01*
X85706329Y-162117067D01*
X85610000Y-162097560D01*
X85416233Y-162097560D01*
X85272401Y-161882299D01*
X84095402Y-160705300D01*
X87596900Y-160705300D01*
X87887739Y-160647448D01*
X88134301Y-160482701D01*
X90387101Y-158229901D01*
X90551848Y-157983340D01*
X90609700Y-157692500D01*
X90609700Y-155391400D01*
X90559594Y-155139500D01*
X90551848Y-155100560D01*
X90387101Y-154853999D01*
X90215401Y-154682299D01*
X89968839Y-154517552D01*
X89678000Y-154459700D01*
X89283950Y-154459700D01*
X89256250Y-154432000D01*
X88507000Y-154432000D01*
X88507000Y-154452000D01*
X88253000Y-154452000D01*
X88253000Y-154432000D01*
X88233000Y-154432000D01*
X88233000Y-154178000D01*
X88253000Y-154178000D01*
X88253000Y-154158000D01*
X88507000Y-154158000D01*
X88507000Y-154178000D01*
X89256250Y-154178000D01*
X89415000Y-154019250D01*
X89415000Y-153987065D01*
X89553110Y-154081431D01*
X89805000Y-154132440D01*
X90305000Y-154132440D01*
X90540317Y-154088162D01*
X90756441Y-153949090D01*
X90804134Y-153879289D01*
X90840910Y-153936441D01*
X91053110Y-154081431D01*
X91305000Y-154132440D01*
X91805000Y-154132440D01*
X92040317Y-154088162D01*
X92114091Y-154040690D01*
X92130101Y-154047338D01*
X92502067Y-154047662D01*
X92845843Y-153905617D01*
X93109092Y-153642827D01*
X93251738Y-153299299D01*
X93251779Y-153252423D01*
X95876302Y-150627900D01*
X109200700Y-150627900D01*
X109491539Y-150570048D01*
X109738101Y-150405301D01*
X111176239Y-148967163D01*
X111255655Y-149129647D01*
G36*
X104002560Y-162707000D02*
X103797440Y-162707000D01*
X103797440Y-162413000D01*
X104002560Y-162413000D01*
X104002560Y-162707000D01*
X104002560Y-162707000D01*
G37*
X104002560Y-162707000D02*
X103797440Y-162707000D01*
X103797440Y-162413000D01*
X104002560Y-162413000D01*
X104002560Y-162707000D01*
G36*
X93241857Y-146315948D02*
X93202560Y-146510000D01*
X93202560Y-148410000D01*
X93237218Y-148594193D01*
X93164698Y-148521673D01*
X92931309Y-148425000D01*
X92590750Y-148425000D01*
X92432000Y-148583750D01*
X92432000Y-149733000D01*
X93281250Y-149733000D01*
X93440000Y-149574250D01*
X93440000Y-148933690D01*
X93419612Y-148884468D01*
X93598110Y-149006431D01*
X93850000Y-149057440D01*
X95150000Y-149057440D01*
X95385317Y-149013162D01*
X95601441Y-148874090D01*
X95746431Y-148661890D01*
X95797440Y-148410000D01*
X95797440Y-146760000D01*
X106852560Y-146760000D01*
X106852560Y-149107900D01*
X95561500Y-149107900D01*
X95270660Y-149165752D01*
X95024099Y-149330499D01*
X93349287Y-151005311D01*
X93440000Y-150786310D01*
X93440000Y-150145750D01*
X93281250Y-149987000D01*
X92432000Y-149987000D01*
X92432000Y-150007000D01*
X92178000Y-150007000D01*
X92178000Y-149987000D01*
X91328750Y-149987000D01*
X91170000Y-150145750D01*
X91170000Y-150755000D01*
X91028691Y-150755000D01*
X90913500Y-150802714D01*
X90913500Y-148933690D01*
X91170000Y-148933690D01*
X91170000Y-149574250D01*
X91328750Y-149733000D01*
X92178000Y-149733000D01*
X92178000Y-148583750D01*
X92019250Y-148425000D01*
X91678691Y-148425000D01*
X91445302Y-148521673D01*
X91266673Y-148700301D01*
X91170000Y-148933690D01*
X90913500Y-148933690D01*
X90913500Y-148905500D01*
X90861746Y-148645317D01*
X90855648Y-148614660D01*
X90690901Y-148368099D01*
X89355101Y-147032299D01*
X89108539Y-146867552D01*
X88817700Y-146809700D01*
X85174802Y-146809700D01*
X84579801Y-146214699D01*
X84333239Y-146049952D01*
X84042400Y-145992100D01*
X81056500Y-145992100D01*
X80813914Y-146040354D01*
X80765660Y-146049952D01*
X80519099Y-146214699D01*
X79557099Y-147176699D01*
X79392352Y-147423261D01*
X79334500Y-147714100D01*
X79334500Y-152539800D01*
X79392352Y-152830639D01*
X79557099Y-153077201D01*
X80052299Y-153572401D01*
X80298861Y-153737148D01*
X80326163Y-153742579D01*
X80450910Y-153936441D01*
X80663110Y-154081431D01*
X80915000Y-154132440D01*
X81415000Y-154132440D01*
X81547199Y-154107565D01*
X81547138Y-154178167D01*
X81689183Y-154521943D01*
X81806916Y-154639882D01*
X81637099Y-154809699D01*
X81472352Y-155056261D01*
X81414500Y-155347100D01*
X81414500Y-157615050D01*
X81284457Y-157668783D01*
X81217913Y-157735211D01*
X79790301Y-156307599D01*
X79543739Y-156142852D01*
X79252900Y-156085000D01*
X78932440Y-156085000D01*
X78932440Y-155995000D01*
X78912550Y-155889295D01*
X78920000Y-155871309D01*
X78920000Y-155803750D01*
X78890996Y-155774746D01*
X78888162Y-155759683D01*
X78749090Y-155543559D01*
X78604844Y-155445000D01*
X78761250Y-155445000D01*
X78920000Y-155286250D01*
X78920000Y-155218691D01*
X78859252Y-155072032D01*
X78876431Y-155046890D01*
X78927440Y-154795000D01*
X78927440Y-152695000D01*
X78883162Y-152459683D01*
X78744090Y-152243559D01*
X78531890Y-152098569D01*
X78280000Y-152047560D01*
X76527440Y-152047560D01*
X76527440Y-151945000D01*
X76483162Y-151709683D01*
X76344090Y-151493559D01*
X76131890Y-151348569D01*
X75880000Y-151297560D01*
X74370000Y-151297560D01*
X74370000Y-147028599D01*
X75099699Y-147028599D01*
X75363281Y-147666515D01*
X75850918Y-148155004D01*
X76488373Y-148419699D01*
X77178599Y-148420301D01*
X77816515Y-148156719D01*
X78305004Y-147669082D01*
X78569699Y-147031627D01*
X78570301Y-146341401D01*
X78306719Y-145703485D01*
X77819082Y-145214996D01*
X77181627Y-144950301D01*
X76491401Y-144949699D01*
X75853485Y-145213281D01*
X75364996Y-145700918D01*
X75100301Y-146338373D01*
X75099699Y-147028599D01*
X74370000Y-147028599D01*
X74370000Y-144220000D01*
X91145908Y-144220000D01*
X93241857Y-146315948D01*
X93241857Y-146315948D01*
G37*
X93241857Y-146315948D02*
X93202560Y-146510000D01*
X93202560Y-148410000D01*
X93237218Y-148594193D01*
X93164698Y-148521673D01*
X92931309Y-148425000D01*
X92590750Y-148425000D01*
X92432000Y-148583750D01*
X92432000Y-149733000D01*
X93281250Y-149733000D01*
X93440000Y-149574250D01*
X93440000Y-148933690D01*
X93419612Y-148884468D01*
X93598110Y-149006431D01*
X93850000Y-149057440D01*
X95150000Y-149057440D01*
X95385317Y-149013162D01*
X95601441Y-148874090D01*
X95746431Y-148661890D01*
X95797440Y-148410000D01*
X95797440Y-146760000D01*
X106852560Y-146760000D01*
X106852560Y-149107900D01*
X95561500Y-149107900D01*
X95270660Y-149165752D01*
X95024099Y-149330499D01*
X93349287Y-151005311D01*
X93440000Y-150786310D01*
X93440000Y-150145750D01*
X93281250Y-149987000D01*
X92432000Y-149987000D01*
X92432000Y-150007000D01*
X92178000Y-150007000D01*
X92178000Y-149987000D01*
X91328750Y-149987000D01*
X91170000Y-150145750D01*
X91170000Y-150755000D01*
X91028691Y-150755000D01*
X90913500Y-150802714D01*
X90913500Y-148933690D01*
X91170000Y-148933690D01*
X91170000Y-149574250D01*
X91328750Y-149733000D01*
X92178000Y-149733000D01*
X92178000Y-148583750D01*
X92019250Y-148425000D01*
X91678691Y-148425000D01*
X91445302Y-148521673D01*
X91266673Y-148700301D01*
X91170000Y-148933690D01*
X90913500Y-148933690D01*
X90913500Y-148905500D01*
X90861746Y-148645317D01*
X90855648Y-148614660D01*
X90690901Y-148368099D01*
X89355101Y-147032299D01*
X89108539Y-146867552D01*
X88817700Y-146809700D01*
X85174802Y-146809700D01*
X84579801Y-146214699D01*
X84333239Y-146049952D01*
X84042400Y-145992100D01*
X81056500Y-145992100D01*
X80813914Y-146040354D01*
X80765660Y-146049952D01*
X80519099Y-146214699D01*
X79557099Y-147176699D01*
X79392352Y-147423261D01*
X79334500Y-147714100D01*
X79334500Y-152539800D01*
X79392352Y-152830639D01*
X79557099Y-153077201D01*
X80052299Y-153572401D01*
X80298861Y-153737148D01*
X80326163Y-153742579D01*
X80450910Y-153936441D01*
X80663110Y-154081431D01*
X80915000Y-154132440D01*
X81415000Y-154132440D01*
X81547199Y-154107565D01*
X81547138Y-154178167D01*
X81689183Y-154521943D01*
X81806916Y-154639882D01*
X81637099Y-154809699D01*
X81472352Y-155056261D01*
X81414500Y-155347100D01*
X81414500Y-157615050D01*
X81284457Y-157668783D01*
X81217913Y-157735211D01*
X79790301Y-156307599D01*
X79543739Y-156142852D01*
X79252900Y-156085000D01*
X78932440Y-156085000D01*
X78932440Y-155995000D01*
X78912550Y-155889295D01*
X78920000Y-155871309D01*
X78920000Y-155803750D01*
X78890996Y-155774746D01*
X78888162Y-155759683D01*
X78749090Y-155543559D01*
X78604844Y-155445000D01*
X78761250Y-155445000D01*
X78920000Y-155286250D01*
X78920000Y-155218691D01*
X78859252Y-155072032D01*
X78876431Y-155046890D01*
X78927440Y-154795000D01*
X78927440Y-152695000D01*
X78883162Y-152459683D01*
X78744090Y-152243559D01*
X78531890Y-152098569D01*
X78280000Y-152047560D01*
X76527440Y-152047560D01*
X76527440Y-151945000D01*
X76483162Y-151709683D01*
X76344090Y-151493559D01*
X76131890Y-151348569D01*
X75880000Y-151297560D01*
X74370000Y-151297560D01*
X74370000Y-147028599D01*
X75099699Y-147028599D01*
X75363281Y-147666515D01*
X75850918Y-148155004D01*
X76488373Y-148419699D01*
X77178599Y-148420301D01*
X77816515Y-148156719D01*
X78305004Y-147669082D01*
X78569699Y-147031627D01*
X78570301Y-146341401D01*
X78306719Y-145703485D01*
X77819082Y-145214996D01*
X77181627Y-144950301D01*
X76491401Y-144949699D01*
X75853485Y-145213281D01*
X75364996Y-145700918D01*
X75100301Y-146338373D01*
X75099699Y-147028599D01*
X74370000Y-147028599D01*
X74370000Y-144220000D01*
X91145908Y-144220000D01*
X93241857Y-146315948D01*
G36*
X82790000Y-149098000D02*
X82812000Y-149098000D01*
X82812000Y-149352000D01*
X82790000Y-149352000D01*
X82790000Y-150151250D01*
X82792000Y-150153250D01*
X82792000Y-150368000D01*
X83541250Y-150368000D01*
X83700000Y-150209250D01*
X83700000Y-149993690D01*
X83603327Y-149760301D01*
X83550000Y-149706974D01*
X83550000Y-149510750D01*
X83391252Y-149352002D01*
X83550000Y-149352002D01*
X83550000Y-149230237D01*
X83596001Y-149249338D01*
X83862560Y-149249570D01*
X83862560Y-149395000D01*
X83906838Y-149630317D01*
X84045910Y-149846441D01*
X84100000Y-149883399D01*
X84100000Y-151104243D01*
X84058559Y-151130910D01*
X83913569Y-151343110D01*
X83862560Y-151595000D01*
X83862560Y-153095000D01*
X83899293Y-153290220D01*
X83704683Y-153326838D01*
X83562440Y-153418369D01*
X83562440Y-152585000D01*
X83555406Y-152547619D01*
X83603327Y-152499699D01*
X83700000Y-152266310D01*
X83700000Y-152050750D01*
X83541250Y-151892000D01*
X82792000Y-151892000D01*
X82792000Y-151912000D01*
X82538000Y-151912000D01*
X82538000Y-151892000D01*
X82518000Y-151892000D01*
X82518000Y-151638000D01*
X82538000Y-151638000D01*
X82538000Y-150622000D01*
X82792000Y-150622000D01*
X82792000Y-151638000D01*
X83541250Y-151638000D01*
X83700000Y-151479250D01*
X83700000Y-151263690D01*
X83644624Y-151130000D01*
X83700000Y-150996310D01*
X83700000Y-150780750D01*
X83541250Y-150622000D01*
X82792000Y-150622000D01*
X82538000Y-150622000D01*
X82518000Y-150622000D01*
X82518000Y-150368000D01*
X82538000Y-150368000D01*
X82538000Y-150153250D01*
X82540000Y-150151250D01*
X82540000Y-149352000D01*
X82518000Y-149352000D01*
X82518000Y-149226802D01*
X82666802Y-149078000D01*
X82790000Y-149078000D01*
X82790000Y-149098000D01*
X82790000Y-149098000D01*
G37*
X82790000Y-149098000D02*
X82812000Y-149098000D01*
X82812000Y-149352000D01*
X82790000Y-149352000D01*
X82790000Y-150151250D01*
X82792000Y-150153250D01*
X82792000Y-150368000D01*
X83541250Y-150368000D01*
X83700000Y-150209250D01*
X83700000Y-149993690D01*
X83603327Y-149760301D01*
X83550000Y-149706974D01*
X83550000Y-149510750D01*
X83391252Y-149352002D01*
X83550000Y-149352002D01*
X83550000Y-149230237D01*
X83596001Y-149249338D01*
X83862560Y-149249570D01*
X83862560Y-149395000D01*
X83906838Y-149630317D01*
X84045910Y-149846441D01*
X84100000Y-149883399D01*
X84100000Y-151104243D01*
X84058559Y-151130910D01*
X83913569Y-151343110D01*
X83862560Y-151595000D01*
X83862560Y-153095000D01*
X83899293Y-153290220D01*
X83704683Y-153326838D01*
X83562440Y-153418369D01*
X83562440Y-152585000D01*
X83555406Y-152547619D01*
X83603327Y-152499699D01*
X83700000Y-152266310D01*
X83700000Y-152050750D01*
X83541250Y-151892000D01*
X82792000Y-151892000D01*
X82792000Y-151912000D01*
X82538000Y-151912000D01*
X82538000Y-151892000D01*
X82518000Y-151892000D01*
X82518000Y-151638000D01*
X82538000Y-151638000D01*
X82538000Y-150622000D01*
X82792000Y-150622000D01*
X82792000Y-151638000D01*
X83541250Y-151638000D01*
X83700000Y-151479250D01*
X83700000Y-151263690D01*
X83644624Y-151130000D01*
X83700000Y-150996310D01*
X83700000Y-150780750D01*
X83541250Y-150622000D01*
X82792000Y-150622000D01*
X82538000Y-150622000D01*
X82518000Y-150622000D01*
X82518000Y-150368000D01*
X82538000Y-150368000D01*
X82538000Y-150153250D01*
X82540000Y-150151250D01*
X82540000Y-149352000D01*
X82518000Y-149352000D01*
X82518000Y-149226802D01*
X82666802Y-149078000D01*
X82790000Y-149078000D01*
X82790000Y-149098000D01*
G36*
X86487000Y-148518000D02*
X86507000Y-148518000D01*
X86507000Y-148697560D01*
X86487000Y-148697560D01*
X86487000Y-152292440D01*
X86507000Y-152292440D01*
X86507000Y-152472000D01*
X86487000Y-152472000D01*
X86487000Y-152492000D01*
X86233000Y-152492000D01*
X86233000Y-152472000D01*
X86213000Y-152472000D01*
X86213000Y-152292440D01*
X86233000Y-152292440D01*
X86233000Y-148697560D01*
X86213000Y-148697560D01*
X86213000Y-148518000D01*
X86233000Y-148518000D01*
X86233000Y-148498000D01*
X86487000Y-148498000D01*
X86487000Y-148518000D01*
X86487000Y-148518000D01*
G37*
X86487000Y-148518000D02*
X86507000Y-148518000D01*
X86507000Y-148697560D01*
X86487000Y-148697560D01*
X86487000Y-152292440D01*
X86507000Y-152292440D01*
X86507000Y-152472000D01*
X86487000Y-152472000D01*
X86487000Y-152492000D01*
X86233000Y-152492000D01*
X86233000Y-152472000D01*
X86213000Y-152472000D01*
X86213000Y-152292440D01*
X86233000Y-152292440D01*
X86233000Y-148697560D01*
X86213000Y-148697560D01*
X86213000Y-148518000D01*
X86233000Y-148518000D01*
X86233000Y-148498000D01*
X86487000Y-148498000D01*
X86487000Y-148518000D01*
G36*
X91682000Y-151638000D02*
X91702000Y-151638000D01*
X91702000Y-151892000D01*
X91682000Y-151892000D01*
X91682000Y-151912000D01*
X91428000Y-151912000D01*
X91428000Y-151892000D01*
X91408000Y-151892000D01*
X91408000Y-151638000D01*
X91428000Y-151638000D01*
X91428000Y-151618000D01*
X91682000Y-151618000D01*
X91682000Y-151638000D01*
X91682000Y-151638000D01*
G37*
X91682000Y-151638000D02*
X91702000Y-151638000D01*
X91702000Y-151892000D01*
X91682000Y-151892000D01*
X91682000Y-151912000D01*
X91428000Y-151912000D01*
X91428000Y-151892000D01*
X91408000Y-151892000D01*
X91408000Y-151638000D01*
X91428000Y-151638000D01*
X91428000Y-151618000D01*
X91682000Y-151618000D01*
X91682000Y-151638000D01*
G36*
X113127000Y-148717000D02*
X113107000Y-148717000D01*
X113107000Y-148737000D01*
X112853000Y-148737000D01*
X112853000Y-148717000D01*
X112833000Y-148717000D01*
X112833000Y-148574600D01*
X113127000Y-148574600D01*
X113127000Y-148717000D01*
X113127000Y-148717000D01*
G37*
X113127000Y-148717000D02*
X113107000Y-148717000D01*
X113107000Y-148737000D01*
X112853000Y-148737000D01*
X112853000Y-148717000D01*
X112833000Y-148717000D01*
X112833000Y-148574600D01*
X113127000Y-148574600D01*
X113127000Y-148717000D01*
M02*
