M48
;DRILL file {KiCad 4.0.7} date Wed Jan 24 20:33:33 2018
;FORMAT={3:3/ absolute / metric / suppress trailing zeros}
FMAT,2
METRIC,LZ
T1C0.400
T2C0.700
T3C0.762
T4C0.800
T5C1.000
%
G90
G05
M71
T1
X04675Y-0805
X0495Y-073
X0555Y-07125
X05675Y-07675
X05775Y-0715
X05825Y-07325
X05875Y-0845
X062Y-073
X062Y-08375
X06325Y-07225
X06525Y-08375
X0655Y-07075
X067Y-06475
X069Y-07475
X069Y-0765
X069Y-078
X0735Y-07625
X07625Y-071
X08075Y-07675
X08075Y-08225
X08175Y-0755
X083Y-0785
X086Y-0605
X09225Y-07875
X1035Y-108
X10575Y-11875
X106Y-09625
X1065Y-074
X107Y-0915
X11725Y-0565
X12325Y-10875
X13Y-06675
T2
X07112Y-07112
X07112Y-07874
X07874Y-04318
X07874Y-0508
X108585Y-04699
X108585Y-05461
X108585Y-06985
X108585Y-07747
X108585Y-09271
X108585Y-10033
X108585Y-114935
X108585Y-122555
X114935Y-04699
X114935Y-05461
X114935Y-06985
X114935Y-07747
X114935Y-09271
X114935Y-10033
X114935Y-114935
X114935Y-122555
X120015Y-051435
X12065Y-097155
X12192Y-069215
X12192Y-114935
X127635Y-051435
X12827Y-097155
X12954Y-069215
X12954Y-114935
X13208Y-08636
X13208Y-09398
X13335Y-069215
X13335Y-076835
T3
X06096Y-04445
X06096Y-04699
X06096Y-04953
X06096Y-05207
X06096Y-05715
X06096Y-05969
X06096Y-06223
T4
X05088Y-07493
X05261Y-08128
X05461Y-08128
X05588Y-07493
X060325Y-0889
X060325Y-09144
X060325Y-09398
X060325Y-09652
X067945Y-0889
X067945Y-09144
X067945Y-09398
X067945Y-09652
X06985Y-04318
X06985Y-04818
X06985Y-0508
X06985Y-0558
X07497Y-07366
X07497Y-08128
X07747Y-06477
X07747Y-07366
X07747Y-08128
X07755Y-0889
X07874Y-05842
X07874Y-09398
X08074Y-05842
X08074Y-09398
X08247Y-06477
X08255Y-0889
X08382Y-07366
X08382Y-07566
X09271Y-04826
X09271Y-05326
X09271Y-07112
X09271Y-07612
X09271Y-09398
X09271Y-09898
X093345Y-116205
X093345Y-121205
X097155Y-04699
X097155Y-05461
X097155Y-06985
X097155Y-07747
X097155Y-09271
X097155Y-10033
X097155Y-114935
X097155Y-122555
X099695Y-04318
X099695Y-04699
X099695Y-05461
X099695Y-065405
X099695Y-06985
X099695Y-07747
X099695Y-088265
X099695Y-09271
X099695Y-10033
X099695Y-111125
X099695Y-114935
X099695Y-122555
X101045Y-059055
X101045Y-081915
X101045Y-104775
X101045Y-127
X102195Y-04318
X102195Y-065405
X102195Y-088265
X102195Y-111125
X102235Y-04699
X102235Y-05461
X102235Y-06985
X102235Y-07747
X102235Y-09271
X102235Y-10033
X102235Y-114935
X102235Y-122555
X104775Y-04699
X104775Y-05461
X104775Y-06985
X104775Y-07747
X104775Y-09271
X104775Y-10033
X104775Y-114935
X104775Y-122555
X106045Y-059055
X106045Y-081915
X106045Y-104775
X106045Y-127
X11176Y-04826
X11176Y-05326
X11176Y-07112
X11176Y-07612
X11176Y-09398
X11176Y-09898
X11176Y-116205
X11176Y-121205
X11938Y-05842
X11938Y-06604
X11938Y-10414
X11938Y-11176
X12192Y-05842
X12192Y-06604
X12192Y-10414
X12192Y-11176
X122555Y-05461
X122555Y-10033
X12327Y-073025
X12327Y-118745
X12446Y-05842
X12446Y-06604
X12446Y-10414
X12446Y-11176
X127Y-05842
X127Y-06604
X127Y-10414
X127Y-11176
X127555Y-05461
X127555Y-10033
X12827Y-073025
X12827Y-118745
X13081Y-05977
X13081Y-06477
X13081Y-10549
X13081Y-11049
X131445Y-05207
X131445Y-05707
X13208Y-09779
X13208Y-10279
X135255Y-05977
X135255Y-06477
X135255Y-10549
X135255Y-11049
T5
X042545Y-0508
X042545Y-05334
X042545Y-05588
X042545Y-05842
X042545Y-06096
X042545Y-0635
X042545Y-06604
X042545Y-06858
X042545Y-07112
X042545Y-07366
X042545Y-0762
X042545Y-07874
X042545Y-08128
X042545Y-08382
X042545Y-08636
X042545Y-0889
X042545Y-09144
X042545Y-09398
X042545Y-09652
X042545Y-09906
X045085Y-0508
X045085Y-05334
X045085Y-05588
X045085Y-05842
X045085Y-06096
X045085Y-0635
X045085Y-06604
X045085Y-06858
X045085Y-07112
X045085Y-07366
X045085Y-0762
X045085Y-07874
X045085Y-08128
X045085Y-08382
X045085Y-08636
X045085Y-0889
X045085Y-09144
X045085Y-09398
X045085Y-09652
X045085Y-09906
X0508Y-04572
X0508Y-04826
X0508Y-0508
X0508Y-05334
X052705Y-064135
X052705Y-066675
X052705Y-069215
X075565Y-04318
X075565Y-04572
X075565Y-04826
X13716Y-083185
X13716Y-085725
X13716Y-088265
T0
M30
