G04 #@! TF.FileFunction,Legend,Top*
%FSLAX46Y46*%
G04 Gerber Fmt 4.6, Leading zero omitted, Abs format (unit mm)*
G04 Created by KiCad (PCBNEW 4.0.7) date Wed Jan 24 20:33:12 2018*
%MOMM*%
%LPD*%
G01*
G04 APERTURE LIST*
%ADD10C,0.100000*%
%ADD11C,0.300000*%
%ADD12C,0.120000*%
%ADD13C,0.150000*%
%ADD14C,1.600000*%
%ADD15R,1.600000X1.600000*%
%ADD16R,1.700000X1.700000*%
%ADD17O,1.700000X1.700000*%
%ADD18C,1.400000*%
%ADD19O,1.400000X1.400000*%
%ADD20O,1.600000X1.600000*%
%ADD21C,1.524000*%
%ADD22R,1.750000X0.450000*%
%ADD23C,3.200000*%
G04 APERTURE END LIST*
D10*
D11*
X51000001Y-134332143D02*
X51214287Y-134403571D01*
X51571430Y-134403571D01*
X51714287Y-134332143D01*
X51785716Y-134260714D01*
X51857144Y-134117857D01*
X51857144Y-133975000D01*
X51785716Y-133832143D01*
X51714287Y-133760714D01*
X51571430Y-133689286D01*
X51285716Y-133617857D01*
X51142858Y-133546429D01*
X51071430Y-133475000D01*
X51000001Y-133332143D01*
X51000001Y-133189286D01*
X51071430Y-133046429D01*
X51142858Y-132975000D01*
X51285716Y-132903571D01*
X51642858Y-132903571D01*
X51857144Y-132975000D01*
X52500001Y-133617857D02*
X53000001Y-133617857D01*
X53214287Y-134403571D02*
X52500001Y-134403571D01*
X52500001Y-132903571D01*
X53214287Y-132903571D01*
X54714287Y-134403571D02*
X54214287Y-133689286D01*
X53857144Y-134403571D02*
X53857144Y-132903571D01*
X54428572Y-132903571D01*
X54571430Y-132975000D01*
X54642858Y-133046429D01*
X54714287Y-133189286D01*
X54714287Y-133403571D01*
X54642858Y-133546429D01*
X54571430Y-133617857D01*
X54428572Y-133689286D01*
X53857144Y-133689286D01*
X55357144Y-134403571D02*
X55357144Y-132903571D01*
X56214287Y-134403571D01*
X56214287Y-132903571D01*
X58071430Y-134403571D02*
X58071430Y-132903571D01*
X58642858Y-132903571D01*
X58785716Y-132975000D01*
X58857144Y-133046429D01*
X58928573Y-133189286D01*
X58928573Y-133403571D01*
X58857144Y-133546429D01*
X58785716Y-133617857D01*
X58642858Y-133689286D01*
X58071430Y-133689286D01*
X60428573Y-134403571D02*
X59928573Y-133689286D01*
X59571430Y-134403571D02*
X59571430Y-132903571D01*
X60142858Y-132903571D01*
X60285716Y-132975000D01*
X60357144Y-133046429D01*
X60428573Y-133189286D01*
X60428573Y-133403571D01*
X60357144Y-133546429D01*
X60285716Y-133617857D01*
X60142858Y-133689286D01*
X59571430Y-133689286D01*
X61357144Y-132903571D02*
X61642858Y-132903571D01*
X61785716Y-132975000D01*
X61928573Y-133117857D01*
X62000001Y-133403571D01*
X62000001Y-133903571D01*
X61928573Y-134189286D01*
X61785716Y-134332143D01*
X61642858Y-134403571D01*
X61357144Y-134403571D01*
X61214287Y-134332143D01*
X61071430Y-134189286D01*
X61000001Y-133903571D01*
X61000001Y-133403571D01*
X61071430Y-133117857D01*
X61214287Y-132975000D01*
X61357144Y-132903571D01*
X63071430Y-132903571D02*
X63071430Y-133975000D01*
X63000002Y-134189286D01*
X62857145Y-134332143D01*
X62642859Y-134403571D01*
X62500002Y-134403571D01*
X63785716Y-133617857D02*
X64285716Y-133617857D01*
X64500002Y-134403571D02*
X63785716Y-134403571D01*
X63785716Y-132903571D01*
X64500002Y-132903571D01*
X66000002Y-134260714D02*
X65928573Y-134332143D01*
X65714287Y-134403571D01*
X65571430Y-134403571D01*
X65357145Y-134332143D01*
X65214287Y-134189286D01*
X65142859Y-134046429D01*
X65071430Y-133760714D01*
X65071430Y-133546429D01*
X65142859Y-133260714D01*
X65214287Y-133117857D01*
X65357145Y-132975000D01*
X65571430Y-132903571D01*
X65714287Y-132903571D01*
X65928573Y-132975000D01*
X66000002Y-133046429D01*
X66428573Y-132903571D02*
X67285716Y-132903571D01*
X66857145Y-134403571D02*
X66857145Y-132903571D01*
X68857144Y-133046429D02*
X68928573Y-132975000D01*
X69071430Y-132903571D01*
X69428573Y-132903571D01*
X69571430Y-132975000D01*
X69642859Y-133046429D01*
X69714287Y-133189286D01*
X69714287Y-133332143D01*
X69642859Y-133546429D01*
X68785716Y-134403571D01*
X69714287Y-134403571D01*
X70642858Y-132903571D02*
X70785715Y-132903571D01*
X70928572Y-132975000D01*
X71000001Y-133046429D01*
X71071430Y-133189286D01*
X71142858Y-133475000D01*
X71142858Y-133832143D01*
X71071430Y-134117857D01*
X71000001Y-134260714D01*
X70928572Y-134332143D01*
X70785715Y-134403571D01*
X70642858Y-134403571D01*
X70500001Y-134332143D01*
X70428572Y-134260714D01*
X70357144Y-134117857D01*
X70285715Y-133832143D01*
X70285715Y-133475000D01*
X70357144Y-133189286D01*
X70428572Y-133046429D01*
X70500001Y-132975000D01*
X70642858Y-132903571D01*
X72571429Y-134403571D02*
X71714286Y-134403571D01*
X72142858Y-134403571D02*
X72142858Y-132903571D01*
X72000001Y-133117857D01*
X71857143Y-133260714D01*
X71714286Y-133332143D01*
X73428572Y-133546429D02*
X73285714Y-133475000D01*
X73214286Y-133403571D01*
X73142857Y-133260714D01*
X73142857Y-133189286D01*
X73214286Y-133046429D01*
X73285714Y-132975000D01*
X73428572Y-132903571D01*
X73714286Y-132903571D01*
X73857143Y-132975000D01*
X73928572Y-133046429D01*
X74000000Y-133189286D01*
X74000000Y-133260714D01*
X73928572Y-133403571D01*
X73857143Y-133475000D01*
X73714286Y-133546429D01*
X73428572Y-133546429D01*
X73285714Y-133617857D01*
X73214286Y-133689286D01*
X73142857Y-133832143D01*
X73142857Y-134117857D01*
X73214286Y-134260714D01*
X73285714Y-134332143D01*
X73428572Y-134403571D01*
X73714286Y-134403571D01*
X73857143Y-134332143D01*
X73928572Y-134260714D01*
X74000000Y-134117857D01*
X74000000Y-133832143D01*
X73928572Y-133689286D01*
X73857143Y-133617857D01*
X73714286Y-133546429D01*
X52607143Y-136953571D02*
X52607143Y-135453571D01*
X52964286Y-135453571D01*
X53178571Y-135525000D01*
X53321429Y-135667857D01*
X53392857Y-135810714D01*
X53464286Y-136096429D01*
X53464286Y-136310714D01*
X53392857Y-136596429D01*
X53321429Y-136739286D01*
X53178571Y-136882143D01*
X52964286Y-136953571D01*
X52607143Y-136953571D01*
X54678571Y-136882143D02*
X54535714Y-136953571D01*
X54250000Y-136953571D01*
X54107143Y-136882143D01*
X54035714Y-136739286D01*
X54035714Y-136167857D01*
X54107143Y-136025000D01*
X54250000Y-135953571D01*
X54535714Y-135953571D01*
X54678571Y-136025000D01*
X54750000Y-136167857D01*
X54750000Y-136310714D01*
X54035714Y-136453571D01*
X55321428Y-136882143D02*
X55464285Y-136953571D01*
X55750000Y-136953571D01*
X55892857Y-136882143D01*
X55964285Y-136739286D01*
X55964285Y-136667857D01*
X55892857Y-136525000D01*
X55750000Y-136453571D01*
X55535714Y-136453571D01*
X55392857Y-136382143D01*
X55321428Y-136239286D01*
X55321428Y-136167857D01*
X55392857Y-136025000D01*
X55535714Y-135953571D01*
X55750000Y-135953571D01*
X55892857Y-136025000D01*
X56607143Y-136953571D02*
X56607143Y-135953571D01*
X56607143Y-135453571D02*
X56535714Y-135525000D01*
X56607143Y-135596429D01*
X56678571Y-135525000D01*
X56607143Y-135453571D01*
X56607143Y-135596429D01*
X57964286Y-135953571D02*
X57964286Y-137167857D01*
X57892857Y-137310714D01*
X57821429Y-137382143D01*
X57678572Y-137453571D01*
X57464286Y-137453571D01*
X57321429Y-137382143D01*
X57964286Y-136882143D02*
X57821429Y-136953571D01*
X57535715Y-136953571D01*
X57392857Y-136882143D01*
X57321429Y-136810714D01*
X57250000Y-136667857D01*
X57250000Y-136239286D01*
X57321429Y-136096429D01*
X57392857Y-136025000D01*
X57535715Y-135953571D01*
X57821429Y-135953571D01*
X57964286Y-136025000D01*
X58678572Y-135953571D02*
X58678572Y-136953571D01*
X58678572Y-136096429D02*
X58750000Y-136025000D01*
X58892858Y-135953571D01*
X59107143Y-135953571D01*
X59250000Y-136025000D01*
X59321429Y-136167857D01*
X59321429Y-136953571D01*
X60607143Y-136882143D02*
X60464286Y-136953571D01*
X60178572Y-136953571D01*
X60035715Y-136882143D01*
X59964286Y-136739286D01*
X59964286Y-136167857D01*
X60035715Y-136025000D01*
X60178572Y-135953571D01*
X60464286Y-135953571D01*
X60607143Y-136025000D01*
X60678572Y-136167857D01*
X60678572Y-136310714D01*
X59964286Y-136453571D01*
X61964286Y-136953571D02*
X61964286Y-135453571D01*
X61964286Y-136882143D02*
X61821429Y-136953571D01*
X61535715Y-136953571D01*
X61392857Y-136882143D01*
X61321429Y-136810714D01*
X61250000Y-136667857D01*
X61250000Y-136239286D01*
X61321429Y-136096429D01*
X61392857Y-136025000D01*
X61535715Y-135953571D01*
X61821429Y-135953571D01*
X61964286Y-136025000D01*
X63821429Y-136953571D02*
X63821429Y-135953571D01*
X63821429Y-135453571D02*
X63750000Y-135525000D01*
X63821429Y-135596429D01*
X63892857Y-135525000D01*
X63821429Y-135453571D01*
X63821429Y-135596429D01*
X64535715Y-135953571D02*
X64535715Y-136953571D01*
X64535715Y-136096429D02*
X64607143Y-136025000D01*
X64750001Y-135953571D01*
X64964286Y-135953571D01*
X65107143Y-136025000D01*
X65178572Y-136167857D01*
X65178572Y-136953571D01*
X67035715Y-136953571D02*
X67035715Y-135453571D01*
X67892858Y-136953571D01*
X67892858Y-135453571D01*
X68607144Y-136953571D02*
X68607144Y-135453571D01*
X69107144Y-135453571D02*
X69964287Y-135453571D01*
X69535716Y-136953571D02*
X69535716Y-135453571D01*
X70250001Y-135453571D02*
X71107144Y-135453571D01*
X70678573Y-136953571D02*
X70678573Y-135453571D01*
X72464287Y-136810714D02*
X72392858Y-136882143D01*
X72178572Y-136953571D01*
X72035715Y-136953571D01*
X71821430Y-136882143D01*
X71678572Y-136739286D01*
X71607144Y-136596429D01*
X71535715Y-136310714D01*
X71535715Y-136096429D01*
X71607144Y-135810714D01*
X71678572Y-135667857D01*
X71821430Y-135525000D01*
X72035715Y-135453571D01*
X72178572Y-135453571D01*
X72392858Y-135525000D01*
X72464287Y-135596429D01*
D12*
X94655000Y-116145000D02*
X94655000Y-121265000D01*
X92035000Y-116145000D02*
X92035000Y-121265000D01*
X94655000Y-116145000D02*
X94341000Y-116145000D01*
X92349000Y-116145000D02*
X92035000Y-116145000D01*
X94655000Y-121265000D02*
X94341000Y-121265000D01*
X92349000Y-121265000D02*
X92035000Y-121265000D01*
X82610000Y-90210000D02*
X77490000Y-90210000D01*
X82610000Y-87590000D02*
X77490000Y-87590000D01*
X82610000Y-90210000D02*
X82610000Y-89896000D01*
X82610000Y-87904000D02*
X82610000Y-87590000D01*
X77490000Y-90210000D02*
X77490000Y-89896000D01*
X77490000Y-87904000D02*
X77490000Y-87590000D01*
X77410000Y-63460000D02*
X82530000Y-63460000D01*
X77410000Y-66080000D02*
X82530000Y-66080000D01*
X77410000Y-63460000D02*
X77410000Y-63774000D01*
X77410000Y-65766000D02*
X77410000Y-66080000D01*
X82530000Y-63460000D02*
X82530000Y-63774000D01*
X82530000Y-65766000D02*
X82530000Y-66080000D01*
X82045722Y-57240277D02*
G75*
G03X77434420Y-57240000I-2305722J-1179723D01*
G01*
X82045722Y-59599723D02*
G75*
G02X77434420Y-59600000I-2305722J1179723D01*
G01*
X82045722Y-59599723D02*
G75*
G03X82045580Y-57240000I-2305722J1179723D01*
G01*
X79740000Y-55870000D02*
X79740000Y-60970000D01*
X79780000Y-55870000D02*
X79780000Y-57440000D01*
X79780000Y-59400000D02*
X79780000Y-60970000D01*
X79820000Y-55871000D02*
X79820000Y-57440000D01*
X79820000Y-59400000D02*
X79820000Y-60969000D01*
X79860000Y-55872000D02*
X79860000Y-57440000D01*
X79860000Y-59400000D02*
X79860000Y-60968000D01*
X79900000Y-55874000D02*
X79900000Y-57440000D01*
X79900000Y-59400000D02*
X79900000Y-60966000D01*
X79940000Y-55877000D02*
X79940000Y-57440000D01*
X79940000Y-59400000D02*
X79940000Y-60963000D01*
X79980000Y-55881000D02*
X79980000Y-57440000D01*
X79980000Y-59400000D02*
X79980000Y-60959000D01*
X80020000Y-55885000D02*
X80020000Y-57440000D01*
X80020000Y-59400000D02*
X80020000Y-60955000D01*
X80060000Y-55889000D02*
X80060000Y-57440000D01*
X80060000Y-59400000D02*
X80060000Y-60951000D01*
X80100000Y-55895000D02*
X80100000Y-57440000D01*
X80100000Y-59400000D02*
X80100000Y-60945000D01*
X80140000Y-55901000D02*
X80140000Y-57440000D01*
X80140000Y-59400000D02*
X80140000Y-60939000D01*
X80180000Y-55907000D02*
X80180000Y-57440000D01*
X80180000Y-59400000D02*
X80180000Y-60933000D01*
X80220000Y-55914000D02*
X80220000Y-57440000D01*
X80220000Y-59400000D02*
X80220000Y-60926000D01*
X80260000Y-55922000D02*
X80260000Y-57440000D01*
X80260000Y-59400000D02*
X80260000Y-60918000D01*
X80300000Y-55931000D02*
X80300000Y-57440000D01*
X80300000Y-59400000D02*
X80300000Y-60909000D01*
X80340000Y-55940000D02*
X80340000Y-57440000D01*
X80340000Y-59400000D02*
X80340000Y-60900000D01*
X80380000Y-55950000D02*
X80380000Y-57440000D01*
X80380000Y-59400000D02*
X80380000Y-60890000D01*
X80420000Y-55960000D02*
X80420000Y-57440000D01*
X80420000Y-59400000D02*
X80420000Y-60880000D01*
X80461000Y-55972000D02*
X80461000Y-57440000D01*
X80461000Y-59400000D02*
X80461000Y-60868000D01*
X80501000Y-55984000D02*
X80501000Y-57440000D01*
X80501000Y-59400000D02*
X80501000Y-60856000D01*
X80541000Y-55996000D02*
X80541000Y-57440000D01*
X80541000Y-59400000D02*
X80541000Y-60844000D01*
X80581000Y-56010000D02*
X80581000Y-57440000D01*
X80581000Y-59400000D02*
X80581000Y-60830000D01*
X80621000Y-56024000D02*
X80621000Y-57440000D01*
X80621000Y-59400000D02*
X80621000Y-60816000D01*
X80661000Y-56038000D02*
X80661000Y-57440000D01*
X80661000Y-59400000D02*
X80661000Y-60802000D01*
X80701000Y-56054000D02*
X80701000Y-57440000D01*
X80701000Y-59400000D02*
X80701000Y-60786000D01*
X80741000Y-56070000D02*
X80741000Y-57440000D01*
X80741000Y-59400000D02*
X80741000Y-60770000D01*
X80781000Y-56087000D02*
X80781000Y-57440000D01*
X80781000Y-59400000D02*
X80781000Y-60753000D01*
X80821000Y-56105000D02*
X80821000Y-57440000D01*
X80821000Y-59400000D02*
X80821000Y-60735000D01*
X80861000Y-56124000D02*
X80861000Y-57440000D01*
X80861000Y-59400000D02*
X80861000Y-60716000D01*
X80901000Y-56144000D02*
X80901000Y-57440000D01*
X80901000Y-59400000D02*
X80901000Y-60696000D01*
X80941000Y-56164000D02*
X80941000Y-57440000D01*
X80941000Y-59400000D02*
X80941000Y-60676000D01*
X80981000Y-56186000D02*
X80981000Y-57440000D01*
X80981000Y-59400000D02*
X80981000Y-60654000D01*
X81021000Y-56208000D02*
X81021000Y-57440000D01*
X81021000Y-59400000D02*
X81021000Y-60632000D01*
X81061000Y-56231000D02*
X81061000Y-57440000D01*
X81061000Y-59400000D02*
X81061000Y-60609000D01*
X81101000Y-56255000D02*
X81101000Y-57440000D01*
X81101000Y-59400000D02*
X81101000Y-60585000D01*
X81141000Y-56280000D02*
X81141000Y-57440000D01*
X81141000Y-59400000D02*
X81141000Y-60560000D01*
X81181000Y-56307000D02*
X81181000Y-57440000D01*
X81181000Y-59400000D02*
X81181000Y-60533000D01*
X81221000Y-56334000D02*
X81221000Y-57440000D01*
X81221000Y-59400000D02*
X81221000Y-60506000D01*
X81261000Y-56362000D02*
X81261000Y-57440000D01*
X81261000Y-59400000D02*
X81261000Y-60478000D01*
X81301000Y-56392000D02*
X81301000Y-57440000D01*
X81301000Y-59400000D02*
X81301000Y-60448000D01*
X81341000Y-56423000D02*
X81341000Y-57440000D01*
X81341000Y-59400000D02*
X81341000Y-60417000D01*
X81381000Y-56455000D02*
X81381000Y-57440000D01*
X81381000Y-59400000D02*
X81381000Y-60385000D01*
X81421000Y-56488000D02*
X81421000Y-57440000D01*
X81421000Y-59400000D02*
X81421000Y-60352000D01*
X81461000Y-56523000D02*
X81461000Y-57440000D01*
X81461000Y-59400000D02*
X81461000Y-60317000D01*
X81501000Y-56559000D02*
X81501000Y-57440000D01*
X81501000Y-59400000D02*
X81501000Y-60281000D01*
X81541000Y-56597000D02*
X81541000Y-57440000D01*
X81541000Y-59400000D02*
X81541000Y-60243000D01*
X81581000Y-56637000D02*
X81581000Y-57440000D01*
X81581000Y-59400000D02*
X81581000Y-60203000D01*
X81621000Y-56678000D02*
X81621000Y-57440000D01*
X81621000Y-59400000D02*
X81621000Y-60162000D01*
X81661000Y-56721000D02*
X81661000Y-57440000D01*
X81661000Y-59400000D02*
X81661000Y-60119000D01*
X81701000Y-56766000D02*
X81701000Y-57440000D01*
X81701000Y-59400000D02*
X81701000Y-60074000D01*
X81741000Y-56814000D02*
X81741000Y-60026000D01*
X81781000Y-56864000D02*
X81781000Y-59976000D01*
X81821000Y-56916000D02*
X81821000Y-59924000D01*
X81861000Y-56972000D02*
X81861000Y-59868000D01*
X81901000Y-57030000D02*
X81901000Y-59810000D01*
X81941000Y-57093000D02*
X81941000Y-59747000D01*
X81981000Y-57159000D02*
X81981000Y-59681000D01*
X82021000Y-57231000D02*
X82021000Y-59609000D01*
X82061000Y-57308000D02*
X82061000Y-59532000D01*
X82101000Y-57392000D02*
X82101000Y-59448000D01*
X82141000Y-57486000D02*
X82141000Y-59354000D01*
X82181000Y-57591000D02*
X82181000Y-59249000D01*
X82221000Y-57713000D02*
X82221000Y-59127000D01*
X82261000Y-57861000D02*
X82261000Y-58979000D01*
X82301000Y-58066000D02*
X82301000Y-58774000D01*
X76540000Y-58420000D02*
X77740000Y-58420000D01*
X77140000Y-57770000D02*
X77140000Y-59070000D01*
X129500000Y-110550000D02*
X129500000Y-105430000D01*
X132120000Y-110550000D02*
X132120000Y-105430000D01*
X129500000Y-110550000D02*
X129814000Y-110550000D01*
X131806000Y-110550000D02*
X132120000Y-110550000D01*
X129500000Y-105430000D02*
X129814000Y-105430000D01*
X131806000Y-105430000D02*
X132120000Y-105430000D01*
X133890000Y-96730000D02*
X133890000Y-103850000D01*
X130270000Y-96730000D02*
X130270000Y-103850000D01*
X133890000Y-96730000D02*
X130270000Y-96730000D01*
X133890000Y-103850000D02*
X130270000Y-103850000D01*
X94020000Y-71060000D02*
X94020000Y-76180000D01*
X91400000Y-71060000D02*
X91400000Y-76180000D01*
X94020000Y-71060000D02*
X93706000Y-71060000D01*
X91714000Y-71060000D02*
X91400000Y-71060000D01*
X94020000Y-76180000D02*
X93706000Y-76180000D01*
X91714000Y-76180000D02*
X91400000Y-76180000D01*
X133255000Y-51010000D02*
X133255000Y-58130000D01*
X129635000Y-51010000D02*
X129635000Y-58130000D01*
X133255000Y-51010000D02*
X129635000Y-51010000D01*
X133255000Y-58130000D02*
X129635000Y-58130000D01*
X76895000Y-41850000D02*
X74235000Y-41850000D01*
X76895000Y-46990000D02*
X76895000Y-41850000D01*
X74235000Y-46990000D02*
X74235000Y-41850000D01*
X76895000Y-46990000D02*
X74235000Y-46990000D01*
X76895000Y-48260000D02*
X76895000Y-49590000D01*
X76895000Y-49590000D02*
X75565000Y-49590000D01*
X79600000Y-45130000D02*
X77880000Y-45130000D01*
X77880000Y-45130000D02*
X77880000Y-48850000D01*
X77880000Y-48850000D02*
X79600000Y-48850000D01*
X79600000Y-48850000D02*
X79600000Y-45130000D01*
X78740000Y-44060000D02*
X78740000Y-45130000D01*
X78740000Y-49920000D02*
X78740000Y-48850000D01*
X109445000Y-116885000D02*
X107725000Y-116885000D01*
X107725000Y-116885000D02*
X107725000Y-120605000D01*
X107725000Y-120605000D02*
X109445000Y-120605000D01*
X109445000Y-120605000D02*
X109445000Y-116885000D01*
X108585000Y-115815000D02*
X108585000Y-116885000D01*
X108585000Y-121675000D02*
X108585000Y-120605000D01*
X95825000Y-117745000D02*
G75*
G02X95825000Y-119745000I0J-1000000D01*
G01*
X95825000Y-119745000D02*
X95825000Y-121395000D01*
X95825000Y-121395000D02*
X106105000Y-121395000D01*
X106105000Y-121395000D02*
X106105000Y-116095000D01*
X106105000Y-116095000D02*
X95825000Y-116095000D01*
X95825000Y-116095000D02*
X95825000Y-117745000D01*
X95765000Y-123885000D02*
X106165000Y-123885000D01*
X106165000Y-123885000D02*
X106165000Y-113605000D01*
X106165000Y-113605000D02*
X95765000Y-113605000D01*
X95765000Y-113605000D02*
X95765000Y-123885000D01*
X95825000Y-95520000D02*
G75*
G02X95825000Y-97520000I0J-1000000D01*
G01*
X95825000Y-97520000D02*
X95825000Y-99170000D01*
X95825000Y-99170000D02*
X106105000Y-99170000D01*
X106105000Y-99170000D02*
X106105000Y-93870000D01*
X106105000Y-93870000D02*
X95825000Y-93870000D01*
X95825000Y-93870000D02*
X95825000Y-95520000D01*
X95765000Y-101660000D02*
X106165000Y-101660000D01*
X106165000Y-101660000D02*
X106165000Y-91380000D01*
X106165000Y-91380000D02*
X95765000Y-91380000D01*
X95765000Y-91380000D02*
X95765000Y-101660000D01*
X118050000Y-106950000D02*
G75*
G02X118050000Y-108950000I0J-1000000D01*
G01*
X118050000Y-108950000D02*
X118050000Y-110600000D01*
X118050000Y-110600000D02*
X128330000Y-110600000D01*
X128330000Y-110600000D02*
X128330000Y-105300000D01*
X128330000Y-105300000D02*
X118050000Y-105300000D01*
X118050000Y-105300000D02*
X118050000Y-106950000D01*
X117990000Y-113090000D02*
X128390000Y-113090000D01*
X128390000Y-113090000D02*
X128390000Y-102810000D01*
X128390000Y-102810000D02*
X117990000Y-102810000D01*
X117990000Y-102810000D02*
X117990000Y-113090000D01*
X95825000Y-72660000D02*
G75*
G02X95825000Y-74660000I0J-1000000D01*
G01*
X95825000Y-74660000D02*
X95825000Y-76310000D01*
X95825000Y-76310000D02*
X106105000Y-76310000D01*
X106105000Y-76310000D02*
X106105000Y-71010000D01*
X106105000Y-71010000D02*
X95825000Y-71010000D01*
X95825000Y-71010000D02*
X95825000Y-72660000D01*
X95765000Y-78800000D02*
X106165000Y-78800000D01*
X106165000Y-78800000D02*
X106165000Y-68520000D01*
X106165000Y-68520000D02*
X95765000Y-68520000D01*
X95765000Y-68520000D02*
X95765000Y-78800000D01*
X118050000Y-61230000D02*
G75*
G02X118050000Y-63230000I0J-1000000D01*
G01*
X118050000Y-63230000D02*
X118050000Y-64880000D01*
X118050000Y-64880000D02*
X128330000Y-64880000D01*
X128330000Y-64880000D02*
X128330000Y-59580000D01*
X128330000Y-59580000D02*
X118050000Y-59580000D01*
X118050000Y-59580000D02*
X118050000Y-61230000D01*
X117990000Y-67370000D02*
X128390000Y-67370000D01*
X128390000Y-67370000D02*
X128390000Y-57090000D01*
X128390000Y-57090000D02*
X117990000Y-57090000D01*
X117990000Y-57090000D02*
X117990000Y-67370000D01*
X71160000Y-43120000D02*
X71160000Y-48240000D01*
X68540000Y-43120000D02*
X68540000Y-48240000D01*
X71160000Y-43120000D02*
X70846000Y-43120000D01*
X68854000Y-43120000D02*
X68540000Y-43120000D01*
X71160000Y-48240000D02*
X70846000Y-48240000D01*
X68854000Y-48240000D02*
X68540000Y-48240000D01*
X71160000Y-50740000D02*
X71160000Y-55860000D01*
X68540000Y-50740000D02*
X68540000Y-55860000D01*
X71160000Y-50740000D02*
X70846000Y-50740000D01*
X68854000Y-50740000D02*
X68540000Y-50740000D01*
X71160000Y-55860000D02*
X70846000Y-55860000D01*
X68854000Y-55860000D02*
X68540000Y-55860000D01*
X55940000Y-76240000D02*
X50820000Y-76240000D01*
X55940000Y-73620000D02*
X50820000Y-73620000D01*
X55940000Y-76240000D02*
X55940000Y-75926000D01*
X55940000Y-73934000D02*
X55940000Y-73620000D01*
X50820000Y-76240000D02*
X50820000Y-75926000D01*
X50820000Y-73934000D02*
X50820000Y-73620000D01*
X51304278Y-82459723D02*
G75*
G03X55915580Y-82460000I2305722J1179723D01*
G01*
X51304278Y-80100277D02*
G75*
G02X55915580Y-80100000I2305722J-1179723D01*
G01*
X51304278Y-80100277D02*
G75*
G03X51304420Y-82460000I2305722J-1179723D01*
G01*
X53610000Y-83830000D02*
X53610000Y-78730000D01*
X53570000Y-83830000D02*
X53570000Y-82260000D01*
X53570000Y-80300000D02*
X53570000Y-78730000D01*
X53530000Y-83829000D02*
X53530000Y-82260000D01*
X53530000Y-80300000D02*
X53530000Y-78731000D01*
X53490000Y-83828000D02*
X53490000Y-82260000D01*
X53490000Y-80300000D02*
X53490000Y-78732000D01*
X53450000Y-83826000D02*
X53450000Y-82260000D01*
X53450000Y-80300000D02*
X53450000Y-78734000D01*
X53410000Y-83823000D02*
X53410000Y-82260000D01*
X53410000Y-80300000D02*
X53410000Y-78737000D01*
X53370000Y-83819000D02*
X53370000Y-82260000D01*
X53370000Y-80300000D02*
X53370000Y-78741000D01*
X53330000Y-83815000D02*
X53330000Y-82260000D01*
X53330000Y-80300000D02*
X53330000Y-78745000D01*
X53290000Y-83811000D02*
X53290000Y-82260000D01*
X53290000Y-80300000D02*
X53290000Y-78749000D01*
X53250000Y-83805000D02*
X53250000Y-82260000D01*
X53250000Y-80300000D02*
X53250000Y-78755000D01*
X53210000Y-83799000D02*
X53210000Y-82260000D01*
X53210000Y-80300000D02*
X53210000Y-78761000D01*
X53170000Y-83793000D02*
X53170000Y-82260000D01*
X53170000Y-80300000D02*
X53170000Y-78767000D01*
X53130000Y-83786000D02*
X53130000Y-82260000D01*
X53130000Y-80300000D02*
X53130000Y-78774000D01*
X53090000Y-83778000D02*
X53090000Y-82260000D01*
X53090000Y-80300000D02*
X53090000Y-78782000D01*
X53050000Y-83769000D02*
X53050000Y-82260000D01*
X53050000Y-80300000D02*
X53050000Y-78791000D01*
X53010000Y-83760000D02*
X53010000Y-82260000D01*
X53010000Y-80300000D02*
X53010000Y-78800000D01*
X52970000Y-83750000D02*
X52970000Y-82260000D01*
X52970000Y-80300000D02*
X52970000Y-78810000D01*
X52930000Y-83740000D02*
X52930000Y-82260000D01*
X52930000Y-80300000D02*
X52930000Y-78820000D01*
X52889000Y-83728000D02*
X52889000Y-82260000D01*
X52889000Y-80300000D02*
X52889000Y-78832000D01*
X52849000Y-83716000D02*
X52849000Y-82260000D01*
X52849000Y-80300000D02*
X52849000Y-78844000D01*
X52809000Y-83704000D02*
X52809000Y-82260000D01*
X52809000Y-80300000D02*
X52809000Y-78856000D01*
X52769000Y-83690000D02*
X52769000Y-82260000D01*
X52769000Y-80300000D02*
X52769000Y-78870000D01*
X52729000Y-83676000D02*
X52729000Y-82260000D01*
X52729000Y-80300000D02*
X52729000Y-78884000D01*
X52689000Y-83662000D02*
X52689000Y-82260000D01*
X52689000Y-80300000D02*
X52689000Y-78898000D01*
X52649000Y-83646000D02*
X52649000Y-82260000D01*
X52649000Y-80300000D02*
X52649000Y-78914000D01*
X52609000Y-83630000D02*
X52609000Y-82260000D01*
X52609000Y-80300000D02*
X52609000Y-78930000D01*
X52569000Y-83613000D02*
X52569000Y-82260000D01*
X52569000Y-80300000D02*
X52569000Y-78947000D01*
X52529000Y-83595000D02*
X52529000Y-82260000D01*
X52529000Y-80300000D02*
X52529000Y-78965000D01*
X52489000Y-83576000D02*
X52489000Y-82260000D01*
X52489000Y-80300000D02*
X52489000Y-78984000D01*
X52449000Y-83556000D02*
X52449000Y-82260000D01*
X52449000Y-80300000D02*
X52449000Y-79004000D01*
X52409000Y-83536000D02*
X52409000Y-82260000D01*
X52409000Y-80300000D02*
X52409000Y-79024000D01*
X52369000Y-83514000D02*
X52369000Y-82260000D01*
X52369000Y-80300000D02*
X52369000Y-79046000D01*
X52329000Y-83492000D02*
X52329000Y-82260000D01*
X52329000Y-80300000D02*
X52329000Y-79068000D01*
X52289000Y-83469000D02*
X52289000Y-82260000D01*
X52289000Y-80300000D02*
X52289000Y-79091000D01*
X52249000Y-83445000D02*
X52249000Y-82260000D01*
X52249000Y-80300000D02*
X52249000Y-79115000D01*
X52209000Y-83420000D02*
X52209000Y-82260000D01*
X52209000Y-80300000D02*
X52209000Y-79140000D01*
X52169000Y-83393000D02*
X52169000Y-82260000D01*
X52169000Y-80300000D02*
X52169000Y-79167000D01*
X52129000Y-83366000D02*
X52129000Y-82260000D01*
X52129000Y-80300000D02*
X52129000Y-79194000D01*
X52089000Y-83338000D02*
X52089000Y-82260000D01*
X52089000Y-80300000D02*
X52089000Y-79222000D01*
X52049000Y-83308000D02*
X52049000Y-82260000D01*
X52049000Y-80300000D02*
X52049000Y-79252000D01*
X52009000Y-83277000D02*
X52009000Y-82260000D01*
X52009000Y-80300000D02*
X52009000Y-79283000D01*
X51969000Y-83245000D02*
X51969000Y-82260000D01*
X51969000Y-80300000D02*
X51969000Y-79315000D01*
X51929000Y-83212000D02*
X51929000Y-82260000D01*
X51929000Y-80300000D02*
X51929000Y-79348000D01*
X51889000Y-83177000D02*
X51889000Y-82260000D01*
X51889000Y-80300000D02*
X51889000Y-79383000D01*
X51849000Y-83141000D02*
X51849000Y-82260000D01*
X51849000Y-80300000D02*
X51849000Y-79419000D01*
X51809000Y-83103000D02*
X51809000Y-82260000D01*
X51809000Y-80300000D02*
X51809000Y-79457000D01*
X51769000Y-83063000D02*
X51769000Y-82260000D01*
X51769000Y-80300000D02*
X51769000Y-79497000D01*
X51729000Y-83022000D02*
X51729000Y-82260000D01*
X51729000Y-80300000D02*
X51729000Y-79538000D01*
X51689000Y-82979000D02*
X51689000Y-82260000D01*
X51689000Y-80300000D02*
X51689000Y-79581000D01*
X51649000Y-82934000D02*
X51649000Y-82260000D01*
X51649000Y-80300000D02*
X51649000Y-79626000D01*
X51609000Y-82886000D02*
X51609000Y-79674000D01*
X51569000Y-82836000D02*
X51569000Y-79724000D01*
X51529000Y-82784000D02*
X51529000Y-79776000D01*
X51489000Y-82728000D02*
X51489000Y-79832000D01*
X51449000Y-82670000D02*
X51449000Y-79890000D01*
X51409000Y-82607000D02*
X51409000Y-79953000D01*
X51369000Y-82541000D02*
X51369000Y-80019000D01*
X51329000Y-82469000D02*
X51329000Y-80091000D01*
X51289000Y-82392000D02*
X51289000Y-80168000D01*
X51249000Y-82308000D02*
X51249000Y-80252000D01*
X51209000Y-82214000D02*
X51209000Y-80346000D01*
X51169000Y-82109000D02*
X51169000Y-80451000D01*
X51129000Y-81987000D02*
X51129000Y-80573000D01*
X51089000Y-81839000D02*
X51089000Y-80721000D01*
X51049000Y-81634000D02*
X51049000Y-80926000D01*
X56810000Y-81280000D02*
X55610000Y-81280000D01*
X56210000Y-81930000D02*
X56210000Y-80630000D01*
X113070000Y-115645000D02*
X113070000Y-121765000D01*
X110450000Y-115645000D02*
X110450000Y-121765000D01*
X113070000Y-115645000D02*
X112756000Y-115645000D01*
X110764000Y-115645000D02*
X110450000Y-115645000D01*
X113070000Y-121765000D02*
X112756000Y-121765000D01*
X110764000Y-121765000D02*
X110450000Y-121765000D01*
X113070000Y-93420000D02*
X113070000Y-99540000D01*
X110450000Y-93420000D02*
X110450000Y-99540000D01*
X113070000Y-93420000D02*
X112756000Y-93420000D01*
X110764000Y-93420000D02*
X110450000Y-93420000D01*
X113070000Y-99540000D02*
X112756000Y-99540000D01*
X110764000Y-99540000D02*
X110450000Y-99540000D01*
X106105000Y-128310000D02*
X100985000Y-128310000D01*
X106105000Y-125690000D02*
X100985000Y-125690000D01*
X106105000Y-128310000D02*
X106105000Y-127996000D01*
X106105000Y-126004000D02*
X106105000Y-125690000D01*
X100985000Y-128310000D02*
X100985000Y-127996000D01*
X100985000Y-126004000D02*
X100985000Y-125690000D01*
X94020000Y-93920000D02*
X94020000Y-99040000D01*
X91400000Y-93920000D02*
X91400000Y-99040000D01*
X94020000Y-93920000D02*
X93706000Y-93920000D01*
X91714000Y-93920000D02*
X91400000Y-93920000D01*
X94020000Y-99040000D02*
X93706000Y-99040000D01*
X91714000Y-99040000D02*
X91400000Y-99040000D01*
X106105000Y-106085000D02*
X100985000Y-106085000D01*
X106105000Y-103465000D02*
X100985000Y-103465000D01*
X106105000Y-106085000D02*
X106105000Y-105771000D01*
X106105000Y-103779000D02*
X106105000Y-103465000D01*
X100985000Y-106085000D02*
X100985000Y-105771000D01*
X100985000Y-103779000D02*
X100985000Y-103465000D01*
X98885000Y-109815000D02*
X103005000Y-109815000D01*
X98885000Y-112435000D02*
X103005000Y-112435000D01*
X98885000Y-109815000D02*
X98885000Y-110375000D01*
X98885000Y-111875000D02*
X98885000Y-112435000D01*
X103005000Y-109815000D02*
X103005000Y-110375000D01*
X103005000Y-111875000D02*
X103005000Y-112435000D01*
X98885000Y-86955000D02*
X103005000Y-86955000D01*
X98885000Y-89575000D02*
X103005000Y-89575000D01*
X98885000Y-86955000D02*
X98885000Y-87515000D01*
X98885000Y-89015000D02*
X98885000Y-89575000D01*
X103005000Y-86955000D02*
X103005000Y-87515000D01*
X103005000Y-89015000D02*
X103005000Y-89575000D01*
X73202180Y-74839136D02*
G75*
G03X79237482Y-74840000I3017820J1179136D01*
G01*
X73202180Y-72480864D02*
G75*
G02X79237482Y-72480000I3017820J-1179136D01*
G01*
X73202180Y-72480864D02*
G75*
G03X73202518Y-74840000I3017820J-1179136D01*
G01*
X76220000Y-76860000D02*
X76220000Y-70460000D01*
X76180000Y-76860000D02*
X76180000Y-70460000D01*
X76140000Y-76860000D02*
X76140000Y-70460000D01*
X76100000Y-76858000D02*
X76100000Y-70462000D01*
X76060000Y-76857000D02*
X76060000Y-70463000D01*
X76020000Y-76854000D02*
X76020000Y-70466000D01*
X75980000Y-76852000D02*
X75980000Y-70468000D01*
X75940000Y-76848000D02*
X75940000Y-74640000D01*
X75940000Y-72680000D02*
X75940000Y-70472000D01*
X75900000Y-76845000D02*
X75900000Y-74640000D01*
X75900000Y-72680000D02*
X75900000Y-70475000D01*
X75860000Y-76840000D02*
X75860000Y-74640000D01*
X75860000Y-72680000D02*
X75860000Y-70480000D01*
X75820000Y-76836000D02*
X75820000Y-74640000D01*
X75820000Y-72680000D02*
X75820000Y-70484000D01*
X75780000Y-76830000D02*
X75780000Y-74640000D01*
X75780000Y-72680000D02*
X75780000Y-70490000D01*
X75740000Y-76825000D02*
X75740000Y-74640000D01*
X75740000Y-72680000D02*
X75740000Y-70495000D01*
X75700000Y-76818000D02*
X75700000Y-74640000D01*
X75700000Y-72680000D02*
X75700000Y-70502000D01*
X75660000Y-76812000D02*
X75660000Y-74640000D01*
X75660000Y-72680000D02*
X75660000Y-70508000D01*
X75620000Y-76804000D02*
X75620000Y-74640000D01*
X75620000Y-72680000D02*
X75620000Y-70516000D01*
X75580000Y-76797000D02*
X75580000Y-74640000D01*
X75580000Y-72680000D02*
X75580000Y-70523000D01*
X75540000Y-76788000D02*
X75540000Y-74640000D01*
X75540000Y-72680000D02*
X75540000Y-70532000D01*
X75499000Y-76779000D02*
X75499000Y-74640000D01*
X75499000Y-72680000D02*
X75499000Y-70541000D01*
X75459000Y-76770000D02*
X75459000Y-74640000D01*
X75459000Y-72680000D02*
X75459000Y-70550000D01*
X75419000Y-76760000D02*
X75419000Y-74640000D01*
X75419000Y-72680000D02*
X75419000Y-70560000D01*
X75379000Y-76750000D02*
X75379000Y-74640000D01*
X75379000Y-72680000D02*
X75379000Y-70570000D01*
X75339000Y-76739000D02*
X75339000Y-74640000D01*
X75339000Y-72680000D02*
X75339000Y-70581000D01*
X75299000Y-76727000D02*
X75299000Y-74640000D01*
X75299000Y-72680000D02*
X75299000Y-70593000D01*
X75259000Y-76715000D02*
X75259000Y-74640000D01*
X75259000Y-72680000D02*
X75259000Y-70605000D01*
X75219000Y-76702000D02*
X75219000Y-74640000D01*
X75219000Y-72680000D02*
X75219000Y-70618000D01*
X75179000Y-76689000D02*
X75179000Y-74640000D01*
X75179000Y-72680000D02*
X75179000Y-70631000D01*
X75139000Y-76675000D02*
X75139000Y-74640000D01*
X75139000Y-72680000D02*
X75139000Y-70645000D01*
X75099000Y-76661000D02*
X75099000Y-74640000D01*
X75099000Y-72680000D02*
X75099000Y-70659000D01*
X75059000Y-76646000D02*
X75059000Y-74640000D01*
X75059000Y-72680000D02*
X75059000Y-70674000D01*
X75019000Y-76630000D02*
X75019000Y-74640000D01*
X75019000Y-72680000D02*
X75019000Y-70690000D01*
X74979000Y-76614000D02*
X74979000Y-74640000D01*
X74979000Y-72680000D02*
X74979000Y-70706000D01*
X74939000Y-76597000D02*
X74939000Y-74640000D01*
X74939000Y-72680000D02*
X74939000Y-70723000D01*
X74899000Y-76579000D02*
X74899000Y-74640000D01*
X74899000Y-72680000D02*
X74899000Y-70741000D01*
X74859000Y-76561000D02*
X74859000Y-74640000D01*
X74859000Y-72680000D02*
X74859000Y-70759000D01*
X74819000Y-76542000D02*
X74819000Y-74640000D01*
X74819000Y-72680000D02*
X74819000Y-70778000D01*
X74779000Y-76523000D02*
X74779000Y-74640000D01*
X74779000Y-72680000D02*
X74779000Y-70797000D01*
X74739000Y-76503000D02*
X74739000Y-74640000D01*
X74739000Y-72680000D02*
X74739000Y-70817000D01*
X74699000Y-76482000D02*
X74699000Y-74640000D01*
X74699000Y-72680000D02*
X74699000Y-70838000D01*
X74659000Y-76460000D02*
X74659000Y-74640000D01*
X74659000Y-72680000D02*
X74659000Y-70860000D01*
X74619000Y-76438000D02*
X74619000Y-74640000D01*
X74619000Y-72680000D02*
X74619000Y-70882000D01*
X74579000Y-76415000D02*
X74579000Y-74640000D01*
X74579000Y-72680000D02*
X74579000Y-70905000D01*
X74539000Y-76391000D02*
X74539000Y-74640000D01*
X74539000Y-72680000D02*
X74539000Y-70929000D01*
X74499000Y-76366000D02*
X74499000Y-74640000D01*
X74499000Y-72680000D02*
X74499000Y-70954000D01*
X74459000Y-76341000D02*
X74459000Y-74640000D01*
X74459000Y-72680000D02*
X74459000Y-70979000D01*
X74419000Y-76314000D02*
X74419000Y-74640000D01*
X74419000Y-72680000D02*
X74419000Y-71006000D01*
X74379000Y-76287000D02*
X74379000Y-74640000D01*
X74379000Y-72680000D02*
X74379000Y-71033000D01*
X74339000Y-76259000D02*
X74339000Y-74640000D01*
X74339000Y-72680000D02*
X74339000Y-71061000D01*
X74299000Y-76230000D02*
X74299000Y-74640000D01*
X74299000Y-72680000D02*
X74299000Y-71090000D01*
X74259000Y-76200000D02*
X74259000Y-74640000D01*
X74259000Y-72680000D02*
X74259000Y-71120000D01*
X74219000Y-76170000D02*
X74219000Y-74640000D01*
X74219000Y-72680000D02*
X74219000Y-71150000D01*
X74179000Y-76138000D02*
X74179000Y-74640000D01*
X74179000Y-72680000D02*
X74179000Y-71182000D01*
X74139000Y-76105000D02*
X74139000Y-74640000D01*
X74139000Y-72680000D02*
X74139000Y-71215000D01*
X74099000Y-76071000D02*
X74099000Y-74640000D01*
X74099000Y-72680000D02*
X74099000Y-71249000D01*
X74059000Y-76035000D02*
X74059000Y-74640000D01*
X74059000Y-72680000D02*
X74059000Y-71285000D01*
X74019000Y-75999000D02*
X74019000Y-74640000D01*
X74019000Y-72680000D02*
X74019000Y-71321000D01*
X73979000Y-75961000D02*
X73979000Y-71359000D01*
X73939000Y-75922000D02*
X73939000Y-71398000D01*
X73899000Y-75882000D02*
X73899000Y-71438000D01*
X73859000Y-75840000D02*
X73859000Y-71480000D01*
X73819000Y-75797000D02*
X73819000Y-71523000D01*
X73779000Y-75752000D02*
X73779000Y-71568000D01*
X73739000Y-75705000D02*
X73739000Y-71615000D01*
X73699000Y-75657000D02*
X73699000Y-71663000D01*
X73659000Y-75606000D02*
X73659000Y-71714000D01*
X73619000Y-75554000D02*
X73619000Y-71766000D01*
X73579000Y-75499000D02*
X73579000Y-71821000D01*
X73539000Y-75441000D02*
X73539000Y-71879000D01*
X73499000Y-75381000D02*
X73499000Y-71939000D01*
X73459000Y-75318000D02*
X73459000Y-72002000D01*
X73419000Y-75251000D02*
X73419000Y-72069000D01*
X73379000Y-75180000D02*
X73379000Y-72140000D01*
X73339000Y-75105000D02*
X73339000Y-72215000D01*
X73299000Y-75024000D02*
X73299000Y-72296000D01*
X73259000Y-74938000D02*
X73259000Y-72382000D01*
X73219000Y-74844000D02*
X73219000Y-72476000D01*
X73179000Y-74741000D02*
X73179000Y-72579000D01*
X73139000Y-74626000D02*
X73139000Y-72694000D01*
X73099000Y-74494000D02*
X73099000Y-72826000D01*
X73059000Y-74336000D02*
X73059000Y-72984000D01*
X73019000Y-74128000D02*
X73019000Y-73192000D01*
X79670000Y-73660000D02*
X78470000Y-73660000D01*
X79070000Y-74310000D02*
X79070000Y-73010000D01*
X82045722Y-92800277D02*
G75*
G03X77434420Y-92800000I-2305722J-1179723D01*
G01*
X82045722Y-95159723D02*
G75*
G02X77434420Y-95160000I-2305722J1179723D01*
G01*
X82045722Y-95159723D02*
G75*
G03X82045580Y-92800000I-2305722J1179723D01*
G01*
X79740000Y-91430000D02*
X79740000Y-96530000D01*
X79780000Y-91430000D02*
X79780000Y-93000000D01*
X79780000Y-94960000D02*
X79780000Y-96530000D01*
X79820000Y-91431000D02*
X79820000Y-93000000D01*
X79820000Y-94960000D02*
X79820000Y-96529000D01*
X79860000Y-91432000D02*
X79860000Y-93000000D01*
X79860000Y-94960000D02*
X79860000Y-96528000D01*
X79900000Y-91434000D02*
X79900000Y-93000000D01*
X79900000Y-94960000D02*
X79900000Y-96526000D01*
X79940000Y-91437000D02*
X79940000Y-93000000D01*
X79940000Y-94960000D02*
X79940000Y-96523000D01*
X79980000Y-91441000D02*
X79980000Y-93000000D01*
X79980000Y-94960000D02*
X79980000Y-96519000D01*
X80020000Y-91445000D02*
X80020000Y-93000000D01*
X80020000Y-94960000D02*
X80020000Y-96515000D01*
X80060000Y-91449000D02*
X80060000Y-93000000D01*
X80060000Y-94960000D02*
X80060000Y-96511000D01*
X80100000Y-91455000D02*
X80100000Y-93000000D01*
X80100000Y-94960000D02*
X80100000Y-96505000D01*
X80140000Y-91461000D02*
X80140000Y-93000000D01*
X80140000Y-94960000D02*
X80140000Y-96499000D01*
X80180000Y-91467000D02*
X80180000Y-93000000D01*
X80180000Y-94960000D02*
X80180000Y-96493000D01*
X80220000Y-91474000D02*
X80220000Y-93000000D01*
X80220000Y-94960000D02*
X80220000Y-96486000D01*
X80260000Y-91482000D02*
X80260000Y-93000000D01*
X80260000Y-94960000D02*
X80260000Y-96478000D01*
X80300000Y-91491000D02*
X80300000Y-93000000D01*
X80300000Y-94960000D02*
X80300000Y-96469000D01*
X80340000Y-91500000D02*
X80340000Y-93000000D01*
X80340000Y-94960000D02*
X80340000Y-96460000D01*
X80380000Y-91510000D02*
X80380000Y-93000000D01*
X80380000Y-94960000D02*
X80380000Y-96450000D01*
X80420000Y-91520000D02*
X80420000Y-93000000D01*
X80420000Y-94960000D02*
X80420000Y-96440000D01*
X80461000Y-91532000D02*
X80461000Y-93000000D01*
X80461000Y-94960000D02*
X80461000Y-96428000D01*
X80501000Y-91544000D02*
X80501000Y-93000000D01*
X80501000Y-94960000D02*
X80501000Y-96416000D01*
X80541000Y-91556000D02*
X80541000Y-93000000D01*
X80541000Y-94960000D02*
X80541000Y-96404000D01*
X80581000Y-91570000D02*
X80581000Y-93000000D01*
X80581000Y-94960000D02*
X80581000Y-96390000D01*
X80621000Y-91584000D02*
X80621000Y-93000000D01*
X80621000Y-94960000D02*
X80621000Y-96376000D01*
X80661000Y-91598000D02*
X80661000Y-93000000D01*
X80661000Y-94960000D02*
X80661000Y-96362000D01*
X80701000Y-91614000D02*
X80701000Y-93000000D01*
X80701000Y-94960000D02*
X80701000Y-96346000D01*
X80741000Y-91630000D02*
X80741000Y-93000000D01*
X80741000Y-94960000D02*
X80741000Y-96330000D01*
X80781000Y-91647000D02*
X80781000Y-93000000D01*
X80781000Y-94960000D02*
X80781000Y-96313000D01*
X80821000Y-91665000D02*
X80821000Y-93000000D01*
X80821000Y-94960000D02*
X80821000Y-96295000D01*
X80861000Y-91684000D02*
X80861000Y-93000000D01*
X80861000Y-94960000D02*
X80861000Y-96276000D01*
X80901000Y-91704000D02*
X80901000Y-93000000D01*
X80901000Y-94960000D02*
X80901000Y-96256000D01*
X80941000Y-91724000D02*
X80941000Y-93000000D01*
X80941000Y-94960000D02*
X80941000Y-96236000D01*
X80981000Y-91746000D02*
X80981000Y-93000000D01*
X80981000Y-94960000D02*
X80981000Y-96214000D01*
X81021000Y-91768000D02*
X81021000Y-93000000D01*
X81021000Y-94960000D02*
X81021000Y-96192000D01*
X81061000Y-91791000D02*
X81061000Y-93000000D01*
X81061000Y-94960000D02*
X81061000Y-96169000D01*
X81101000Y-91815000D02*
X81101000Y-93000000D01*
X81101000Y-94960000D02*
X81101000Y-96145000D01*
X81141000Y-91840000D02*
X81141000Y-93000000D01*
X81141000Y-94960000D02*
X81141000Y-96120000D01*
X81181000Y-91867000D02*
X81181000Y-93000000D01*
X81181000Y-94960000D02*
X81181000Y-96093000D01*
X81221000Y-91894000D02*
X81221000Y-93000000D01*
X81221000Y-94960000D02*
X81221000Y-96066000D01*
X81261000Y-91922000D02*
X81261000Y-93000000D01*
X81261000Y-94960000D02*
X81261000Y-96038000D01*
X81301000Y-91952000D02*
X81301000Y-93000000D01*
X81301000Y-94960000D02*
X81301000Y-96008000D01*
X81341000Y-91983000D02*
X81341000Y-93000000D01*
X81341000Y-94960000D02*
X81341000Y-95977000D01*
X81381000Y-92015000D02*
X81381000Y-93000000D01*
X81381000Y-94960000D02*
X81381000Y-95945000D01*
X81421000Y-92048000D02*
X81421000Y-93000000D01*
X81421000Y-94960000D02*
X81421000Y-95912000D01*
X81461000Y-92083000D02*
X81461000Y-93000000D01*
X81461000Y-94960000D02*
X81461000Y-95877000D01*
X81501000Y-92119000D02*
X81501000Y-93000000D01*
X81501000Y-94960000D02*
X81501000Y-95841000D01*
X81541000Y-92157000D02*
X81541000Y-93000000D01*
X81541000Y-94960000D02*
X81541000Y-95803000D01*
X81581000Y-92197000D02*
X81581000Y-93000000D01*
X81581000Y-94960000D02*
X81581000Y-95763000D01*
X81621000Y-92238000D02*
X81621000Y-93000000D01*
X81621000Y-94960000D02*
X81621000Y-95722000D01*
X81661000Y-92281000D02*
X81661000Y-93000000D01*
X81661000Y-94960000D02*
X81661000Y-95679000D01*
X81701000Y-92326000D02*
X81701000Y-93000000D01*
X81701000Y-94960000D02*
X81701000Y-95634000D01*
X81741000Y-92374000D02*
X81741000Y-95586000D01*
X81781000Y-92424000D02*
X81781000Y-95536000D01*
X81821000Y-92476000D02*
X81821000Y-95484000D01*
X81861000Y-92532000D02*
X81861000Y-95428000D01*
X81901000Y-92590000D02*
X81901000Y-95370000D01*
X81941000Y-92653000D02*
X81941000Y-95307000D01*
X81981000Y-92719000D02*
X81981000Y-95241000D01*
X82021000Y-92791000D02*
X82021000Y-95169000D01*
X82061000Y-92868000D02*
X82061000Y-95092000D01*
X82101000Y-92952000D02*
X82101000Y-95008000D01*
X82141000Y-93046000D02*
X82141000Y-94914000D01*
X82181000Y-93151000D02*
X82181000Y-94809000D01*
X82221000Y-93273000D02*
X82221000Y-94687000D01*
X82261000Y-93421000D02*
X82261000Y-94539000D01*
X82301000Y-93626000D02*
X82301000Y-94334000D01*
X76540000Y-93980000D02*
X77740000Y-93980000D01*
X77140000Y-93330000D02*
X77140000Y-94630000D01*
X73202180Y-82459136D02*
G75*
G03X79237482Y-82460000I3017820J1179136D01*
G01*
X73202180Y-80100864D02*
G75*
G02X79237482Y-80100000I3017820J-1179136D01*
G01*
X73202180Y-80100864D02*
G75*
G03X73202518Y-82460000I3017820J-1179136D01*
G01*
X76220000Y-84480000D02*
X76220000Y-78080000D01*
X76180000Y-84480000D02*
X76180000Y-78080000D01*
X76140000Y-84480000D02*
X76140000Y-78080000D01*
X76100000Y-84478000D02*
X76100000Y-78082000D01*
X76060000Y-84477000D02*
X76060000Y-78083000D01*
X76020000Y-84474000D02*
X76020000Y-78086000D01*
X75980000Y-84472000D02*
X75980000Y-78088000D01*
X75940000Y-84468000D02*
X75940000Y-82260000D01*
X75940000Y-80300000D02*
X75940000Y-78092000D01*
X75900000Y-84465000D02*
X75900000Y-82260000D01*
X75900000Y-80300000D02*
X75900000Y-78095000D01*
X75860000Y-84460000D02*
X75860000Y-82260000D01*
X75860000Y-80300000D02*
X75860000Y-78100000D01*
X75820000Y-84456000D02*
X75820000Y-82260000D01*
X75820000Y-80300000D02*
X75820000Y-78104000D01*
X75780000Y-84450000D02*
X75780000Y-82260000D01*
X75780000Y-80300000D02*
X75780000Y-78110000D01*
X75740000Y-84445000D02*
X75740000Y-82260000D01*
X75740000Y-80300000D02*
X75740000Y-78115000D01*
X75700000Y-84438000D02*
X75700000Y-82260000D01*
X75700000Y-80300000D02*
X75700000Y-78122000D01*
X75660000Y-84432000D02*
X75660000Y-82260000D01*
X75660000Y-80300000D02*
X75660000Y-78128000D01*
X75620000Y-84424000D02*
X75620000Y-82260000D01*
X75620000Y-80300000D02*
X75620000Y-78136000D01*
X75580000Y-84417000D02*
X75580000Y-82260000D01*
X75580000Y-80300000D02*
X75580000Y-78143000D01*
X75540000Y-84408000D02*
X75540000Y-82260000D01*
X75540000Y-80300000D02*
X75540000Y-78152000D01*
X75499000Y-84399000D02*
X75499000Y-82260000D01*
X75499000Y-80300000D02*
X75499000Y-78161000D01*
X75459000Y-84390000D02*
X75459000Y-82260000D01*
X75459000Y-80300000D02*
X75459000Y-78170000D01*
X75419000Y-84380000D02*
X75419000Y-82260000D01*
X75419000Y-80300000D02*
X75419000Y-78180000D01*
X75379000Y-84370000D02*
X75379000Y-82260000D01*
X75379000Y-80300000D02*
X75379000Y-78190000D01*
X75339000Y-84359000D02*
X75339000Y-82260000D01*
X75339000Y-80300000D02*
X75339000Y-78201000D01*
X75299000Y-84347000D02*
X75299000Y-82260000D01*
X75299000Y-80300000D02*
X75299000Y-78213000D01*
X75259000Y-84335000D02*
X75259000Y-82260000D01*
X75259000Y-80300000D02*
X75259000Y-78225000D01*
X75219000Y-84322000D02*
X75219000Y-82260000D01*
X75219000Y-80300000D02*
X75219000Y-78238000D01*
X75179000Y-84309000D02*
X75179000Y-82260000D01*
X75179000Y-80300000D02*
X75179000Y-78251000D01*
X75139000Y-84295000D02*
X75139000Y-82260000D01*
X75139000Y-80300000D02*
X75139000Y-78265000D01*
X75099000Y-84281000D02*
X75099000Y-82260000D01*
X75099000Y-80300000D02*
X75099000Y-78279000D01*
X75059000Y-84266000D02*
X75059000Y-82260000D01*
X75059000Y-80300000D02*
X75059000Y-78294000D01*
X75019000Y-84250000D02*
X75019000Y-82260000D01*
X75019000Y-80300000D02*
X75019000Y-78310000D01*
X74979000Y-84234000D02*
X74979000Y-82260000D01*
X74979000Y-80300000D02*
X74979000Y-78326000D01*
X74939000Y-84217000D02*
X74939000Y-82260000D01*
X74939000Y-80300000D02*
X74939000Y-78343000D01*
X74899000Y-84199000D02*
X74899000Y-82260000D01*
X74899000Y-80300000D02*
X74899000Y-78361000D01*
X74859000Y-84181000D02*
X74859000Y-82260000D01*
X74859000Y-80300000D02*
X74859000Y-78379000D01*
X74819000Y-84162000D02*
X74819000Y-82260000D01*
X74819000Y-80300000D02*
X74819000Y-78398000D01*
X74779000Y-84143000D02*
X74779000Y-82260000D01*
X74779000Y-80300000D02*
X74779000Y-78417000D01*
X74739000Y-84123000D02*
X74739000Y-82260000D01*
X74739000Y-80300000D02*
X74739000Y-78437000D01*
X74699000Y-84102000D02*
X74699000Y-82260000D01*
X74699000Y-80300000D02*
X74699000Y-78458000D01*
X74659000Y-84080000D02*
X74659000Y-82260000D01*
X74659000Y-80300000D02*
X74659000Y-78480000D01*
X74619000Y-84058000D02*
X74619000Y-82260000D01*
X74619000Y-80300000D02*
X74619000Y-78502000D01*
X74579000Y-84035000D02*
X74579000Y-82260000D01*
X74579000Y-80300000D02*
X74579000Y-78525000D01*
X74539000Y-84011000D02*
X74539000Y-82260000D01*
X74539000Y-80300000D02*
X74539000Y-78549000D01*
X74499000Y-83986000D02*
X74499000Y-82260000D01*
X74499000Y-80300000D02*
X74499000Y-78574000D01*
X74459000Y-83961000D02*
X74459000Y-82260000D01*
X74459000Y-80300000D02*
X74459000Y-78599000D01*
X74419000Y-83934000D02*
X74419000Y-82260000D01*
X74419000Y-80300000D02*
X74419000Y-78626000D01*
X74379000Y-83907000D02*
X74379000Y-82260000D01*
X74379000Y-80300000D02*
X74379000Y-78653000D01*
X74339000Y-83879000D02*
X74339000Y-82260000D01*
X74339000Y-80300000D02*
X74339000Y-78681000D01*
X74299000Y-83850000D02*
X74299000Y-82260000D01*
X74299000Y-80300000D02*
X74299000Y-78710000D01*
X74259000Y-83820000D02*
X74259000Y-82260000D01*
X74259000Y-80300000D02*
X74259000Y-78740000D01*
X74219000Y-83790000D02*
X74219000Y-82260000D01*
X74219000Y-80300000D02*
X74219000Y-78770000D01*
X74179000Y-83758000D02*
X74179000Y-82260000D01*
X74179000Y-80300000D02*
X74179000Y-78802000D01*
X74139000Y-83725000D02*
X74139000Y-82260000D01*
X74139000Y-80300000D02*
X74139000Y-78835000D01*
X74099000Y-83691000D02*
X74099000Y-82260000D01*
X74099000Y-80300000D02*
X74099000Y-78869000D01*
X74059000Y-83655000D02*
X74059000Y-82260000D01*
X74059000Y-80300000D02*
X74059000Y-78905000D01*
X74019000Y-83619000D02*
X74019000Y-82260000D01*
X74019000Y-80300000D02*
X74019000Y-78941000D01*
X73979000Y-83581000D02*
X73979000Y-78979000D01*
X73939000Y-83542000D02*
X73939000Y-79018000D01*
X73899000Y-83502000D02*
X73899000Y-79058000D01*
X73859000Y-83460000D02*
X73859000Y-79100000D01*
X73819000Y-83417000D02*
X73819000Y-79143000D01*
X73779000Y-83372000D02*
X73779000Y-79188000D01*
X73739000Y-83325000D02*
X73739000Y-79235000D01*
X73699000Y-83277000D02*
X73699000Y-79283000D01*
X73659000Y-83226000D02*
X73659000Y-79334000D01*
X73619000Y-83174000D02*
X73619000Y-79386000D01*
X73579000Y-83119000D02*
X73579000Y-79441000D01*
X73539000Y-83061000D02*
X73539000Y-79499000D01*
X73499000Y-83001000D02*
X73499000Y-79559000D01*
X73459000Y-82938000D02*
X73459000Y-79622000D01*
X73419000Y-82871000D02*
X73419000Y-79689000D01*
X73379000Y-82800000D02*
X73379000Y-79760000D01*
X73339000Y-82725000D02*
X73339000Y-79835000D01*
X73299000Y-82644000D02*
X73299000Y-79916000D01*
X73259000Y-82558000D02*
X73259000Y-80002000D01*
X73219000Y-82464000D02*
X73219000Y-80096000D01*
X73179000Y-82361000D02*
X73179000Y-80199000D01*
X73139000Y-82246000D02*
X73139000Y-80314000D01*
X73099000Y-82114000D02*
X73099000Y-80446000D01*
X73059000Y-81956000D02*
X73059000Y-80604000D01*
X73019000Y-81748000D02*
X73019000Y-80812000D01*
X79670000Y-81280000D02*
X78470000Y-81280000D01*
X79070000Y-81930000D02*
X79070000Y-80630000D01*
X84999723Y-76965722D02*
G75*
G03X85000000Y-72354420I-1179723J2305722D01*
G01*
X82640277Y-76965722D02*
G75*
G02X82640000Y-72354420I1179723J2305722D01*
G01*
X82640277Y-76965722D02*
G75*
G03X85000000Y-76965580I1179723J2305722D01*
G01*
X86370000Y-74660000D02*
X81270000Y-74660000D01*
X86370000Y-74700000D02*
X84800000Y-74700000D01*
X82840000Y-74700000D02*
X81270000Y-74700000D01*
X86369000Y-74740000D02*
X84800000Y-74740000D01*
X82840000Y-74740000D02*
X81271000Y-74740000D01*
X86368000Y-74780000D02*
X84800000Y-74780000D01*
X82840000Y-74780000D02*
X81272000Y-74780000D01*
X86366000Y-74820000D02*
X84800000Y-74820000D01*
X82840000Y-74820000D02*
X81274000Y-74820000D01*
X86363000Y-74860000D02*
X84800000Y-74860000D01*
X82840000Y-74860000D02*
X81277000Y-74860000D01*
X86359000Y-74900000D02*
X84800000Y-74900000D01*
X82840000Y-74900000D02*
X81281000Y-74900000D01*
X86355000Y-74940000D02*
X84800000Y-74940000D01*
X82840000Y-74940000D02*
X81285000Y-74940000D01*
X86351000Y-74980000D02*
X84800000Y-74980000D01*
X82840000Y-74980000D02*
X81289000Y-74980000D01*
X86345000Y-75020000D02*
X84800000Y-75020000D01*
X82840000Y-75020000D02*
X81295000Y-75020000D01*
X86339000Y-75060000D02*
X84800000Y-75060000D01*
X82840000Y-75060000D02*
X81301000Y-75060000D01*
X86333000Y-75100000D02*
X84800000Y-75100000D01*
X82840000Y-75100000D02*
X81307000Y-75100000D01*
X86326000Y-75140000D02*
X84800000Y-75140000D01*
X82840000Y-75140000D02*
X81314000Y-75140000D01*
X86318000Y-75180000D02*
X84800000Y-75180000D01*
X82840000Y-75180000D02*
X81322000Y-75180000D01*
X86309000Y-75220000D02*
X84800000Y-75220000D01*
X82840000Y-75220000D02*
X81331000Y-75220000D01*
X86300000Y-75260000D02*
X84800000Y-75260000D01*
X82840000Y-75260000D02*
X81340000Y-75260000D01*
X86290000Y-75300000D02*
X84800000Y-75300000D01*
X82840000Y-75300000D02*
X81350000Y-75300000D01*
X86280000Y-75340000D02*
X84800000Y-75340000D01*
X82840000Y-75340000D02*
X81360000Y-75340000D01*
X86268000Y-75381000D02*
X84800000Y-75381000D01*
X82840000Y-75381000D02*
X81372000Y-75381000D01*
X86256000Y-75421000D02*
X84800000Y-75421000D01*
X82840000Y-75421000D02*
X81384000Y-75421000D01*
X86244000Y-75461000D02*
X84800000Y-75461000D01*
X82840000Y-75461000D02*
X81396000Y-75461000D01*
X86230000Y-75501000D02*
X84800000Y-75501000D01*
X82840000Y-75501000D02*
X81410000Y-75501000D01*
X86216000Y-75541000D02*
X84800000Y-75541000D01*
X82840000Y-75541000D02*
X81424000Y-75541000D01*
X86202000Y-75581000D02*
X84800000Y-75581000D01*
X82840000Y-75581000D02*
X81438000Y-75581000D01*
X86186000Y-75621000D02*
X84800000Y-75621000D01*
X82840000Y-75621000D02*
X81454000Y-75621000D01*
X86170000Y-75661000D02*
X84800000Y-75661000D01*
X82840000Y-75661000D02*
X81470000Y-75661000D01*
X86153000Y-75701000D02*
X84800000Y-75701000D01*
X82840000Y-75701000D02*
X81487000Y-75701000D01*
X86135000Y-75741000D02*
X84800000Y-75741000D01*
X82840000Y-75741000D02*
X81505000Y-75741000D01*
X86116000Y-75781000D02*
X84800000Y-75781000D01*
X82840000Y-75781000D02*
X81524000Y-75781000D01*
X86096000Y-75821000D02*
X84800000Y-75821000D01*
X82840000Y-75821000D02*
X81544000Y-75821000D01*
X86076000Y-75861000D02*
X84800000Y-75861000D01*
X82840000Y-75861000D02*
X81564000Y-75861000D01*
X86054000Y-75901000D02*
X84800000Y-75901000D01*
X82840000Y-75901000D02*
X81586000Y-75901000D01*
X86032000Y-75941000D02*
X84800000Y-75941000D01*
X82840000Y-75941000D02*
X81608000Y-75941000D01*
X86009000Y-75981000D02*
X84800000Y-75981000D01*
X82840000Y-75981000D02*
X81631000Y-75981000D01*
X85985000Y-76021000D02*
X84800000Y-76021000D01*
X82840000Y-76021000D02*
X81655000Y-76021000D01*
X85960000Y-76061000D02*
X84800000Y-76061000D01*
X82840000Y-76061000D02*
X81680000Y-76061000D01*
X85933000Y-76101000D02*
X84800000Y-76101000D01*
X82840000Y-76101000D02*
X81707000Y-76101000D01*
X85906000Y-76141000D02*
X84800000Y-76141000D01*
X82840000Y-76141000D02*
X81734000Y-76141000D01*
X85878000Y-76181000D02*
X84800000Y-76181000D01*
X82840000Y-76181000D02*
X81762000Y-76181000D01*
X85848000Y-76221000D02*
X84800000Y-76221000D01*
X82840000Y-76221000D02*
X81792000Y-76221000D01*
X85817000Y-76261000D02*
X84800000Y-76261000D01*
X82840000Y-76261000D02*
X81823000Y-76261000D01*
X85785000Y-76301000D02*
X84800000Y-76301000D01*
X82840000Y-76301000D02*
X81855000Y-76301000D01*
X85752000Y-76341000D02*
X84800000Y-76341000D01*
X82840000Y-76341000D02*
X81888000Y-76341000D01*
X85717000Y-76381000D02*
X84800000Y-76381000D01*
X82840000Y-76381000D02*
X81923000Y-76381000D01*
X85681000Y-76421000D02*
X84800000Y-76421000D01*
X82840000Y-76421000D02*
X81959000Y-76421000D01*
X85643000Y-76461000D02*
X84800000Y-76461000D01*
X82840000Y-76461000D02*
X81997000Y-76461000D01*
X85603000Y-76501000D02*
X84800000Y-76501000D01*
X82840000Y-76501000D02*
X82037000Y-76501000D01*
X85562000Y-76541000D02*
X84800000Y-76541000D01*
X82840000Y-76541000D02*
X82078000Y-76541000D01*
X85519000Y-76581000D02*
X84800000Y-76581000D01*
X82840000Y-76581000D02*
X82121000Y-76581000D01*
X85474000Y-76621000D02*
X84800000Y-76621000D01*
X82840000Y-76621000D02*
X82166000Y-76621000D01*
X85426000Y-76661000D02*
X82214000Y-76661000D01*
X85376000Y-76701000D02*
X82264000Y-76701000D01*
X85324000Y-76741000D02*
X82316000Y-76741000D01*
X85268000Y-76781000D02*
X82372000Y-76781000D01*
X85210000Y-76821000D02*
X82430000Y-76821000D01*
X85147000Y-76861000D02*
X82493000Y-76861000D01*
X85081000Y-76901000D02*
X82559000Y-76901000D01*
X85009000Y-76941000D02*
X82631000Y-76941000D01*
X84932000Y-76981000D02*
X82708000Y-76981000D01*
X84848000Y-77021000D02*
X82792000Y-77021000D01*
X84754000Y-77061000D02*
X82886000Y-77061000D01*
X84649000Y-77101000D02*
X82991000Y-77101000D01*
X84527000Y-77141000D02*
X83113000Y-77141000D01*
X84379000Y-77181000D02*
X83261000Y-77181000D01*
X84174000Y-77221000D02*
X83466000Y-77221000D01*
X83820000Y-71460000D02*
X83820000Y-72660000D01*
X84470000Y-72060000D02*
X83170000Y-72060000D01*
X129330000Y-120555000D02*
X122210000Y-120555000D01*
X129330000Y-116935000D02*
X122210000Y-116935000D01*
X129330000Y-120555000D02*
X129330000Y-116935000D01*
X122210000Y-120555000D02*
X122210000Y-116935000D01*
X133445000Y-111550000D02*
X133445000Y-104430000D01*
X137065000Y-111550000D02*
X137065000Y-104430000D01*
X133445000Y-111550000D02*
X137065000Y-111550000D01*
X133445000Y-104430000D02*
X137065000Y-104430000D01*
X122495000Y-99020000D02*
X127615000Y-99020000D01*
X122495000Y-101640000D02*
X127615000Y-101640000D01*
X122495000Y-99020000D02*
X122495000Y-99334000D01*
X122495000Y-101326000D02*
X122495000Y-101640000D01*
X127615000Y-99020000D02*
X127615000Y-99334000D01*
X127615000Y-101326000D02*
X127615000Y-101640000D01*
X113070000Y-70560000D02*
X113070000Y-76680000D01*
X110450000Y-70560000D02*
X110450000Y-76680000D01*
X113070000Y-70560000D02*
X112756000Y-70560000D01*
X110764000Y-70560000D02*
X110450000Y-70560000D01*
X113070000Y-76680000D02*
X112756000Y-76680000D01*
X110764000Y-76680000D02*
X110450000Y-76680000D01*
X113070000Y-47700000D02*
X113070000Y-53820000D01*
X110450000Y-47700000D02*
X110450000Y-53820000D01*
X113070000Y-47700000D02*
X112756000Y-47700000D01*
X110764000Y-47700000D02*
X110450000Y-47700000D01*
X113070000Y-53820000D02*
X112756000Y-53820000D01*
X110764000Y-53820000D02*
X110450000Y-53820000D01*
X106105000Y-83225000D02*
X100985000Y-83225000D01*
X106105000Y-80605000D02*
X100985000Y-80605000D01*
X106105000Y-83225000D02*
X106105000Y-82911000D01*
X106105000Y-80919000D02*
X106105000Y-80605000D01*
X100985000Y-83225000D02*
X100985000Y-82911000D01*
X100985000Y-80919000D02*
X100985000Y-80605000D01*
X94020000Y-48200000D02*
X94020000Y-53320000D01*
X91400000Y-48200000D02*
X91400000Y-53320000D01*
X94020000Y-48200000D02*
X93706000Y-48200000D01*
X91714000Y-48200000D02*
X91400000Y-48200000D01*
X94020000Y-53320000D02*
X93706000Y-53320000D01*
X91714000Y-53320000D02*
X91400000Y-53320000D01*
X106105000Y-60365000D02*
X100985000Y-60365000D01*
X106105000Y-57745000D02*
X100985000Y-57745000D01*
X106105000Y-60365000D02*
X106105000Y-60051000D01*
X106105000Y-58059000D02*
X106105000Y-57745000D01*
X100985000Y-60365000D02*
X100985000Y-60051000D01*
X100985000Y-58059000D02*
X100985000Y-57745000D01*
X98885000Y-64095000D02*
X103005000Y-64095000D01*
X98885000Y-66715000D02*
X103005000Y-66715000D01*
X98885000Y-64095000D02*
X98885000Y-64655000D01*
X98885000Y-66155000D02*
X98885000Y-66715000D01*
X103005000Y-64095000D02*
X103005000Y-64655000D01*
X103005000Y-66155000D02*
X103005000Y-66715000D01*
X98885000Y-41870000D02*
X103005000Y-41870000D01*
X98885000Y-44490000D02*
X103005000Y-44490000D01*
X98885000Y-41870000D02*
X98885000Y-42430000D01*
X98885000Y-43930000D02*
X98885000Y-44490000D01*
X103005000Y-41870000D02*
X103005000Y-42430000D01*
X103005000Y-43930000D02*
X103005000Y-44490000D01*
X129330000Y-74835000D02*
X122210000Y-74835000D01*
X129330000Y-71215000D02*
X122210000Y-71215000D01*
X129330000Y-74835000D02*
X129330000Y-71215000D01*
X122210000Y-74835000D02*
X122210000Y-71215000D01*
X133445000Y-65830000D02*
X133445000Y-58710000D01*
X137065000Y-65830000D02*
X137065000Y-58710000D01*
X133445000Y-65830000D02*
X137065000Y-65830000D01*
X133445000Y-58710000D02*
X137065000Y-58710000D01*
X129500000Y-64830000D02*
X129500000Y-59710000D01*
X132120000Y-64830000D02*
X132120000Y-59710000D01*
X129500000Y-64830000D02*
X129814000Y-64830000D01*
X131806000Y-64830000D02*
X132120000Y-64830000D01*
X129500000Y-59710000D02*
X129814000Y-59710000D01*
X131806000Y-59710000D02*
X132120000Y-59710000D01*
X122495000Y-53300000D02*
X127615000Y-53300000D01*
X122495000Y-55920000D02*
X127615000Y-55920000D01*
X122495000Y-53300000D02*
X122495000Y-53614000D01*
X122495000Y-55606000D02*
X122495000Y-55920000D01*
X127615000Y-53300000D02*
X127615000Y-53614000D01*
X127615000Y-55606000D02*
X127615000Y-55920000D01*
X52130000Y-44390000D02*
X49470000Y-44390000D01*
X52130000Y-52070000D02*
X52130000Y-44390000D01*
X49470000Y-52070000D02*
X49470000Y-44390000D01*
X52130000Y-52070000D02*
X49470000Y-52070000D01*
X52130000Y-53340000D02*
X52130000Y-54670000D01*
X52130000Y-54670000D02*
X50800000Y-54670000D01*
X46415000Y-52070000D02*
X46415000Y-100390000D01*
X46415000Y-100390000D02*
X41215000Y-100390000D01*
X41215000Y-100390000D02*
X41215000Y-49470000D01*
X41215000Y-49470000D02*
X43815000Y-49470000D01*
X43815000Y-49470000D02*
X43815000Y-52070000D01*
X43815000Y-52070000D02*
X46415000Y-52070000D01*
X46415000Y-50800000D02*
X46415000Y-49470000D01*
X46415000Y-49470000D02*
X45145000Y-49470000D01*
X51375000Y-70545000D02*
X54035000Y-70545000D01*
X51375000Y-65405000D02*
X51375000Y-70545000D01*
X54035000Y-65405000D02*
X54035000Y-70545000D01*
X51375000Y-65405000D02*
X54035000Y-65405000D01*
X51375000Y-64135000D02*
X51375000Y-62805000D01*
X51375000Y-62805000D02*
X52705000Y-62805000D01*
X109445000Y-94660000D02*
X107725000Y-94660000D01*
X107725000Y-94660000D02*
X107725000Y-98380000D01*
X107725000Y-98380000D02*
X109445000Y-98380000D01*
X109445000Y-98380000D02*
X109445000Y-94660000D01*
X108585000Y-93590000D02*
X108585000Y-94660000D01*
X108585000Y-99450000D02*
X108585000Y-98380000D01*
X70260000Y-76790000D02*
X71980000Y-76790000D01*
X71980000Y-76790000D02*
X71980000Y-73070000D01*
X71980000Y-73070000D02*
X70260000Y-73070000D01*
X70260000Y-73070000D02*
X70260000Y-76790000D01*
X71120000Y-77860000D02*
X71120000Y-76790000D01*
X71120000Y-72000000D02*
X71120000Y-73070000D01*
X114075000Y-120605000D02*
X115795000Y-120605000D01*
X115795000Y-120605000D02*
X115795000Y-116885000D01*
X115795000Y-116885000D02*
X114075000Y-116885000D01*
X114075000Y-116885000D02*
X114075000Y-120605000D01*
X114935000Y-121675000D02*
X114935000Y-120605000D01*
X114935000Y-115815000D02*
X114935000Y-116885000D01*
X114075000Y-98380000D02*
X115795000Y-98380000D01*
X115795000Y-98380000D02*
X115795000Y-94660000D01*
X115795000Y-94660000D02*
X114075000Y-94660000D01*
X114075000Y-94660000D02*
X114075000Y-98380000D01*
X114935000Y-99450000D02*
X114935000Y-98380000D01*
X114935000Y-93590000D02*
X114935000Y-94660000D01*
X127590000Y-115795000D02*
X127590000Y-114075000D01*
X127590000Y-114075000D02*
X123870000Y-114075000D01*
X123870000Y-114075000D02*
X123870000Y-115795000D01*
X123870000Y-115795000D02*
X127590000Y-115795000D01*
X128660000Y-114935000D02*
X127590000Y-114935000D01*
X122800000Y-114935000D02*
X123870000Y-114935000D01*
X122600000Y-96295000D02*
X122600000Y-98015000D01*
X122600000Y-98015000D02*
X126320000Y-98015000D01*
X126320000Y-98015000D02*
X126320000Y-96295000D01*
X126320000Y-96295000D02*
X122600000Y-96295000D01*
X121530000Y-97155000D02*
X122600000Y-97155000D01*
X127390000Y-97155000D02*
X126320000Y-97155000D01*
X109445000Y-71800000D02*
X107725000Y-71800000D01*
X107725000Y-71800000D02*
X107725000Y-75520000D01*
X107725000Y-75520000D02*
X109445000Y-75520000D01*
X109445000Y-75520000D02*
X109445000Y-71800000D01*
X108585000Y-70730000D02*
X108585000Y-71800000D01*
X108585000Y-76590000D02*
X108585000Y-75520000D01*
X109445000Y-48940000D02*
X107725000Y-48940000D01*
X107725000Y-48940000D02*
X107725000Y-52660000D01*
X107725000Y-52660000D02*
X109445000Y-52660000D01*
X109445000Y-52660000D02*
X109445000Y-48940000D01*
X108585000Y-47870000D02*
X108585000Y-48940000D01*
X108585000Y-53730000D02*
X108585000Y-52660000D01*
X132940000Y-88310000D02*
X131220000Y-88310000D01*
X131220000Y-88310000D02*
X131220000Y-92030000D01*
X131220000Y-92030000D02*
X132940000Y-92030000D01*
X132940000Y-92030000D02*
X132940000Y-88310000D01*
X132080000Y-87240000D02*
X132080000Y-88310000D01*
X132080000Y-93100000D02*
X132080000Y-92030000D01*
X114075000Y-75520000D02*
X115795000Y-75520000D01*
X115795000Y-75520000D02*
X115795000Y-71800000D01*
X115795000Y-71800000D02*
X114075000Y-71800000D01*
X114075000Y-71800000D02*
X114075000Y-75520000D01*
X114935000Y-76590000D02*
X114935000Y-75520000D01*
X114935000Y-70730000D02*
X114935000Y-71800000D01*
X114075000Y-52660000D02*
X115795000Y-52660000D01*
X115795000Y-52660000D02*
X115795000Y-48940000D01*
X115795000Y-48940000D02*
X114075000Y-48940000D01*
X114075000Y-48940000D02*
X114075000Y-52660000D01*
X114935000Y-53730000D02*
X114935000Y-52660000D01*
X114935000Y-47870000D02*
X114935000Y-48940000D01*
X127590000Y-70075000D02*
X127590000Y-68355000D01*
X127590000Y-68355000D02*
X123870000Y-68355000D01*
X123870000Y-68355000D02*
X123870000Y-70075000D01*
X123870000Y-70075000D02*
X127590000Y-70075000D01*
X128660000Y-69215000D02*
X127590000Y-69215000D01*
X122800000Y-69215000D02*
X123870000Y-69215000D01*
X121965000Y-50575000D02*
X121965000Y-52295000D01*
X121965000Y-52295000D02*
X125685000Y-52295000D01*
X125685000Y-52295000D02*
X125685000Y-50575000D01*
X125685000Y-50575000D02*
X121965000Y-50575000D01*
X120895000Y-51435000D02*
X121965000Y-51435000D01*
X126755000Y-51435000D02*
X125685000Y-51435000D01*
X132490000Y-74885000D02*
X134210000Y-74885000D01*
X134210000Y-74885000D02*
X134210000Y-71165000D01*
X134210000Y-71165000D02*
X132490000Y-71165000D01*
X132490000Y-71165000D02*
X132490000Y-74885000D01*
X133350000Y-75955000D02*
X133350000Y-74885000D01*
X133350000Y-70095000D02*
X133350000Y-71165000D01*
D13*
X63960000Y-64610000D02*
X54960000Y-64610000D01*
X54960000Y-64610000D02*
X54960000Y-42610000D01*
X54960000Y-42610000D02*
X63960000Y-42610000D01*
X63960000Y-42610000D02*
X63960000Y-64610000D01*
D12*
X65135000Y-87570000D02*
G75*
G02X63135000Y-87570000I-1000000J0D01*
G01*
X63135000Y-87570000D02*
X61485000Y-87570000D01*
X61485000Y-87570000D02*
X61485000Y-97850000D01*
X61485000Y-97850000D02*
X66785000Y-97850000D01*
X66785000Y-97850000D02*
X66785000Y-87570000D01*
X66785000Y-87570000D02*
X65135000Y-87570000D01*
X58995000Y-87510000D02*
X58995000Y-97910000D01*
X58995000Y-97910000D02*
X69275000Y-97910000D01*
X69275000Y-97910000D02*
X69275000Y-87510000D01*
X69275000Y-87510000D02*
X58995000Y-87510000D01*
D13*
X60625000Y-68335000D02*
X60625000Y-68910000D01*
X66375000Y-68335000D02*
X66375000Y-68985000D01*
X66375000Y-78985000D02*
X66375000Y-78335000D01*
X60625000Y-78985000D02*
X60625000Y-78335000D01*
X60625000Y-68335000D02*
X66375000Y-68335000D01*
X60625000Y-78985000D02*
X66375000Y-78985000D01*
X60625000Y-68910000D02*
X59025000Y-68910000D01*
D12*
X95825000Y-49800000D02*
G75*
G02X95825000Y-51800000I0J-1000000D01*
G01*
X95825000Y-51800000D02*
X95825000Y-53450000D01*
X95825000Y-53450000D02*
X106105000Y-53450000D01*
X106105000Y-53450000D02*
X106105000Y-48150000D01*
X106105000Y-48150000D02*
X95825000Y-48150000D01*
X95825000Y-48150000D02*
X95825000Y-49800000D01*
X95765000Y-55940000D02*
X106165000Y-55940000D01*
X106165000Y-55940000D02*
X106165000Y-45660000D01*
X106165000Y-45660000D02*
X95765000Y-45660000D01*
X95765000Y-45660000D02*
X95765000Y-55940000D01*
X138490000Y-81855000D02*
X135830000Y-81855000D01*
X138490000Y-86995000D02*
X138490000Y-81855000D01*
X135830000Y-86995000D02*
X135830000Y-81855000D01*
X138490000Y-86995000D02*
X135830000Y-86995000D01*
X138490000Y-88265000D02*
X138490000Y-89595000D01*
X138490000Y-89595000D02*
X137160000Y-89595000D01*
D13*
X96262143Y-118871666D02*
X96309762Y-118919285D01*
X96357381Y-119062142D01*
X96357381Y-119157380D01*
X96309762Y-119300238D01*
X96214524Y-119395476D01*
X96119286Y-119443095D01*
X95928810Y-119490714D01*
X95785952Y-119490714D01*
X95595476Y-119443095D01*
X95500238Y-119395476D01*
X95405000Y-119300238D01*
X95357381Y-119157380D01*
X95357381Y-119062142D01*
X95405000Y-118919285D01*
X95452619Y-118871666D01*
X95357381Y-118538333D02*
X95357381Y-117871666D01*
X96357381Y-118300238D01*
X79407143Y-91817143D02*
X79359524Y-91864762D01*
X79216667Y-91912381D01*
X79121429Y-91912381D01*
X78978571Y-91864762D01*
X78883333Y-91769524D01*
X78835714Y-91674286D01*
X78788095Y-91483810D01*
X78788095Y-91340952D01*
X78835714Y-91150476D01*
X78883333Y-91055238D01*
X78978571Y-90960000D01*
X79121429Y-90912381D01*
X79216667Y-90912381D01*
X79359524Y-90960000D01*
X79407143Y-91007619D01*
X80359524Y-91912381D02*
X79788095Y-91912381D01*
X80073809Y-91912381D02*
X80073809Y-90912381D01*
X79978571Y-91055238D01*
X79883333Y-91150476D01*
X79788095Y-91198095D01*
X81216667Y-91245714D02*
X81216667Y-91912381D01*
X80978571Y-90864762D02*
X80740476Y-91579048D01*
X81359524Y-91579048D01*
X79327143Y-62567143D02*
X79279524Y-62614762D01*
X79136667Y-62662381D01*
X79041429Y-62662381D01*
X78898571Y-62614762D01*
X78803333Y-62519524D01*
X78755714Y-62424286D01*
X78708095Y-62233810D01*
X78708095Y-62090952D01*
X78755714Y-61900476D01*
X78803333Y-61805238D01*
X78898571Y-61710000D01*
X79041429Y-61662381D01*
X79136667Y-61662381D01*
X79279524Y-61710000D01*
X79327143Y-61757619D01*
X80279524Y-62662381D02*
X79708095Y-62662381D01*
X79993809Y-62662381D02*
X79993809Y-61662381D01*
X79898571Y-61805238D01*
X79803333Y-61900476D01*
X79708095Y-61948095D01*
X80850952Y-62090952D02*
X80755714Y-62043333D01*
X80708095Y-61995714D01*
X80660476Y-61900476D01*
X80660476Y-61852857D01*
X80708095Y-61757619D01*
X80755714Y-61710000D01*
X80850952Y-61662381D01*
X81041429Y-61662381D01*
X81136667Y-61710000D01*
X81184286Y-61757619D01*
X81231905Y-61852857D01*
X81231905Y-61900476D01*
X81184286Y-61995714D01*
X81136667Y-62043333D01*
X81041429Y-62090952D01*
X80850952Y-62090952D01*
X80755714Y-62138571D01*
X80708095Y-62186190D01*
X80660476Y-62281429D01*
X80660476Y-62471905D01*
X80708095Y-62567143D01*
X80755714Y-62614762D01*
X80850952Y-62662381D01*
X81041429Y-62662381D01*
X81136667Y-62614762D01*
X81184286Y-62567143D01*
X81231905Y-62471905D01*
X81231905Y-62281429D01*
X81184286Y-62186190D01*
X81136667Y-62138571D01*
X81041429Y-62090952D01*
X79097143Y-54967143D02*
X79049524Y-55014762D01*
X78906667Y-55062381D01*
X78811429Y-55062381D01*
X78668571Y-55014762D01*
X78573333Y-54919524D01*
X78525714Y-54824286D01*
X78478095Y-54633810D01*
X78478095Y-54490952D01*
X78525714Y-54300476D01*
X78573333Y-54205238D01*
X78668571Y-54110000D01*
X78811429Y-54062381D01*
X78906667Y-54062381D01*
X79049524Y-54110000D01*
X79097143Y-54157619D01*
X80049524Y-55062381D02*
X79478095Y-55062381D01*
X79763809Y-55062381D02*
X79763809Y-54062381D01*
X79668571Y-54205238D01*
X79573333Y-54300476D01*
X79478095Y-54348095D01*
X80525714Y-55062381D02*
X80716190Y-55062381D01*
X80811429Y-55014762D01*
X80859048Y-54967143D01*
X80954286Y-54824286D01*
X81001905Y-54633810D01*
X81001905Y-54252857D01*
X80954286Y-54157619D01*
X80906667Y-54110000D01*
X80811429Y-54062381D01*
X80620952Y-54062381D01*
X80525714Y-54110000D01*
X80478095Y-54157619D01*
X80430476Y-54252857D01*
X80430476Y-54490952D01*
X80478095Y-54586190D01*
X80525714Y-54633810D01*
X80620952Y-54681429D01*
X80811429Y-54681429D01*
X80906667Y-54633810D01*
X80954286Y-54586190D01*
X81001905Y-54490952D01*
X128607143Y-108632857D02*
X128654762Y-108680476D01*
X128702381Y-108823333D01*
X128702381Y-108918571D01*
X128654762Y-109061429D01*
X128559524Y-109156667D01*
X128464286Y-109204286D01*
X128273810Y-109251905D01*
X128130952Y-109251905D01*
X127940476Y-109204286D01*
X127845238Y-109156667D01*
X127750000Y-109061429D01*
X127702381Y-108918571D01*
X127702381Y-108823333D01*
X127750000Y-108680476D01*
X127797619Y-108632857D01*
X127797619Y-108251905D02*
X127750000Y-108204286D01*
X127702381Y-108109048D01*
X127702381Y-107870952D01*
X127750000Y-107775714D01*
X127797619Y-107728095D01*
X127892857Y-107680476D01*
X127988095Y-107680476D01*
X128130952Y-107728095D01*
X128702381Y-108299524D01*
X128702381Y-107680476D01*
X127797619Y-107299524D02*
X127750000Y-107251905D01*
X127702381Y-107156667D01*
X127702381Y-106918571D01*
X127750000Y-106823333D01*
X127797619Y-106775714D01*
X127892857Y-106728095D01*
X127988095Y-106728095D01*
X128130952Y-106775714D01*
X128702381Y-107347143D01*
X128702381Y-106728095D01*
X135497143Y-100932857D02*
X135544762Y-100980476D01*
X135592381Y-101123333D01*
X135592381Y-101218571D01*
X135544762Y-101361429D01*
X135449524Y-101456667D01*
X135354286Y-101504286D01*
X135163810Y-101551905D01*
X135020952Y-101551905D01*
X134830476Y-101504286D01*
X134735238Y-101456667D01*
X134640000Y-101361429D01*
X134592381Y-101218571D01*
X134592381Y-101123333D01*
X134640000Y-100980476D01*
X134687619Y-100932857D01*
X134687619Y-100551905D02*
X134640000Y-100504286D01*
X134592381Y-100409048D01*
X134592381Y-100170952D01*
X134640000Y-100075714D01*
X134687619Y-100028095D01*
X134782857Y-99980476D01*
X134878095Y-99980476D01*
X135020952Y-100028095D01*
X135592381Y-100599524D01*
X135592381Y-99980476D01*
X134925714Y-99123333D02*
X135592381Y-99123333D01*
X134544762Y-99361429D02*
X135259048Y-99599524D01*
X135259048Y-98980476D01*
X95627143Y-74262857D02*
X95674762Y-74310476D01*
X95722381Y-74453333D01*
X95722381Y-74548571D01*
X95674762Y-74691429D01*
X95579524Y-74786667D01*
X95484286Y-74834286D01*
X95293810Y-74881905D01*
X95150952Y-74881905D01*
X94960476Y-74834286D01*
X94865238Y-74786667D01*
X94770000Y-74691429D01*
X94722381Y-74548571D01*
X94722381Y-74453333D01*
X94770000Y-74310476D01*
X94817619Y-74262857D01*
X94817619Y-73881905D02*
X94770000Y-73834286D01*
X94722381Y-73739048D01*
X94722381Y-73500952D01*
X94770000Y-73405714D01*
X94817619Y-73358095D01*
X94912857Y-73310476D01*
X95008095Y-73310476D01*
X95150952Y-73358095D01*
X95722381Y-73929524D01*
X95722381Y-73310476D01*
X94722381Y-72977143D02*
X94722381Y-72310476D01*
X95722381Y-72739048D01*
X134862143Y-55212857D02*
X134909762Y-55260476D01*
X134957381Y-55403333D01*
X134957381Y-55498571D01*
X134909762Y-55641429D01*
X134814524Y-55736667D01*
X134719286Y-55784286D01*
X134528810Y-55831905D01*
X134385952Y-55831905D01*
X134195476Y-55784286D01*
X134100238Y-55736667D01*
X134005000Y-55641429D01*
X133957381Y-55498571D01*
X133957381Y-55403333D01*
X134005000Y-55260476D01*
X134052619Y-55212857D01*
X133957381Y-54879524D02*
X133957381Y-54260476D01*
X134338333Y-54593810D01*
X134338333Y-54450952D01*
X134385952Y-54355714D01*
X134433571Y-54308095D01*
X134528810Y-54260476D01*
X134766905Y-54260476D01*
X134862143Y-54308095D01*
X134909762Y-54355714D01*
X134957381Y-54450952D01*
X134957381Y-54736667D01*
X134909762Y-54831905D01*
X134862143Y-54879524D01*
X133957381Y-53927143D02*
X133957381Y-53260476D01*
X134957381Y-53689048D01*
X75231667Y-50042381D02*
X75231667Y-50756667D01*
X75184047Y-50899524D01*
X75088809Y-50994762D01*
X74945952Y-51042381D01*
X74850714Y-51042381D01*
X76231667Y-51042381D02*
X75660238Y-51042381D01*
X75945952Y-51042381D02*
X75945952Y-50042381D01*
X75850714Y-50185238D01*
X75755476Y-50280476D01*
X75660238Y-50328095D01*
X81052381Y-47156666D02*
X80576190Y-47490000D01*
X81052381Y-47728095D02*
X80052381Y-47728095D01*
X80052381Y-47347142D01*
X80100000Y-47251904D01*
X80147619Y-47204285D01*
X80242857Y-47156666D01*
X80385714Y-47156666D01*
X80480952Y-47204285D01*
X80528571Y-47251904D01*
X80576190Y-47347142D01*
X80576190Y-47728095D01*
X81052381Y-46204285D02*
X81052381Y-46775714D01*
X81052381Y-46490000D02*
X80052381Y-46490000D01*
X80195238Y-46585238D01*
X80290476Y-46680476D01*
X80338095Y-46775714D01*
X110897381Y-118911666D02*
X110421190Y-119245000D01*
X110897381Y-119483095D02*
X109897381Y-119483095D01*
X109897381Y-119102142D01*
X109945000Y-119006904D01*
X109992619Y-118959285D01*
X110087857Y-118911666D01*
X110230714Y-118911666D01*
X110325952Y-118959285D01*
X110373571Y-119006904D01*
X110421190Y-119102142D01*
X110421190Y-119483095D01*
X109992619Y-118530714D02*
X109945000Y-118483095D01*
X109897381Y-118387857D01*
X109897381Y-118149761D01*
X109945000Y-118054523D01*
X109992619Y-118006904D01*
X110087857Y-117959285D01*
X110183095Y-117959285D01*
X110325952Y-118006904D01*
X110897381Y-118578333D01*
X110897381Y-117959285D01*
X94277381Y-119506905D02*
X95086905Y-119506905D01*
X95182143Y-119459286D01*
X95229762Y-119411667D01*
X95277381Y-119316429D01*
X95277381Y-119125952D01*
X95229762Y-119030714D01*
X95182143Y-118983095D01*
X95086905Y-118935476D01*
X94277381Y-118935476D01*
X94372619Y-118506905D02*
X94325000Y-118459286D01*
X94277381Y-118364048D01*
X94277381Y-118125952D01*
X94325000Y-118030714D01*
X94372619Y-117983095D01*
X94467857Y-117935476D01*
X94563095Y-117935476D01*
X94705952Y-117983095D01*
X95277381Y-118554524D01*
X95277381Y-117935476D01*
X94277381Y-97281905D02*
X95086905Y-97281905D01*
X95182143Y-97234286D01*
X95229762Y-97186667D01*
X95277381Y-97091429D01*
X95277381Y-96900952D01*
X95229762Y-96805714D01*
X95182143Y-96758095D01*
X95086905Y-96710476D01*
X94277381Y-96710476D01*
X94277381Y-96329524D02*
X94277381Y-95710476D01*
X94658333Y-96043810D01*
X94658333Y-95900952D01*
X94705952Y-95805714D01*
X94753571Y-95758095D01*
X94848810Y-95710476D01*
X95086905Y-95710476D01*
X95182143Y-95758095D01*
X95229762Y-95805714D01*
X95277381Y-95900952D01*
X95277381Y-96186667D01*
X95229762Y-96281905D01*
X95182143Y-96329524D01*
X116502381Y-108711905D02*
X117311905Y-108711905D01*
X117407143Y-108664286D01*
X117454762Y-108616667D01*
X117502381Y-108521429D01*
X117502381Y-108330952D01*
X117454762Y-108235714D01*
X117407143Y-108188095D01*
X117311905Y-108140476D01*
X116502381Y-108140476D01*
X116502381Y-107235714D02*
X116502381Y-107426191D01*
X116550000Y-107521429D01*
X116597619Y-107569048D01*
X116740476Y-107664286D01*
X116930952Y-107711905D01*
X117311905Y-107711905D01*
X117407143Y-107664286D01*
X117454762Y-107616667D01*
X117502381Y-107521429D01*
X117502381Y-107330952D01*
X117454762Y-107235714D01*
X117407143Y-107188095D01*
X117311905Y-107140476D01*
X117073810Y-107140476D01*
X116978571Y-107188095D01*
X116930952Y-107235714D01*
X116883333Y-107330952D01*
X116883333Y-107521429D01*
X116930952Y-107616667D01*
X116978571Y-107664286D01*
X117073810Y-107711905D01*
X94277381Y-74421905D02*
X95086905Y-74421905D01*
X95182143Y-74374286D01*
X95229762Y-74326667D01*
X95277381Y-74231429D01*
X95277381Y-74040952D01*
X95229762Y-73945714D01*
X95182143Y-73898095D01*
X95086905Y-73850476D01*
X94277381Y-73850476D01*
X94277381Y-73469524D02*
X94277381Y-72802857D01*
X95277381Y-73231429D01*
X116502381Y-62991905D02*
X117311905Y-62991905D01*
X117407143Y-62944286D01*
X117454762Y-62896667D01*
X117502381Y-62801429D01*
X117502381Y-62610952D01*
X117454762Y-62515714D01*
X117407143Y-62468095D01*
X117311905Y-62420476D01*
X116502381Y-62420476D01*
X117502381Y-61896667D02*
X117502381Y-61706191D01*
X117454762Y-61610952D01*
X117407143Y-61563333D01*
X117264286Y-61468095D01*
X117073810Y-61420476D01*
X116692857Y-61420476D01*
X116597619Y-61468095D01*
X116550000Y-61515714D01*
X116502381Y-61610952D01*
X116502381Y-61801429D01*
X116550000Y-61896667D01*
X116597619Y-61944286D01*
X116692857Y-61991905D01*
X116930952Y-61991905D01*
X117026190Y-61944286D01*
X117073810Y-61896667D01*
X117121429Y-61801429D01*
X117121429Y-61610952D01*
X117073810Y-61515714D01*
X117026190Y-61468095D01*
X116930952Y-61420476D01*
X72767143Y-45846666D02*
X72814762Y-45894285D01*
X72862381Y-46037142D01*
X72862381Y-46132380D01*
X72814762Y-46275238D01*
X72719524Y-46370476D01*
X72624286Y-46418095D01*
X72433810Y-46465714D01*
X72290952Y-46465714D01*
X72100476Y-46418095D01*
X72005238Y-46370476D01*
X71910000Y-46275238D01*
X71862381Y-46132380D01*
X71862381Y-46037142D01*
X71910000Y-45894285D01*
X71957619Y-45846666D01*
X72862381Y-44894285D02*
X72862381Y-45465714D01*
X72862381Y-45180000D02*
X71862381Y-45180000D01*
X72005238Y-45275238D01*
X72100476Y-45370476D01*
X72148095Y-45465714D01*
X72767143Y-53466666D02*
X72814762Y-53514285D01*
X72862381Y-53657142D01*
X72862381Y-53752380D01*
X72814762Y-53895238D01*
X72719524Y-53990476D01*
X72624286Y-54038095D01*
X72433810Y-54085714D01*
X72290952Y-54085714D01*
X72100476Y-54038095D01*
X72005238Y-53990476D01*
X71910000Y-53895238D01*
X71862381Y-53752380D01*
X71862381Y-53657142D01*
X71910000Y-53514285D01*
X71957619Y-53466666D01*
X71957619Y-53085714D02*
X71910000Y-53038095D01*
X71862381Y-52942857D01*
X71862381Y-52704761D01*
X71910000Y-52609523D01*
X71957619Y-52561904D01*
X72052857Y-52514285D01*
X72148095Y-52514285D01*
X72290952Y-52561904D01*
X72862381Y-53133333D01*
X72862381Y-52514285D01*
X53213334Y-77847143D02*
X53165715Y-77894762D01*
X53022858Y-77942381D01*
X52927620Y-77942381D01*
X52784762Y-77894762D01*
X52689524Y-77799524D01*
X52641905Y-77704286D01*
X52594286Y-77513810D01*
X52594286Y-77370952D01*
X52641905Y-77180476D01*
X52689524Y-77085238D01*
X52784762Y-76990000D01*
X52927620Y-76942381D01*
X53022858Y-76942381D01*
X53165715Y-76990000D01*
X53213334Y-77037619D01*
X53546667Y-76942381D02*
X54165715Y-76942381D01*
X53832381Y-77323333D01*
X53975239Y-77323333D01*
X54070477Y-77370952D01*
X54118096Y-77418571D01*
X54165715Y-77513810D01*
X54165715Y-77751905D01*
X54118096Y-77847143D01*
X54070477Y-77894762D01*
X53975239Y-77942381D01*
X53689524Y-77942381D01*
X53594286Y-77894762D01*
X53546667Y-77847143D01*
X53443334Y-85447143D02*
X53395715Y-85494762D01*
X53252858Y-85542381D01*
X53157620Y-85542381D01*
X53014762Y-85494762D01*
X52919524Y-85399524D01*
X52871905Y-85304286D01*
X52824286Y-85113810D01*
X52824286Y-84970952D01*
X52871905Y-84780476D01*
X52919524Y-84685238D01*
X53014762Y-84590000D01*
X53157620Y-84542381D01*
X53252858Y-84542381D01*
X53395715Y-84590000D01*
X53443334Y-84637619D01*
X54300477Y-84875714D02*
X54300477Y-85542381D01*
X54062381Y-84494762D02*
X53824286Y-85209048D01*
X54443334Y-85209048D01*
X114677143Y-118871666D02*
X114724762Y-118919285D01*
X114772381Y-119062142D01*
X114772381Y-119157380D01*
X114724762Y-119300238D01*
X114629524Y-119395476D01*
X114534286Y-119443095D01*
X114343810Y-119490714D01*
X114200952Y-119490714D01*
X114010476Y-119443095D01*
X113915238Y-119395476D01*
X113820000Y-119300238D01*
X113772381Y-119157380D01*
X113772381Y-119062142D01*
X113820000Y-118919285D01*
X113867619Y-118871666D01*
X113772381Y-117966904D02*
X113772381Y-118443095D01*
X114248571Y-118490714D01*
X114200952Y-118443095D01*
X114153333Y-118347857D01*
X114153333Y-118109761D01*
X114200952Y-118014523D01*
X114248571Y-117966904D01*
X114343810Y-117919285D01*
X114581905Y-117919285D01*
X114677143Y-117966904D01*
X114724762Y-118014523D01*
X114772381Y-118109761D01*
X114772381Y-118347857D01*
X114724762Y-118443095D01*
X114677143Y-118490714D01*
X114677143Y-96646666D02*
X114724762Y-96694285D01*
X114772381Y-96837142D01*
X114772381Y-96932380D01*
X114724762Y-97075238D01*
X114629524Y-97170476D01*
X114534286Y-97218095D01*
X114343810Y-97265714D01*
X114200952Y-97265714D01*
X114010476Y-97218095D01*
X113915238Y-97170476D01*
X113820000Y-97075238D01*
X113772381Y-96932380D01*
X113772381Y-96837142D01*
X113820000Y-96694285D01*
X113867619Y-96646666D01*
X113772381Y-95789523D02*
X113772381Y-95980000D01*
X113820000Y-96075238D01*
X113867619Y-96122857D01*
X114010476Y-96218095D01*
X114200952Y-96265714D01*
X114581905Y-96265714D01*
X114677143Y-96218095D01*
X114724762Y-96170476D01*
X114772381Y-96075238D01*
X114772381Y-95884761D01*
X114724762Y-95789523D01*
X114677143Y-95741904D01*
X114581905Y-95694285D01*
X114343810Y-95694285D01*
X114248571Y-95741904D01*
X114200952Y-95789523D01*
X114153333Y-95884761D01*
X114153333Y-96075238D01*
X114200952Y-96170476D01*
X114248571Y-96218095D01*
X114343810Y-96265714D01*
X103378334Y-129917143D02*
X103330715Y-129964762D01*
X103187858Y-130012381D01*
X103092620Y-130012381D01*
X102949762Y-129964762D01*
X102854524Y-129869524D01*
X102806905Y-129774286D01*
X102759286Y-129583810D01*
X102759286Y-129440952D01*
X102806905Y-129250476D01*
X102854524Y-129155238D01*
X102949762Y-129060000D01*
X103092620Y-129012381D01*
X103187858Y-129012381D01*
X103330715Y-129060000D01*
X103378334Y-129107619D01*
X103949762Y-129440952D02*
X103854524Y-129393333D01*
X103806905Y-129345714D01*
X103759286Y-129250476D01*
X103759286Y-129202857D01*
X103806905Y-129107619D01*
X103854524Y-129060000D01*
X103949762Y-129012381D01*
X104140239Y-129012381D01*
X104235477Y-129060000D01*
X104283096Y-129107619D01*
X104330715Y-129202857D01*
X104330715Y-129250476D01*
X104283096Y-129345714D01*
X104235477Y-129393333D01*
X104140239Y-129440952D01*
X103949762Y-129440952D01*
X103854524Y-129488571D01*
X103806905Y-129536190D01*
X103759286Y-129631429D01*
X103759286Y-129821905D01*
X103806905Y-129917143D01*
X103854524Y-129964762D01*
X103949762Y-130012381D01*
X104140239Y-130012381D01*
X104235477Y-129964762D01*
X104283096Y-129917143D01*
X104330715Y-129821905D01*
X104330715Y-129631429D01*
X104283096Y-129536190D01*
X104235477Y-129488571D01*
X104140239Y-129440952D01*
X95627143Y-96646666D02*
X95674762Y-96694285D01*
X95722381Y-96837142D01*
X95722381Y-96932380D01*
X95674762Y-97075238D01*
X95579524Y-97170476D01*
X95484286Y-97218095D01*
X95293810Y-97265714D01*
X95150952Y-97265714D01*
X94960476Y-97218095D01*
X94865238Y-97170476D01*
X94770000Y-97075238D01*
X94722381Y-96932380D01*
X94722381Y-96837142D01*
X94770000Y-96694285D01*
X94817619Y-96646666D01*
X95722381Y-96170476D02*
X95722381Y-95980000D01*
X95674762Y-95884761D01*
X95627143Y-95837142D01*
X95484286Y-95741904D01*
X95293810Y-95694285D01*
X94912857Y-95694285D01*
X94817619Y-95741904D01*
X94770000Y-95789523D01*
X94722381Y-95884761D01*
X94722381Y-96075238D01*
X94770000Y-96170476D01*
X94817619Y-96218095D01*
X94912857Y-96265714D01*
X95150952Y-96265714D01*
X95246190Y-96218095D01*
X95293810Y-96170476D01*
X95341429Y-96075238D01*
X95341429Y-95884761D01*
X95293810Y-95789523D01*
X95246190Y-95741904D01*
X95150952Y-95694285D01*
X102902143Y-107692143D02*
X102854524Y-107739762D01*
X102711667Y-107787381D01*
X102616429Y-107787381D01*
X102473571Y-107739762D01*
X102378333Y-107644524D01*
X102330714Y-107549286D01*
X102283095Y-107358810D01*
X102283095Y-107215952D01*
X102330714Y-107025476D01*
X102378333Y-106930238D01*
X102473571Y-106835000D01*
X102616429Y-106787381D01*
X102711667Y-106787381D01*
X102854524Y-106835000D01*
X102902143Y-106882619D01*
X103854524Y-107787381D02*
X103283095Y-107787381D01*
X103568809Y-107787381D02*
X103568809Y-106787381D01*
X103473571Y-106930238D01*
X103378333Y-107025476D01*
X103283095Y-107073095D01*
X104473571Y-106787381D02*
X104568810Y-106787381D01*
X104664048Y-106835000D01*
X104711667Y-106882619D01*
X104759286Y-106977857D01*
X104806905Y-107168333D01*
X104806905Y-107406429D01*
X104759286Y-107596905D01*
X104711667Y-107692143D01*
X104664048Y-107739762D01*
X104568810Y-107787381D01*
X104473571Y-107787381D01*
X104378333Y-107739762D01*
X104330714Y-107692143D01*
X104283095Y-107596905D01*
X104235476Y-107406429D01*
X104235476Y-107168333D01*
X104283095Y-106977857D01*
X104330714Y-106882619D01*
X104378333Y-106835000D01*
X104473571Y-106787381D01*
X100302143Y-108922143D02*
X100254524Y-108969762D01*
X100111667Y-109017381D01*
X100016429Y-109017381D01*
X99873571Y-108969762D01*
X99778333Y-108874524D01*
X99730714Y-108779286D01*
X99683095Y-108588810D01*
X99683095Y-108445952D01*
X99730714Y-108255476D01*
X99778333Y-108160238D01*
X99873571Y-108065000D01*
X100016429Y-108017381D01*
X100111667Y-108017381D01*
X100254524Y-108065000D01*
X100302143Y-108112619D01*
X101254524Y-109017381D02*
X100683095Y-109017381D01*
X100968809Y-109017381D02*
X100968809Y-108017381D01*
X100873571Y-108160238D01*
X100778333Y-108255476D01*
X100683095Y-108303095D01*
X102206905Y-109017381D02*
X101635476Y-109017381D01*
X101921190Y-109017381D02*
X101921190Y-108017381D01*
X101825952Y-108160238D01*
X101730714Y-108255476D01*
X101635476Y-108303095D01*
X100302143Y-86062143D02*
X100254524Y-86109762D01*
X100111667Y-86157381D01*
X100016429Y-86157381D01*
X99873571Y-86109762D01*
X99778333Y-86014524D01*
X99730714Y-85919286D01*
X99683095Y-85728810D01*
X99683095Y-85585952D01*
X99730714Y-85395476D01*
X99778333Y-85300238D01*
X99873571Y-85205000D01*
X100016429Y-85157381D01*
X100111667Y-85157381D01*
X100254524Y-85205000D01*
X100302143Y-85252619D01*
X101254524Y-86157381D02*
X100683095Y-86157381D01*
X100968809Y-86157381D02*
X100968809Y-85157381D01*
X100873571Y-85300238D01*
X100778333Y-85395476D01*
X100683095Y-85443095D01*
X101635476Y-85252619D02*
X101683095Y-85205000D01*
X101778333Y-85157381D01*
X102016429Y-85157381D01*
X102111667Y-85205000D01*
X102159286Y-85252619D01*
X102206905Y-85347857D01*
X102206905Y-85443095D01*
X102159286Y-85585952D01*
X101587857Y-86157381D01*
X102206905Y-86157381D01*
X75577143Y-78477143D02*
X75529524Y-78524762D01*
X75386667Y-78572381D01*
X75291429Y-78572381D01*
X75148571Y-78524762D01*
X75053333Y-78429524D01*
X75005714Y-78334286D01*
X74958095Y-78143810D01*
X74958095Y-78000952D01*
X75005714Y-77810476D01*
X75053333Y-77715238D01*
X75148571Y-77620000D01*
X75291429Y-77572381D01*
X75386667Y-77572381D01*
X75529524Y-77620000D01*
X75577143Y-77667619D01*
X76529524Y-78572381D02*
X75958095Y-78572381D01*
X76243809Y-78572381D02*
X76243809Y-77572381D01*
X76148571Y-77715238D01*
X76053333Y-77810476D01*
X75958095Y-77858095D01*
X76862857Y-77572381D02*
X77481905Y-77572381D01*
X77148571Y-77953333D01*
X77291429Y-77953333D01*
X77386667Y-78000952D01*
X77434286Y-78048571D01*
X77481905Y-78143810D01*
X77481905Y-78381905D01*
X77434286Y-78477143D01*
X77386667Y-78524762D01*
X77291429Y-78572381D01*
X77005714Y-78572381D01*
X76910476Y-78524762D01*
X76862857Y-78477143D01*
X79097143Y-90527143D02*
X79049524Y-90574762D01*
X78906667Y-90622381D01*
X78811429Y-90622381D01*
X78668571Y-90574762D01*
X78573333Y-90479524D01*
X78525714Y-90384286D01*
X78478095Y-90193810D01*
X78478095Y-90050952D01*
X78525714Y-89860476D01*
X78573333Y-89765238D01*
X78668571Y-89670000D01*
X78811429Y-89622381D01*
X78906667Y-89622381D01*
X79049524Y-89670000D01*
X79097143Y-89717619D01*
X80049524Y-90622381D02*
X79478095Y-90622381D01*
X79763809Y-90622381D02*
X79763809Y-89622381D01*
X79668571Y-89765238D01*
X79573333Y-89860476D01*
X79478095Y-89908095D01*
X80954286Y-89622381D02*
X80478095Y-89622381D01*
X80430476Y-90098571D01*
X80478095Y-90050952D01*
X80573333Y-90003333D01*
X80811429Y-90003333D01*
X80906667Y-90050952D01*
X80954286Y-90098571D01*
X81001905Y-90193810D01*
X81001905Y-90431905D01*
X80954286Y-90527143D01*
X80906667Y-90574762D01*
X80811429Y-90622381D01*
X80573333Y-90622381D01*
X80478095Y-90574762D01*
X80430476Y-90527143D01*
X75577143Y-86097143D02*
X75529524Y-86144762D01*
X75386667Y-86192381D01*
X75291429Y-86192381D01*
X75148571Y-86144762D01*
X75053333Y-86049524D01*
X75005714Y-85954286D01*
X74958095Y-85763810D01*
X74958095Y-85620952D01*
X75005714Y-85430476D01*
X75053333Y-85335238D01*
X75148571Y-85240000D01*
X75291429Y-85192381D01*
X75386667Y-85192381D01*
X75529524Y-85240000D01*
X75577143Y-85287619D01*
X76529524Y-86192381D02*
X75958095Y-86192381D01*
X76243809Y-86192381D02*
X76243809Y-85192381D01*
X76148571Y-85335238D01*
X76053333Y-85430476D01*
X75958095Y-85478095D01*
X77386667Y-85192381D02*
X77196190Y-85192381D01*
X77100952Y-85240000D01*
X77053333Y-85287619D01*
X76958095Y-85430476D01*
X76910476Y-85620952D01*
X76910476Y-86001905D01*
X76958095Y-86097143D01*
X77005714Y-86144762D01*
X77100952Y-86192381D01*
X77291429Y-86192381D01*
X77386667Y-86144762D01*
X77434286Y-86097143D01*
X77481905Y-86001905D01*
X77481905Y-85763810D01*
X77434286Y-85668571D01*
X77386667Y-85620952D01*
X77291429Y-85573333D01*
X77100952Y-85573333D01*
X77005714Y-85620952D01*
X76958095Y-85668571D01*
X76910476Y-85763810D01*
X87987143Y-75302857D02*
X88034762Y-75350476D01*
X88082381Y-75493333D01*
X88082381Y-75588571D01*
X88034762Y-75731429D01*
X87939524Y-75826667D01*
X87844286Y-75874286D01*
X87653810Y-75921905D01*
X87510952Y-75921905D01*
X87320476Y-75874286D01*
X87225238Y-75826667D01*
X87130000Y-75731429D01*
X87082381Y-75588571D01*
X87082381Y-75493333D01*
X87130000Y-75350476D01*
X87177619Y-75302857D01*
X88082381Y-74350476D02*
X88082381Y-74921905D01*
X88082381Y-74636191D02*
X87082381Y-74636191D01*
X87225238Y-74731429D01*
X87320476Y-74826667D01*
X87368095Y-74921905D01*
X87082381Y-74017143D02*
X87082381Y-73350476D01*
X88082381Y-73779048D01*
X125127143Y-122162143D02*
X125079524Y-122209762D01*
X124936667Y-122257381D01*
X124841429Y-122257381D01*
X124698571Y-122209762D01*
X124603333Y-122114524D01*
X124555714Y-122019286D01*
X124508095Y-121828810D01*
X124508095Y-121685952D01*
X124555714Y-121495476D01*
X124603333Y-121400238D01*
X124698571Y-121305000D01*
X124841429Y-121257381D01*
X124936667Y-121257381D01*
X125079524Y-121305000D01*
X125127143Y-121352619D01*
X125508095Y-121352619D02*
X125555714Y-121305000D01*
X125650952Y-121257381D01*
X125889048Y-121257381D01*
X125984286Y-121305000D01*
X126031905Y-121352619D01*
X126079524Y-121447857D01*
X126079524Y-121543095D01*
X126031905Y-121685952D01*
X125460476Y-122257381D01*
X126079524Y-122257381D01*
X126698571Y-121257381D02*
X126793810Y-121257381D01*
X126889048Y-121305000D01*
X126936667Y-121352619D01*
X126984286Y-121447857D01*
X127031905Y-121638333D01*
X127031905Y-121876429D01*
X126984286Y-122066905D01*
X126936667Y-122162143D01*
X126889048Y-122209762D01*
X126793810Y-122257381D01*
X126698571Y-122257381D01*
X126603333Y-122209762D01*
X126555714Y-122162143D01*
X126508095Y-122066905D01*
X126460476Y-121876429D01*
X126460476Y-121638333D01*
X126508095Y-121447857D01*
X126555714Y-121352619D01*
X126603333Y-121305000D01*
X126698571Y-121257381D01*
X132552143Y-108632857D02*
X132599762Y-108680476D01*
X132647381Y-108823333D01*
X132647381Y-108918571D01*
X132599762Y-109061429D01*
X132504524Y-109156667D01*
X132409286Y-109204286D01*
X132218810Y-109251905D01*
X132075952Y-109251905D01*
X131885476Y-109204286D01*
X131790238Y-109156667D01*
X131695000Y-109061429D01*
X131647381Y-108918571D01*
X131647381Y-108823333D01*
X131695000Y-108680476D01*
X131742619Y-108632857D01*
X131742619Y-108251905D02*
X131695000Y-108204286D01*
X131647381Y-108109048D01*
X131647381Y-107870952D01*
X131695000Y-107775714D01*
X131742619Y-107728095D01*
X131837857Y-107680476D01*
X131933095Y-107680476D01*
X132075952Y-107728095D01*
X132647381Y-108299524D01*
X132647381Y-107680476D01*
X132647381Y-106728095D02*
X132647381Y-107299524D01*
X132647381Y-107013810D02*
X131647381Y-107013810D01*
X131790238Y-107109048D01*
X131885476Y-107204286D01*
X131933095Y-107299524D01*
X124412143Y-98127143D02*
X124364524Y-98174762D01*
X124221667Y-98222381D01*
X124126429Y-98222381D01*
X123983571Y-98174762D01*
X123888333Y-98079524D01*
X123840714Y-97984286D01*
X123793095Y-97793810D01*
X123793095Y-97650952D01*
X123840714Y-97460476D01*
X123888333Y-97365238D01*
X123983571Y-97270000D01*
X124126429Y-97222381D01*
X124221667Y-97222381D01*
X124364524Y-97270000D01*
X124412143Y-97317619D01*
X124793095Y-97317619D02*
X124840714Y-97270000D01*
X124935952Y-97222381D01*
X125174048Y-97222381D01*
X125269286Y-97270000D01*
X125316905Y-97317619D01*
X125364524Y-97412857D01*
X125364524Y-97508095D01*
X125316905Y-97650952D01*
X124745476Y-98222381D01*
X125364524Y-98222381D01*
X125697857Y-97222381D02*
X126316905Y-97222381D01*
X125983571Y-97603333D01*
X126126429Y-97603333D01*
X126221667Y-97650952D01*
X126269286Y-97698571D01*
X126316905Y-97793810D01*
X126316905Y-98031905D01*
X126269286Y-98127143D01*
X126221667Y-98174762D01*
X126126429Y-98222381D01*
X125840714Y-98222381D01*
X125745476Y-98174762D01*
X125697857Y-98127143D01*
X114677143Y-74262857D02*
X114724762Y-74310476D01*
X114772381Y-74453333D01*
X114772381Y-74548571D01*
X114724762Y-74691429D01*
X114629524Y-74786667D01*
X114534286Y-74834286D01*
X114343810Y-74881905D01*
X114200952Y-74881905D01*
X114010476Y-74834286D01*
X113915238Y-74786667D01*
X113820000Y-74691429D01*
X113772381Y-74548571D01*
X113772381Y-74453333D01*
X113820000Y-74310476D01*
X113867619Y-74262857D01*
X113867619Y-73881905D02*
X113820000Y-73834286D01*
X113772381Y-73739048D01*
X113772381Y-73500952D01*
X113820000Y-73405714D01*
X113867619Y-73358095D01*
X113962857Y-73310476D01*
X114058095Y-73310476D01*
X114200952Y-73358095D01*
X114772381Y-73929524D01*
X114772381Y-73310476D01*
X113772381Y-72405714D02*
X113772381Y-72881905D01*
X114248571Y-72929524D01*
X114200952Y-72881905D01*
X114153333Y-72786667D01*
X114153333Y-72548571D01*
X114200952Y-72453333D01*
X114248571Y-72405714D01*
X114343810Y-72358095D01*
X114581905Y-72358095D01*
X114677143Y-72405714D01*
X114724762Y-72453333D01*
X114772381Y-72548571D01*
X114772381Y-72786667D01*
X114724762Y-72881905D01*
X114677143Y-72929524D01*
X114677143Y-51402857D02*
X114724762Y-51450476D01*
X114772381Y-51593333D01*
X114772381Y-51688571D01*
X114724762Y-51831429D01*
X114629524Y-51926667D01*
X114534286Y-51974286D01*
X114343810Y-52021905D01*
X114200952Y-52021905D01*
X114010476Y-51974286D01*
X113915238Y-51926667D01*
X113820000Y-51831429D01*
X113772381Y-51688571D01*
X113772381Y-51593333D01*
X113820000Y-51450476D01*
X113867619Y-51402857D01*
X113867619Y-51021905D02*
X113820000Y-50974286D01*
X113772381Y-50879048D01*
X113772381Y-50640952D01*
X113820000Y-50545714D01*
X113867619Y-50498095D01*
X113962857Y-50450476D01*
X114058095Y-50450476D01*
X114200952Y-50498095D01*
X114772381Y-51069524D01*
X114772381Y-50450476D01*
X113772381Y-49593333D02*
X113772381Y-49783810D01*
X113820000Y-49879048D01*
X113867619Y-49926667D01*
X114010476Y-50021905D01*
X114200952Y-50069524D01*
X114581905Y-50069524D01*
X114677143Y-50021905D01*
X114724762Y-49974286D01*
X114772381Y-49879048D01*
X114772381Y-49688571D01*
X114724762Y-49593333D01*
X114677143Y-49545714D01*
X114581905Y-49498095D01*
X114343810Y-49498095D01*
X114248571Y-49545714D01*
X114200952Y-49593333D01*
X114153333Y-49688571D01*
X114153333Y-49879048D01*
X114200952Y-49974286D01*
X114248571Y-50021905D01*
X114343810Y-50069524D01*
X102902143Y-84832143D02*
X102854524Y-84879762D01*
X102711667Y-84927381D01*
X102616429Y-84927381D01*
X102473571Y-84879762D01*
X102378333Y-84784524D01*
X102330714Y-84689286D01*
X102283095Y-84498810D01*
X102283095Y-84355952D01*
X102330714Y-84165476D01*
X102378333Y-84070238D01*
X102473571Y-83975000D01*
X102616429Y-83927381D01*
X102711667Y-83927381D01*
X102854524Y-83975000D01*
X102902143Y-84022619D01*
X103283095Y-84022619D02*
X103330714Y-83975000D01*
X103425952Y-83927381D01*
X103664048Y-83927381D01*
X103759286Y-83975000D01*
X103806905Y-84022619D01*
X103854524Y-84117857D01*
X103854524Y-84213095D01*
X103806905Y-84355952D01*
X103235476Y-84927381D01*
X103854524Y-84927381D01*
X104425952Y-84355952D02*
X104330714Y-84308333D01*
X104283095Y-84260714D01*
X104235476Y-84165476D01*
X104235476Y-84117857D01*
X104283095Y-84022619D01*
X104330714Y-83975000D01*
X104425952Y-83927381D01*
X104616429Y-83927381D01*
X104711667Y-83975000D01*
X104759286Y-84022619D01*
X104806905Y-84117857D01*
X104806905Y-84165476D01*
X104759286Y-84260714D01*
X104711667Y-84308333D01*
X104616429Y-84355952D01*
X104425952Y-84355952D01*
X104330714Y-84403571D01*
X104283095Y-84451190D01*
X104235476Y-84546429D01*
X104235476Y-84736905D01*
X104283095Y-84832143D01*
X104330714Y-84879762D01*
X104425952Y-84927381D01*
X104616429Y-84927381D01*
X104711667Y-84879762D01*
X104759286Y-84832143D01*
X104806905Y-84736905D01*
X104806905Y-84546429D01*
X104759286Y-84451190D01*
X104711667Y-84403571D01*
X104616429Y-84355952D01*
X95627143Y-51402857D02*
X95674762Y-51450476D01*
X95722381Y-51593333D01*
X95722381Y-51688571D01*
X95674762Y-51831429D01*
X95579524Y-51926667D01*
X95484286Y-51974286D01*
X95293810Y-52021905D01*
X95150952Y-52021905D01*
X94960476Y-51974286D01*
X94865238Y-51926667D01*
X94770000Y-51831429D01*
X94722381Y-51688571D01*
X94722381Y-51593333D01*
X94770000Y-51450476D01*
X94817619Y-51402857D01*
X94817619Y-51021905D02*
X94770000Y-50974286D01*
X94722381Y-50879048D01*
X94722381Y-50640952D01*
X94770000Y-50545714D01*
X94817619Y-50498095D01*
X94912857Y-50450476D01*
X95008095Y-50450476D01*
X95150952Y-50498095D01*
X95722381Y-51069524D01*
X95722381Y-50450476D01*
X95722381Y-49974286D02*
X95722381Y-49783810D01*
X95674762Y-49688571D01*
X95627143Y-49640952D01*
X95484286Y-49545714D01*
X95293810Y-49498095D01*
X94912857Y-49498095D01*
X94817619Y-49545714D01*
X94770000Y-49593333D01*
X94722381Y-49688571D01*
X94722381Y-49879048D01*
X94770000Y-49974286D01*
X94817619Y-50021905D01*
X94912857Y-50069524D01*
X95150952Y-50069524D01*
X95246190Y-50021905D01*
X95293810Y-49974286D01*
X95341429Y-49879048D01*
X95341429Y-49688571D01*
X95293810Y-49593333D01*
X95246190Y-49545714D01*
X95150952Y-49498095D01*
X102902143Y-61972143D02*
X102854524Y-62019762D01*
X102711667Y-62067381D01*
X102616429Y-62067381D01*
X102473571Y-62019762D01*
X102378333Y-61924524D01*
X102330714Y-61829286D01*
X102283095Y-61638810D01*
X102283095Y-61495952D01*
X102330714Y-61305476D01*
X102378333Y-61210238D01*
X102473571Y-61115000D01*
X102616429Y-61067381D01*
X102711667Y-61067381D01*
X102854524Y-61115000D01*
X102902143Y-61162619D01*
X103235476Y-61067381D02*
X103854524Y-61067381D01*
X103521190Y-61448333D01*
X103664048Y-61448333D01*
X103759286Y-61495952D01*
X103806905Y-61543571D01*
X103854524Y-61638810D01*
X103854524Y-61876905D01*
X103806905Y-61972143D01*
X103759286Y-62019762D01*
X103664048Y-62067381D01*
X103378333Y-62067381D01*
X103283095Y-62019762D01*
X103235476Y-61972143D01*
X104473571Y-61067381D02*
X104568810Y-61067381D01*
X104664048Y-61115000D01*
X104711667Y-61162619D01*
X104759286Y-61257857D01*
X104806905Y-61448333D01*
X104806905Y-61686429D01*
X104759286Y-61876905D01*
X104711667Y-61972143D01*
X104664048Y-62019762D01*
X104568810Y-62067381D01*
X104473571Y-62067381D01*
X104378333Y-62019762D01*
X104330714Y-61972143D01*
X104283095Y-61876905D01*
X104235476Y-61686429D01*
X104235476Y-61448333D01*
X104283095Y-61257857D01*
X104330714Y-61162619D01*
X104378333Y-61115000D01*
X104473571Y-61067381D01*
X100302143Y-63202143D02*
X100254524Y-63249762D01*
X100111667Y-63297381D01*
X100016429Y-63297381D01*
X99873571Y-63249762D01*
X99778333Y-63154524D01*
X99730714Y-63059286D01*
X99683095Y-62868810D01*
X99683095Y-62725952D01*
X99730714Y-62535476D01*
X99778333Y-62440238D01*
X99873571Y-62345000D01*
X100016429Y-62297381D01*
X100111667Y-62297381D01*
X100254524Y-62345000D01*
X100302143Y-62392619D01*
X100635476Y-62297381D02*
X101254524Y-62297381D01*
X100921190Y-62678333D01*
X101064048Y-62678333D01*
X101159286Y-62725952D01*
X101206905Y-62773571D01*
X101254524Y-62868810D01*
X101254524Y-63106905D01*
X101206905Y-63202143D01*
X101159286Y-63249762D01*
X101064048Y-63297381D01*
X100778333Y-63297381D01*
X100683095Y-63249762D01*
X100635476Y-63202143D01*
X102206905Y-63297381D02*
X101635476Y-63297381D01*
X101921190Y-63297381D02*
X101921190Y-62297381D01*
X101825952Y-62440238D01*
X101730714Y-62535476D01*
X101635476Y-62583095D01*
X100302143Y-40977143D02*
X100254524Y-41024762D01*
X100111667Y-41072381D01*
X100016429Y-41072381D01*
X99873571Y-41024762D01*
X99778333Y-40929524D01*
X99730714Y-40834286D01*
X99683095Y-40643810D01*
X99683095Y-40500952D01*
X99730714Y-40310476D01*
X99778333Y-40215238D01*
X99873571Y-40120000D01*
X100016429Y-40072381D01*
X100111667Y-40072381D01*
X100254524Y-40120000D01*
X100302143Y-40167619D01*
X100635476Y-40072381D02*
X101254524Y-40072381D01*
X100921190Y-40453333D01*
X101064048Y-40453333D01*
X101159286Y-40500952D01*
X101206905Y-40548571D01*
X101254524Y-40643810D01*
X101254524Y-40881905D01*
X101206905Y-40977143D01*
X101159286Y-41024762D01*
X101064048Y-41072381D01*
X100778333Y-41072381D01*
X100683095Y-41024762D01*
X100635476Y-40977143D01*
X101635476Y-40167619D02*
X101683095Y-40120000D01*
X101778333Y-40072381D01*
X102016429Y-40072381D01*
X102111667Y-40120000D01*
X102159286Y-40167619D01*
X102206905Y-40262857D01*
X102206905Y-40358095D01*
X102159286Y-40500952D01*
X101587857Y-41072381D01*
X102206905Y-41072381D01*
X125127143Y-76442143D02*
X125079524Y-76489762D01*
X124936667Y-76537381D01*
X124841429Y-76537381D01*
X124698571Y-76489762D01*
X124603333Y-76394524D01*
X124555714Y-76299286D01*
X124508095Y-76108810D01*
X124508095Y-75965952D01*
X124555714Y-75775476D01*
X124603333Y-75680238D01*
X124698571Y-75585000D01*
X124841429Y-75537381D01*
X124936667Y-75537381D01*
X125079524Y-75585000D01*
X125127143Y-75632619D01*
X125460476Y-75537381D02*
X126079524Y-75537381D01*
X125746190Y-75918333D01*
X125889048Y-75918333D01*
X125984286Y-75965952D01*
X126031905Y-76013571D01*
X126079524Y-76108810D01*
X126079524Y-76346905D01*
X126031905Y-76442143D01*
X125984286Y-76489762D01*
X125889048Y-76537381D01*
X125603333Y-76537381D01*
X125508095Y-76489762D01*
X125460476Y-76442143D01*
X126412857Y-75537381D02*
X127031905Y-75537381D01*
X126698571Y-75918333D01*
X126841429Y-75918333D01*
X126936667Y-75965952D01*
X126984286Y-76013571D01*
X127031905Y-76108810D01*
X127031905Y-76346905D01*
X126984286Y-76442143D01*
X126936667Y-76489762D01*
X126841429Y-76537381D01*
X126555714Y-76537381D01*
X126460476Y-76489762D01*
X126412857Y-76442143D01*
X132552143Y-62912857D02*
X132599762Y-62960476D01*
X132647381Y-63103333D01*
X132647381Y-63198571D01*
X132599762Y-63341429D01*
X132504524Y-63436667D01*
X132409286Y-63484286D01*
X132218810Y-63531905D01*
X132075952Y-63531905D01*
X131885476Y-63484286D01*
X131790238Y-63436667D01*
X131695000Y-63341429D01*
X131647381Y-63198571D01*
X131647381Y-63103333D01*
X131695000Y-62960476D01*
X131742619Y-62912857D01*
X131647381Y-62579524D02*
X131647381Y-61960476D01*
X132028333Y-62293810D01*
X132028333Y-62150952D01*
X132075952Y-62055714D01*
X132123571Y-62008095D01*
X132218810Y-61960476D01*
X132456905Y-61960476D01*
X132552143Y-62008095D01*
X132599762Y-62055714D01*
X132647381Y-62150952D01*
X132647381Y-62436667D01*
X132599762Y-62531905D01*
X132552143Y-62579524D01*
X131980714Y-61103333D02*
X132647381Y-61103333D01*
X131599762Y-61341429D02*
X132314048Y-61579524D01*
X132314048Y-60960476D01*
X128607143Y-62912857D02*
X128654762Y-62960476D01*
X128702381Y-63103333D01*
X128702381Y-63198571D01*
X128654762Y-63341429D01*
X128559524Y-63436667D01*
X128464286Y-63484286D01*
X128273810Y-63531905D01*
X128130952Y-63531905D01*
X127940476Y-63484286D01*
X127845238Y-63436667D01*
X127750000Y-63341429D01*
X127702381Y-63198571D01*
X127702381Y-63103333D01*
X127750000Y-62960476D01*
X127797619Y-62912857D01*
X127702381Y-62579524D02*
X127702381Y-61960476D01*
X128083333Y-62293810D01*
X128083333Y-62150952D01*
X128130952Y-62055714D01*
X128178571Y-62008095D01*
X128273810Y-61960476D01*
X128511905Y-61960476D01*
X128607143Y-62008095D01*
X128654762Y-62055714D01*
X128702381Y-62150952D01*
X128702381Y-62436667D01*
X128654762Y-62531905D01*
X128607143Y-62579524D01*
X127702381Y-61055714D02*
X127702381Y-61531905D01*
X128178571Y-61579524D01*
X128130952Y-61531905D01*
X128083333Y-61436667D01*
X128083333Y-61198571D01*
X128130952Y-61103333D01*
X128178571Y-61055714D01*
X128273810Y-61008095D01*
X128511905Y-61008095D01*
X128607143Y-61055714D01*
X128654762Y-61103333D01*
X128702381Y-61198571D01*
X128702381Y-61436667D01*
X128654762Y-61531905D01*
X128607143Y-61579524D01*
X124412143Y-52407143D02*
X124364524Y-52454762D01*
X124221667Y-52502381D01*
X124126429Y-52502381D01*
X123983571Y-52454762D01*
X123888333Y-52359524D01*
X123840714Y-52264286D01*
X123793095Y-52073810D01*
X123793095Y-51930952D01*
X123840714Y-51740476D01*
X123888333Y-51645238D01*
X123983571Y-51550000D01*
X124126429Y-51502381D01*
X124221667Y-51502381D01*
X124364524Y-51550000D01*
X124412143Y-51597619D01*
X124745476Y-51502381D02*
X125364524Y-51502381D01*
X125031190Y-51883333D01*
X125174048Y-51883333D01*
X125269286Y-51930952D01*
X125316905Y-51978571D01*
X125364524Y-52073810D01*
X125364524Y-52311905D01*
X125316905Y-52407143D01*
X125269286Y-52454762D01*
X125174048Y-52502381D01*
X124888333Y-52502381D01*
X124793095Y-52454762D01*
X124745476Y-52407143D01*
X126221667Y-51502381D02*
X126031190Y-51502381D01*
X125935952Y-51550000D01*
X125888333Y-51597619D01*
X125793095Y-51740476D01*
X125745476Y-51930952D01*
X125745476Y-52311905D01*
X125793095Y-52407143D01*
X125840714Y-52454762D01*
X125935952Y-52502381D01*
X126126429Y-52502381D01*
X126221667Y-52454762D01*
X126269286Y-52407143D01*
X126316905Y-52311905D01*
X126316905Y-52073810D01*
X126269286Y-51978571D01*
X126221667Y-51930952D01*
X126126429Y-51883333D01*
X125935952Y-51883333D01*
X125840714Y-51930952D01*
X125793095Y-51978571D01*
X125745476Y-52073810D01*
X50466667Y-55122381D02*
X50466667Y-55836667D01*
X50419047Y-55979524D01*
X50323809Y-56074762D01*
X50180952Y-56122381D01*
X50085714Y-56122381D01*
X50895238Y-55217619D02*
X50942857Y-55170000D01*
X51038095Y-55122381D01*
X51276191Y-55122381D01*
X51371429Y-55170000D01*
X51419048Y-55217619D01*
X51466667Y-55312857D01*
X51466667Y-55408095D01*
X51419048Y-55550952D01*
X50847619Y-56122381D01*
X51466667Y-56122381D01*
X43481667Y-47922381D02*
X43481667Y-48636667D01*
X43434047Y-48779524D01*
X43338809Y-48874762D01*
X43195952Y-48922381D01*
X43100714Y-48922381D01*
X43862619Y-47922381D02*
X44481667Y-47922381D01*
X44148333Y-48303333D01*
X44291191Y-48303333D01*
X44386429Y-48350952D01*
X44434048Y-48398571D01*
X44481667Y-48493810D01*
X44481667Y-48731905D01*
X44434048Y-48827143D01*
X44386429Y-48874762D01*
X44291191Y-48922381D01*
X44005476Y-48922381D01*
X43910238Y-48874762D01*
X43862619Y-48827143D01*
X52371667Y-61257381D02*
X52371667Y-61971667D01*
X52324047Y-62114524D01*
X52228809Y-62209762D01*
X52085952Y-62257381D01*
X51990714Y-62257381D01*
X53276429Y-61590714D02*
X53276429Y-62257381D01*
X53038333Y-61209762D02*
X52800238Y-61924048D01*
X53419286Y-61924048D01*
X110897381Y-96686666D02*
X110421190Y-97020000D01*
X110897381Y-97258095D02*
X109897381Y-97258095D01*
X109897381Y-96877142D01*
X109945000Y-96781904D01*
X109992619Y-96734285D01*
X110087857Y-96686666D01*
X110230714Y-96686666D01*
X110325952Y-96734285D01*
X110373571Y-96781904D01*
X110421190Y-96877142D01*
X110421190Y-97258095D01*
X109897381Y-96353333D02*
X109897381Y-95734285D01*
X110278333Y-96067619D01*
X110278333Y-95924761D01*
X110325952Y-95829523D01*
X110373571Y-95781904D01*
X110468810Y-95734285D01*
X110706905Y-95734285D01*
X110802143Y-95781904D01*
X110849762Y-95829523D01*
X110897381Y-95924761D01*
X110897381Y-96210476D01*
X110849762Y-96305714D01*
X110802143Y-96353333D01*
X69712381Y-75096666D02*
X69236190Y-75430000D01*
X69712381Y-75668095D02*
X68712381Y-75668095D01*
X68712381Y-75287142D01*
X68760000Y-75191904D01*
X68807619Y-75144285D01*
X68902857Y-75096666D01*
X69045714Y-75096666D01*
X69140952Y-75144285D01*
X69188571Y-75191904D01*
X69236190Y-75287142D01*
X69236190Y-75668095D01*
X69045714Y-74239523D02*
X69712381Y-74239523D01*
X68664762Y-74477619D02*
X69379048Y-74715714D01*
X69379048Y-74096666D01*
X113527381Y-118911666D02*
X113051190Y-119245000D01*
X113527381Y-119483095D02*
X112527381Y-119483095D01*
X112527381Y-119102142D01*
X112575000Y-119006904D01*
X112622619Y-118959285D01*
X112717857Y-118911666D01*
X112860714Y-118911666D01*
X112955952Y-118959285D01*
X113003571Y-119006904D01*
X113051190Y-119102142D01*
X113051190Y-119483095D01*
X112527381Y-118006904D02*
X112527381Y-118483095D01*
X113003571Y-118530714D01*
X112955952Y-118483095D01*
X112908333Y-118387857D01*
X112908333Y-118149761D01*
X112955952Y-118054523D01*
X113003571Y-118006904D01*
X113098810Y-117959285D01*
X113336905Y-117959285D01*
X113432143Y-118006904D01*
X113479762Y-118054523D01*
X113527381Y-118149761D01*
X113527381Y-118387857D01*
X113479762Y-118483095D01*
X113432143Y-118530714D01*
X113527381Y-96686666D02*
X113051190Y-97020000D01*
X113527381Y-97258095D02*
X112527381Y-97258095D01*
X112527381Y-96877142D01*
X112575000Y-96781904D01*
X112622619Y-96734285D01*
X112717857Y-96686666D01*
X112860714Y-96686666D01*
X112955952Y-96734285D01*
X113003571Y-96781904D01*
X113051190Y-96877142D01*
X113051190Y-97258095D01*
X112527381Y-95829523D02*
X112527381Y-96020000D01*
X112575000Y-96115238D01*
X112622619Y-96162857D01*
X112765476Y-96258095D01*
X112955952Y-96305714D01*
X113336905Y-96305714D01*
X113432143Y-96258095D01*
X113479762Y-96210476D01*
X113527381Y-96115238D01*
X113527381Y-95924761D01*
X113479762Y-95829523D01*
X113432143Y-95781904D01*
X113336905Y-95734285D01*
X113098810Y-95734285D01*
X113003571Y-95781904D01*
X112955952Y-95829523D01*
X112908333Y-95924761D01*
X112908333Y-96115238D01*
X112955952Y-96210476D01*
X113003571Y-96258095D01*
X113098810Y-96305714D01*
X125563334Y-117247381D02*
X125230000Y-116771190D01*
X124991905Y-117247381D02*
X124991905Y-116247381D01*
X125372858Y-116247381D01*
X125468096Y-116295000D01*
X125515715Y-116342619D01*
X125563334Y-116437857D01*
X125563334Y-116580714D01*
X125515715Y-116675952D01*
X125468096Y-116723571D01*
X125372858Y-116771190D01*
X124991905Y-116771190D01*
X125896667Y-116247381D02*
X126563334Y-116247381D01*
X126134762Y-117247381D01*
X124293334Y-95747381D02*
X123960000Y-95271190D01*
X123721905Y-95747381D02*
X123721905Y-94747381D01*
X124102858Y-94747381D01*
X124198096Y-94795000D01*
X124245715Y-94842619D01*
X124293334Y-94937857D01*
X124293334Y-95080714D01*
X124245715Y-95175952D01*
X124198096Y-95223571D01*
X124102858Y-95271190D01*
X123721905Y-95271190D01*
X124864762Y-95175952D02*
X124769524Y-95128333D01*
X124721905Y-95080714D01*
X124674286Y-94985476D01*
X124674286Y-94937857D01*
X124721905Y-94842619D01*
X124769524Y-94795000D01*
X124864762Y-94747381D01*
X125055239Y-94747381D01*
X125150477Y-94795000D01*
X125198096Y-94842619D01*
X125245715Y-94937857D01*
X125245715Y-94985476D01*
X125198096Y-95080714D01*
X125150477Y-95128333D01*
X125055239Y-95175952D01*
X124864762Y-95175952D01*
X124769524Y-95223571D01*
X124721905Y-95271190D01*
X124674286Y-95366429D01*
X124674286Y-95556905D01*
X124721905Y-95652143D01*
X124769524Y-95699762D01*
X124864762Y-95747381D01*
X125055239Y-95747381D01*
X125150477Y-95699762D01*
X125198096Y-95652143D01*
X125245715Y-95556905D01*
X125245715Y-95366429D01*
X125198096Y-95271190D01*
X125150477Y-95223571D01*
X125055239Y-95175952D01*
X110897381Y-73826666D02*
X110421190Y-74160000D01*
X110897381Y-74398095D02*
X109897381Y-74398095D01*
X109897381Y-74017142D01*
X109945000Y-73921904D01*
X109992619Y-73874285D01*
X110087857Y-73826666D01*
X110230714Y-73826666D01*
X110325952Y-73874285D01*
X110373571Y-73921904D01*
X110421190Y-74017142D01*
X110421190Y-74398095D01*
X110897381Y-73350476D02*
X110897381Y-73160000D01*
X110849762Y-73064761D01*
X110802143Y-73017142D01*
X110659286Y-72921904D01*
X110468810Y-72874285D01*
X110087857Y-72874285D01*
X109992619Y-72921904D01*
X109945000Y-72969523D01*
X109897381Y-73064761D01*
X109897381Y-73255238D01*
X109945000Y-73350476D01*
X109992619Y-73398095D01*
X110087857Y-73445714D01*
X110325952Y-73445714D01*
X110421190Y-73398095D01*
X110468810Y-73350476D01*
X110516429Y-73255238D01*
X110516429Y-73064761D01*
X110468810Y-72969523D01*
X110421190Y-72921904D01*
X110325952Y-72874285D01*
X110897381Y-51442857D02*
X110421190Y-51776191D01*
X110897381Y-52014286D02*
X109897381Y-52014286D01*
X109897381Y-51633333D01*
X109945000Y-51538095D01*
X109992619Y-51490476D01*
X110087857Y-51442857D01*
X110230714Y-51442857D01*
X110325952Y-51490476D01*
X110373571Y-51538095D01*
X110421190Y-51633333D01*
X110421190Y-52014286D01*
X110897381Y-50490476D02*
X110897381Y-51061905D01*
X110897381Y-50776191D02*
X109897381Y-50776191D01*
X110040238Y-50871429D01*
X110135476Y-50966667D01*
X110183095Y-51061905D01*
X109897381Y-49871429D02*
X109897381Y-49776190D01*
X109945000Y-49680952D01*
X109992619Y-49633333D01*
X110087857Y-49585714D01*
X110278333Y-49538095D01*
X110516429Y-49538095D01*
X110706905Y-49585714D01*
X110802143Y-49633333D01*
X110849762Y-49680952D01*
X110897381Y-49776190D01*
X110897381Y-49871429D01*
X110849762Y-49966667D01*
X110802143Y-50014286D01*
X110706905Y-50061905D01*
X110516429Y-50109524D01*
X110278333Y-50109524D01*
X110087857Y-50061905D01*
X109992619Y-50014286D01*
X109945000Y-49966667D01*
X109897381Y-49871429D01*
X134392381Y-90812857D02*
X133916190Y-91146191D01*
X134392381Y-91384286D02*
X133392381Y-91384286D01*
X133392381Y-91003333D01*
X133440000Y-90908095D01*
X133487619Y-90860476D01*
X133582857Y-90812857D01*
X133725714Y-90812857D01*
X133820952Y-90860476D01*
X133868571Y-90908095D01*
X133916190Y-91003333D01*
X133916190Y-91384286D01*
X134392381Y-89860476D02*
X134392381Y-90431905D01*
X134392381Y-90146191D02*
X133392381Y-90146191D01*
X133535238Y-90241429D01*
X133630476Y-90336667D01*
X133678095Y-90431905D01*
X134392381Y-88908095D02*
X134392381Y-89479524D01*
X134392381Y-89193810D02*
X133392381Y-89193810D01*
X133535238Y-89289048D01*
X133630476Y-89384286D01*
X133678095Y-89479524D01*
X113527381Y-74302857D02*
X113051190Y-74636191D01*
X113527381Y-74874286D02*
X112527381Y-74874286D01*
X112527381Y-74493333D01*
X112575000Y-74398095D01*
X112622619Y-74350476D01*
X112717857Y-74302857D01*
X112860714Y-74302857D01*
X112955952Y-74350476D01*
X113003571Y-74398095D01*
X113051190Y-74493333D01*
X113051190Y-74874286D01*
X113527381Y-73350476D02*
X113527381Y-73921905D01*
X113527381Y-73636191D02*
X112527381Y-73636191D01*
X112670238Y-73731429D01*
X112765476Y-73826667D01*
X112813095Y-73921905D01*
X112622619Y-72969524D02*
X112575000Y-72921905D01*
X112527381Y-72826667D01*
X112527381Y-72588571D01*
X112575000Y-72493333D01*
X112622619Y-72445714D01*
X112717857Y-72398095D01*
X112813095Y-72398095D01*
X112955952Y-72445714D01*
X113527381Y-73017143D01*
X113527381Y-72398095D01*
X113527381Y-51442857D02*
X113051190Y-51776191D01*
X113527381Y-52014286D02*
X112527381Y-52014286D01*
X112527381Y-51633333D01*
X112575000Y-51538095D01*
X112622619Y-51490476D01*
X112717857Y-51442857D01*
X112860714Y-51442857D01*
X112955952Y-51490476D01*
X113003571Y-51538095D01*
X113051190Y-51633333D01*
X113051190Y-52014286D01*
X113527381Y-50490476D02*
X113527381Y-51061905D01*
X113527381Y-50776191D02*
X112527381Y-50776191D01*
X112670238Y-50871429D01*
X112765476Y-50966667D01*
X112813095Y-51061905D01*
X112527381Y-50157143D02*
X112527381Y-49538095D01*
X112908333Y-49871429D01*
X112908333Y-49728571D01*
X112955952Y-49633333D01*
X113003571Y-49585714D01*
X113098810Y-49538095D01*
X113336905Y-49538095D01*
X113432143Y-49585714D01*
X113479762Y-49633333D01*
X113527381Y-49728571D01*
X113527381Y-50014286D01*
X113479762Y-50109524D01*
X113432143Y-50157143D01*
X125087143Y-71527381D02*
X124753809Y-71051190D01*
X124515714Y-71527381D02*
X124515714Y-70527381D01*
X124896667Y-70527381D01*
X124991905Y-70575000D01*
X125039524Y-70622619D01*
X125087143Y-70717857D01*
X125087143Y-70860714D01*
X125039524Y-70955952D01*
X124991905Y-71003571D01*
X124896667Y-71051190D01*
X124515714Y-71051190D01*
X126039524Y-71527381D02*
X125468095Y-71527381D01*
X125753809Y-71527381D02*
X125753809Y-70527381D01*
X125658571Y-70670238D01*
X125563333Y-70765476D01*
X125468095Y-70813095D01*
X126896667Y-70860714D02*
X126896667Y-71527381D01*
X126658571Y-70479762D02*
X126420476Y-71194048D01*
X127039524Y-71194048D01*
X123182143Y-50027381D02*
X122848809Y-49551190D01*
X122610714Y-50027381D02*
X122610714Y-49027381D01*
X122991667Y-49027381D01*
X123086905Y-49075000D01*
X123134524Y-49122619D01*
X123182143Y-49217857D01*
X123182143Y-49360714D01*
X123134524Y-49455952D01*
X123086905Y-49503571D01*
X122991667Y-49551190D01*
X122610714Y-49551190D01*
X124134524Y-50027381D02*
X123563095Y-50027381D01*
X123848809Y-50027381D02*
X123848809Y-49027381D01*
X123753571Y-49170238D01*
X123658333Y-49265476D01*
X123563095Y-49313095D01*
X125039286Y-49027381D02*
X124563095Y-49027381D01*
X124515476Y-49503571D01*
X124563095Y-49455952D01*
X124658333Y-49408333D01*
X124896429Y-49408333D01*
X124991667Y-49455952D01*
X125039286Y-49503571D01*
X125086905Y-49598810D01*
X125086905Y-49836905D01*
X125039286Y-49932143D01*
X124991667Y-49979762D01*
X124896429Y-50027381D01*
X124658333Y-50027381D01*
X124563095Y-49979762D01*
X124515476Y-49932143D01*
X131942381Y-73667857D02*
X131466190Y-74001191D01*
X131942381Y-74239286D02*
X130942381Y-74239286D01*
X130942381Y-73858333D01*
X130990000Y-73763095D01*
X131037619Y-73715476D01*
X131132857Y-73667857D01*
X131275714Y-73667857D01*
X131370952Y-73715476D01*
X131418571Y-73763095D01*
X131466190Y-73858333D01*
X131466190Y-74239286D01*
X131942381Y-72715476D02*
X131942381Y-73286905D01*
X131942381Y-73001191D02*
X130942381Y-73001191D01*
X131085238Y-73096429D01*
X131180476Y-73191667D01*
X131228095Y-73286905D01*
X130942381Y-71858333D02*
X130942381Y-72048810D01*
X130990000Y-72144048D01*
X131037619Y-72191667D01*
X131180476Y-72286905D01*
X131370952Y-72334524D01*
X131751905Y-72334524D01*
X131847143Y-72286905D01*
X131894762Y-72239286D01*
X131942381Y-72144048D01*
X131942381Y-71953571D01*
X131894762Y-71858333D01*
X131847143Y-71810714D01*
X131751905Y-71763095D01*
X131513810Y-71763095D01*
X131418571Y-71810714D01*
X131370952Y-71858333D01*
X131323333Y-71953571D01*
X131323333Y-72144048D01*
X131370952Y-72239286D01*
X131418571Y-72286905D01*
X131513810Y-72334524D01*
X52912381Y-55621905D02*
X53721905Y-55621905D01*
X53817143Y-55574286D01*
X53864762Y-55526667D01*
X53912381Y-55431429D01*
X53912381Y-55240952D01*
X53864762Y-55145714D01*
X53817143Y-55098095D01*
X53721905Y-55050476D01*
X52912381Y-55050476D01*
X53912381Y-54050476D02*
X53912381Y-54621905D01*
X53912381Y-54336191D02*
X52912381Y-54336191D01*
X53055238Y-54431429D01*
X53150476Y-54526667D01*
X53198095Y-54621905D01*
X63373095Y-86022381D02*
X63373095Y-86831905D01*
X63420714Y-86927143D01*
X63468333Y-86974762D01*
X63563571Y-87022381D01*
X63754048Y-87022381D01*
X63849286Y-86974762D01*
X63896905Y-86927143D01*
X63944524Y-86831905D01*
X63944524Y-86022381D01*
X64849286Y-86355714D02*
X64849286Y-87022381D01*
X64611190Y-85974762D02*
X64373095Y-86689048D01*
X64992143Y-86689048D01*
X62738095Y-66862381D02*
X62738095Y-67671905D01*
X62785714Y-67767143D01*
X62833333Y-67814762D01*
X62928571Y-67862381D01*
X63119048Y-67862381D01*
X63214286Y-67814762D01*
X63261905Y-67767143D01*
X63309524Y-67671905D01*
X63309524Y-66862381D01*
X64261905Y-66862381D02*
X63785714Y-66862381D01*
X63738095Y-67338571D01*
X63785714Y-67290952D01*
X63880952Y-67243333D01*
X64119048Y-67243333D01*
X64214286Y-67290952D01*
X64261905Y-67338571D01*
X64309524Y-67433810D01*
X64309524Y-67671905D01*
X64261905Y-67767143D01*
X64214286Y-67814762D01*
X64119048Y-67862381D01*
X63880952Y-67862381D01*
X63785714Y-67814762D01*
X63738095Y-67767143D01*
X94277381Y-51561905D02*
X95086905Y-51561905D01*
X95182143Y-51514286D01*
X95229762Y-51466667D01*
X95277381Y-51371429D01*
X95277381Y-51180952D01*
X95229762Y-51085714D01*
X95182143Y-51038095D01*
X95086905Y-50990476D01*
X94277381Y-50990476D01*
X94705952Y-50371429D02*
X94658333Y-50466667D01*
X94610714Y-50514286D01*
X94515476Y-50561905D01*
X94467857Y-50561905D01*
X94372619Y-50514286D01*
X94325000Y-50466667D01*
X94277381Y-50371429D01*
X94277381Y-50180952D01*
X94325000Y-50085714D01*
X94372619Y-50038095D01*
X94467857Y-49990476D01*
X94515476Y-49990476D01*
X94610714Y-50038095D01*
X94658333Y-50085714D01*
X94705952Y-50180952D01*
X94705952Y-50371429D01*
X94753571Y-50466667D01*
X94801190Y-50514286D01*
X94896429Y-50561905D01*
X95086905Y-50561905D01*
X95182143Y-50514286D01*
X95229762Y-50466667D01*
X95277381Y-50371429D01*
X95277381Y-50180952D01*
X95229762Y-50085714D01*
X95182143Y-50038095D01*
X95086905Y-49990476D01*
X94896429Y-49990476D01*
X94801190Y-50038095D01*
X94753571Y-50085714D01*
X94705952Y-50180952D01*
X136826667Y-90047381D02*
X136826667Y-90761667D01*
X136779047Y-90904524D01*
X136683809Y-90999762D01*
X136540952Y-91047381D01*
X136445714Y-91047381D01*
X137779048Y-90047381D02*
X137302857Y-90047381D01*
X137255238Y-90523571D01*
X137302857Y-90475952D01*
X137398095Y-90428333D01*
X137636191Y-90428333D01*
X137731429Y-90475952D01*
X137779048Y-90523571D01*
X137826667Y-90618810D01*
X137826667Y-90856905D01*
X137779048Y-90952143D01*
X137731429Y-90999762D01*
X137636191Y-91047381D01*
X137398095Y-91047381D01*
X137302857Y-90999762D01*
X137255238Y-90952143D01*
X42702381Y-40002381D02*
X42369047Y-39526190D01*
X42130952Y-40002381D02*
X42130952Y-39002381D01*
X42511905Y-39002381D01*
X42607143Y-39050000D01*
X42654762Y-39097619D01*
X42702381Y-39192857D01*
X42702381Y-39335714D01*
X42654762Y-39430952D01*
X42607143Y-39478571D01*
X42511905Y-39526190D01*
X42130952Y-39526190D01*
X43130952Y-39478571D02*
X43464286Y-39478571D01*
X43607143Y-40002381D02*
X43130952Y-40002381D01*
X43130952Y-39002381D01*
X43607143Y-39002381D01*
X44369048Y-39478571D02*
X44035714Y-39478571D01*
X44035714Y-40002381D02*
X44035714Y-39002381D01*
X44511905Y-39002381D01*
X45416667Y-40002381D02*
X44845238Y-40002381D01*
X45130952Y-40002381D02*
X45130952Y-39002381D01*
X45035714Y-39145238D01*
X44940476Y-39240476D01*
X44845238Y-39288095D01*
X42702381Y-132502381D02*
X42369047Y-132026190D01*
X42130952Y-132502381D02*
X42130952Y-131502381D01*
X42511905Y-131502381D01*
X42607143Y-131550000D01*
X42654762Y-131597619D01*
X42702381Y-131692857D01*
X42702381Y-131835714D01*
X42654762Y-131930952D01*
X42607143Y-131978571D01*
X42511905Y-132026190D01*
X42130952Y-132026190D01*
X43130952Y-131978571D02*
X43464286Y-131978571D01*
X43607143Y-132502381D02*
X43130952Y-132502381D01*
X43130952Y-131502381D01*
X43607143Y-131502381D01*
X44369048Y-131978571D02*
X44035714Y-131978571D01*
X44035714Y-132502381D02*
X44035714Y-131502381D01*
X44511905Y-131502381D01*
X44845238Y-131597619D02*
X44892857Y-131550000D01*
X44988095Y-131502381D01*
X45226191Y-131502381D01*
X45321429Y-131550000D01*
X45369048Y-131597619D01*
X45416667Y-131692857D01*
X45416667Y-131788095D01*
X45369048Y-131930952D01*
X44797619Y-132502381D01*
X45416667Y-132502381D01*
X135202381Y-40002381D02*
X134869047Y-39526190D01*
X134630952Y-40002381D02*
X134630952Y-39002381D01*
X135011905Y-39002381D01*
X135107143Y-39050000D01*
X135154762Y-39097619D01*
X135202381Y-39192857D01*
X135202381Y-39335714D01*
X135154762Y-39430952D01*
X135107143Y-39478571D01*
X135011905Y-39526190D01*
X134630952Y-39526190D01*
X135630952Y-39478571D02*
X135964286Y-39478571D01*
X136107143Y-40002381D02*
X135630952Y-40002381D01*
X135630952Y-39002381D01*
X136107143Y-39002381D01*
X136869048Y-39478571D02*
X136535714Y-39478571D01*
X136535714Y-40002381D02*
X136535714Y-39002381D01*
X137011905Y-39002381D01*
X137821429Y-39335714D02*
X137821429Y-40002381D01*
X137583333Y-38954762D02*
X137345238Y-39669048D01*
X137964286Y-39669048D01*
X135202381Y-132502381D02*
X134869047Y-132026190D01*
X134630952Y-132502381D02*
X134630952Y-131502381D01*
X135011905Y-131502381D01*
X135107143Y-131550000D01*
X135154762Y-131597619D01*
X135202381Y-131692857D01*
X135202381Y-131835714D01*
X135154762Y-131930952D01*
X135107143Y-131978571D01*
X135011905Y-132026190D01*
X134630952Y-132026190D01*
X135630952Y-131978571D02*
X135964286Y-131978571D01*
X136107143Y-132502381D02*
X135630952Y-132502381D01*
X135630952Y-131502381D01*
X136107143Y-131502381D01*
X136869048Y-131978571D02*
X136535714Y-131978571D01*
X136535714Y-132502381D02*
X136535714Y-131502381D01*
X137011905Y-131502381D01*
X137297619Y-131502381D02*
X137916667Y-131502381D01*
X137583333Y-131883333D01*
X137726191Y-131883333D01*
X137821429Y-131930952D01*
X137869048Y-131978571D01*
X137916667Y-132073810D01*
X137916667Y-132311905D01*
X137869048Y-132407143D01*
X137821429Y-132454762D01*
X137726191Y-132502381D01*
X137440476Y-132502381D01*
X137345238Y-132454762D01*
X137297619Y-132407143D01*
%LPC*%
D14*
X93345000Y-116205000D03*
X93345000Y-121205000D03*
X82550000Y-88900000D03*
X77550000Y-88900000D03*
X77470000Y-64770000D03*
X82470000Y-64770000D03*
D15*
X78740000Y-58420000D03*
D14*
X80740000Y-58420000D03*
X130810000Y-110490000D03*
X130810000Y-105490000D03*
X132080000Y-97790000D03*
X132080000Y-102790000D03*
X92710000Y-71120000D03*
X92710000Y-76120000D03*
X131445000Y-52070000D03*
X131445000Y-57070000D03*
D16*
X75565000Y-48260000D03*
D17*
X75565000Y-45720000D03*
X75565000Y-43180000D03*
D18*
X78740000Y-43180000D03*
D19*
X78740000Y-50800000D03*
D18*
X108585000Y-114935000D03*
D19*
X108585000Y-122555000D03*
D15*
X97155000Y-122555000D03*
D20*
X104775000Y-114935000D03*
X99695000Y-122555000D03*
X102235000Y-114935000D03*
X102235000Y-122555000D03*
X99695000Y-114935000D03*
X104775000Y-122555000D03*
X97155000Y-114935000D03*
D15*
X97155000Y-100330000D03*
D20*
X104775000Y-92710000D03*
X99695000Y-100330000D03*
X102235000Y-92710000D03*
X102235000Y-100330000D03*
X99695000Y-92710000D03*
X104775000Y-100330000D03*
X97155000Y-92710000D03*
D15*
X119380000Y-111760000D03*
D20*
X127000000Y-104140000D03*
X121920000Y-111760000D03*
X124460000Y-104140000D03*
X124460000Y-111760000D03*
X121920000Y-104140000D03*
X127000000Y-111760000D03*
X119380000Y-104140000D03*
D15*
X97155000Y-77470000D03*
D20*
X104775000Y-69850000D03*
X99695000Y-77470000D03*
X102235000Y-69850000D03*
X102235000Y-77470000D03*
X99695000Y-69850000D03*
X104775000Y-77470000D03*
X97155000Y-69850000D03*
D15*
X119380000Y-66040000D03*
D20*
X127000000Y-58420000D03*
X121920000Y-66040000D03*
X124460000Y-58420000D03*
X124460000Y-66040000D03*
X121920000Y-58420000D03*
X127000000Y-66040000D03*
X119380000Y-58420000D03*
D14*
X69850000Y-43180000D03*
X69850000Y-48180000D03*
X69850000Y-50800000D03*
X69850000Y-55800000D03*
X55880000Y-74930000D03*
X50880000Y-74930000D03*
D15*
X54610000Y-81280000D03*
D14*
X52610000Y-81280000D03*
X111760000Y-116205000D03*
X111760000Y-121205000D03*
X111760000Y-93980000D03*
X111760000Y-98980000D03*
X106045000Y-127000000D03*
X101045000Y-127000000D03*
X92710000Y-93980000D03*
X92710000Y-98980000D03*
X106045000Y-104775000D03*
X101045000Y-104775000D03*
X99695000Y-111125000D03*
X102195000Y-111125000D03*
X99695000Y-88265000D03*
X102195000Y-88265000D03*
D15*
X77470000Y-73660000D03*
D14*
X74970000Y-73660000D03*
D15*
X78740000Y-93980000D03*
D14*
X80740000Y-93980000D03*
D15*
X77470000Y-81280000D03*
D14*
X74970000Y-81280000D03*
D15*
X83820000Y-73660000D03*
D14*
X83820000Y-75660000D03*
X128270000Y-118745000D03*
X123270000Y-118745000D03*
X135255000Y-110490000D03*
X135255000Y-105490000D03*
X122555000Y-100330000D03*
X127555000Y-100330000D03*
X111760000Y-71120000D03*
X111760000Y-76120000D03*
X111760000Y-48260000D03*
X111760000Y-53260000D03*
X106045000Y-81915000D03*
X101045000Y-81915000D03*
X92710000Y-48260000D03*
X92710000Y-53260000D03*
X106045000Y-59055000D03*
X101045000Y-59055000D03*
X99695000Y-65405000D03*
X102195000Y-65405000D03*
X99695000Y-43180000D03*
X102195000Y-43180000D03*
X128270000Y-73025000D03*
X123270000Y-73025000D03*
X135255000Y-64770000D03*
X135255000Y-59770000D03*
X130810000Y-64770000D03*
X130810000Y-59770000D03*
X122555000Y-54610000D03*
X127555000Y-54610000D03*
D16*
X50800000Y-53340000D03*
D17*
X50800000Y-50800000D03*
X50800000Y-48260000D03*
X50800000Y-45720000D03*
D16*
X45085000Y-50800000D03*
D17*
X42545000Y-50800000D03*
X45085000Y-53340000D03*
X42545000Y-53340000D03*
X45085000Y-55880000D03*
X42545000Y-55880000D03*
X45085000Y-58420000D03*
X42545000Y-58420000D03*
X45085000Y-60960000D03*
X42545000Y-60960000D03*
X45085000Y-63500000D03*
X42545000Y-63500000D03*
X45085000Y-66040000D03*
X42545000Y-66040000D03*
X45085000Y-68580000D03*
X42545000Y-68580000D03*
X45085000Y-71120000D03*
X42545000Y-71120000D03*
X45085000Y-73660000D03*
X42545000Y-73660000D03*
X45085000Y-76200000D03*
X42545000Y-76200000D03*
X45085000Y-78740000D03*
X42545000Y-78740000D03*
X45085000Y-81280000D03*
X42545000Y-81280000D03*
X45085000Y-83820000D03*
X42545000Y-83820000D03*
X45085000Y-86360000D03*
X42545000Y-86360000D03*
X45085000Y-88900000D03*
X42545000Y-88900000D03*
X45085000Y-91440000D03*
X42545000Y-91440000D03*
X45085000Y-93980000D03*
X42545000Y-93980000D03*
X45085000Y-96520000D03*
X42545000Y-96520000D03*
X45085000Y-99060000D03*
X42545000Y-99060000D03*
D16*
X52705000Y-64135000D03*
D17*
X52705000Y-66675000D03*
X52705000Y-69215000D03*
D18*
X108585000Y-92710000D03*
D19*
X108585000Y-100330000D03*
D18*
X71120000Y-78740000D03*
D19*
X71120000Y-71120000D03*
D18*
X114935000Y-122555000D03*
D19*
X114935000Y-114935000D03*
D18*
X114935000Y-100330000D03*
D19*
X114935000Y-92710000D03*
D18*
X129540000Y-114935000D03*
D19*
X121920000Y-114935000D03*
D18*
X120650000Y-97155000D03*
D19*
X128270000Y-97155000D03*
D18*
X108585000Y-69850000D03*
D19*
X108585000Y-77470000D03*
D18*
X108585000Y-46990000D03*
D19*
X108585000Y-54610000D03*
D18*
X132080000Y-86360000D03*
D19*
X132080000Y-93980000D03*
D18*
X114935000Y-77470000D03*
D19*
X114935000Y-69850000D03*
D18*
X114935000Y-54610000D03*
D19*
X114935000Y-46990000D03*
D18*
X129540000Y-69215000D03*
D19*
X121920000Y-69215000D03*
D18*
X120015000Y-51435000D03*
D19*
X127635000Y-51435000D03*
D18*
X133350000Y-76835000D03*
D19*
X133350000Y-69215000D03*
D21*
X60960000Y-62230000D03*
X60960000Y-59690000D03*
X60960000Y-57150000D03*
X60960000Y-52070000D03*
X60960000Y-49530000D03*
X60960000Y-46990000D03*
X60960000Y-44450000D03*
D15*
X60325000Y-88900000D03*
D20*
X67945000Y-96520000D03*
X60325000Y-91440000D03*
X67945000Y-93980000D03*
X60325000Y-93980000D03*
X67945000Y-91440000D03*
X60325000Y-96520000D03*
X67945000Y-88900000D03*
D22*
X59900000Y-69435000D03*
X59900000Y-70085000D03*
X59900000Y-70735000D03*
X59900000Y-71385000D03*
X59900000Y-72035000D03*
X59900000Y-72685000D03*
X59900000Y-73335000D03*
X59900000Y-73985000D03*
X59900000Y-74635000D03*
X59900000Y-75285000D03*
X59900000Y-75935000D03*
X59900000Y-76585000D03*
X59900000Y-77235000D03*
X59900000Y-77885000D03*
X67100000Y-77885000D03*
X67100000Y-77235000D03*
X67100000Y-76585000D03*
X67100000Y-75935000D03*
X67100000Y-75285000D03*
X67100000Y-74635000D03*
X67100000Y-73985000D03*
X67100000Y-73335000D03*
X67100000Y-72685000D03*
X67100000Y-72035000D03*
X67100000Y-71385000D03*
X67100000Y-70735000D03*
X67100000Y-70085000D03*
X67100000Y-69435000D03*
D15*
X97155000Y-54610000D03*
D20*
X104775000Y-46990000D03*
X99695000Y-54610000D03*
X102235000Y-46990000D03*
X102235000Y-54610000D03*
X99695000Y-46990000D03*
X104775000Y-54610000D03*
X97155000Y-46990000D03*
D16*
X137160000Y-88265000D03*
D17*
X137160000Y-85725000D03*
X137160000Y-83185000D03*
D23*
X43750000Y-43750000D03*
X43750000Y-136250000D03*
X136250000Y-43750000D03*
X136250000Y-136250000D03*
M02*
